<?xml version="1.0" standalone="no"?>
<!DOCTYPE svg PUBLIC "-//W3C//DTD SVG 1.0//EN" "http://www.w3.org/TR/2001/REC-SVG-20010904/DTD/svg10.dtd">
<svg xmlns="http://www.w3.org/2000/svg" xmlns:xlink="http://www.w3.org/1999/xlink" id="body_1" width="172" height="197">

<defs>
        <clipPath  id="1">

            <path clip-rule="evenodd" d="M56.7941 18.5702L11.3587 54.0744C 7.52717 57.0684 6.84531 62.6254 9.86582 66.4908L9.86582 66.4908L45.6879 112.333C 48.7085 116.199 54.2655 116.88 58.097 113.886L58.097 113.886L96.5476 83.8404L89.8489 78.9718L97.3419 79.6153L104.412 80.207L116.736 80.9527L69.2032 20.1234C 66.1827 16.258 60.6256 15.5762 56.7941 18.5702zM78.3093 73.0802C 78.3093 73.0802 75.9494 72.576 73.9253 72.0824C 77.3868 67.3569 76.9095 63.2517 76.9095 63.2517C 76.2347 65.2536 75.4158 66.9311 74.5734 68.2993C 73.4345 70.3361 72.1779 72.0826 70.7962 73.5991C 68.0181 76.753 64.9018 78.9151 61.9878 80.4276C 59.7637 81.5649 57.6783 82.3206 55.8642 82.8645C 54.8458 83.1687 53.7067 83.4581 52.4881 83.6458C 52.3334 83.6575 52.2052 83.7031 52.0504 83.7147C 51.9561 83.7338 51.8957 83.7264 51.8353 83.719C 50.96 83.8568 50.4355 83.8844 50.4355 83.8844C 50.4355 83.8844 54.1827 85.3252 59.4957 83.2487C 59.4854 85.3321 59.4231 87.8382 59.4231 87.8382C 51.7442 93.4564 45.0541 90.7655 45.0541 90.7655C 36.5225 79.8475 34.4898 67.1823 34.4898 67.1823C 36.5108 59.705 41.2356 56.1768 41.2356 56.1768L41.2356 56.1768L41.8926 56.3187C 37.1671 62.8511 36.446 67.7289 36.446 67.7289C 36.446 67.7289 36.874 66.7391 37.6781 65.1824C 40.0609 60.7537 42.5985 58.0608 43.7058 57.0317C 43.8828 56.8388 44.0258 56.6725 44.2292 56.5135C 46.0856 54.626 48.3722 52.73 51.0255 51.0935C 54.5381 48.9494 58.7385 47.1963 63.7751 46.3734C 63.7751 46.3734 59.1093 45.9236 51.9673 48.6646L51.9673 48.6646L52.018 47.7512C 52.018 47.7512 56.5838 44.0196 64.328 43.8662C 64.328 43.8662 76.126 48.9005 84.6576 59.8186C 84.6576 59.8186 85.6173 66.9873 78.3093 73.0802z" />        </clipPath>
        <clipPath  id="2">

            <path clip-rule="evenodd" d="M169.979 163.452L139.563 187.22C 136.998 189.224 136.542 192.944 138.564 195.532L138.564 195.532L162.544 226.221C 164.566 228.808 168.287 229.265 170.852 227.26L170.852 227.26L196.592 207.146L192.108 203.887L197.124 204.318L201.857 204.714L210.107 205.213L178.287 164.491C 176.264 161.904 172.544 161.447 169.979 163.452zM184.383 199.943C 184.383 199.943 182.803 199.605 181.448 199.275C 183.765 196.112 183.445 193.363 183.445 193.363C 182.994 194.704 182.445 195.827 181.882 196.742C 181.119 198.106 180.278 199.275 179.353 200.29C 177.493 202.402 175.407 203.849 173.456 204.862C 171.967 205.623 170.571 206.129 169.357 206.493C 168.675 206.697 167.913 206.89 167.097 207.016C 166.993 207.024 166.907 207.054 166.804 207.062C 166.741 207.075 166.7 207.07 166.66 207.065C 166.074 207.157 165.723 207.176 165.723 207.176C 165.723 207.176 168.231 208.14 171.788 206.75C 171.781 208.145 171.739 209.823 171.739 209.823C 166.599 213.584 162.12 211.782 162.12 211.782C 156.409 204.473 155.048 195.995 155.048 195.995C 156.401 190.989 159.564 188.627 159.564 188.627L159.564 188.627L160.004 188.722C 156.84 193.095 156.357 196.361 156.357 196.361C 156.357 196.361 156.644 195.698 157.182 194.656C 158.777 191.691 160.476 189.888 161.217 189.199C 161.336 189.07 161.432 188.959 161.568 188.853C 162.811 187.589 164.341 186.32 166.118 185.224C 168.469 183.789 171.281 182.615 174.653 182.064C 174.653 182.064 171.529 181.763 166.748 183.598L166.748 183.598L166.782 182.987C 166.782 182.987 169.839 180.489 175.023 180.386C 175.023 180.386 182.921 183.756 188.632 191.065C 188.632 191.065 189.275 195.864 184.383 199.943z" />        </clipPath>
</defs>

<g transform="matrix(0.80737704 0 0 0.80737704 0.01434617 -0)">
    <path d="M56.7941 18.5702L11.3587 54.0744C 7.52717 57.0684 6.84531 62.6254 9.86582 66.4908L9.86582 66.4908L45.6879 112.333C 48.7085 116.199 54.2655 116.88 58.097 113.886L58.097 113.886L96.5476 83.8404L89.8489 78.9718L97.3419 79.6153L104.412 80.207L116.736 80.9527L69.2032 20.1234C 66.1827 16.258 60.6256 15.5762 56.7941 18.5702zM78.3093 73.0802C 78.3093 73.0802 75.9494 72.576 73.9253 72.0824C 77.3868 67.3569 76.9095 63.2517 76.9095 63.2517C 76.2347 65.2536 75.4158 66.9311 74.5734 68.2993C 73.4345 70.3361 72.1779 72.0826 70.7962 73.5991C 68.0181 76.753 64.9018 78.9151 61.9878 80.4276C 59.7637 81.5649 57.6783 82.3206 55.8642 82.8645C 54.8458 83.1687 53.7067 83.4581 52.4881 83.6458C 52.3334 83.6575 52.2052 83.7031 52.0504 83.7147C 51.9561 83.7338 51.8957 83.7264 51.8353 83.719C 50.96 83.8568 50.4355 83.8844 50.4355 83.8844C 50.4355 83.8844 54.1827 85.3252 59.4957 83.2487C 59.4854 85.3321 59.4231 87.8382 59.4231 87.8382C 51.7442 93.4564 45.0541 90.7655 45.0541 90.7655C 36.5225 79.8475 34.4898 67.1823 34.4898 67.1823C 36.5108 59.705 41.2356 56.1768 41.2356 56.1768L41.2356 56.1768L41.8926 56.3187C 37.1671 62.8511 36.446 67.7289 36.446 67.7289C 36.446 67.7289 36.874 66.7391 37.6781 65.1824C 40.0609 60.7537 42.5985 58.0608 43.7058 57.0317C 43.8828 56.8388 44.0258 56.6725 44.2292 56.5135C 46.0856 54.626 48.3722 52.73 51.0255 51.0935C 54.5381 48.9494 58.7385 47.1963 63.7751 46.3734C 63.7751 46.3734 59.1093 45.9236 51.9673 48.6646L51.9673 48.6646L52.018 47.7512C 52.018 47.7512 56.5838 44.0196 64.328 43.8662C 64.328 43.8662 76.126 48.9005 84.6576 59.8186C 84.6576 59.8186 85.6173 66.9873 78.3093 73.0802z" stroke="none" fill="#FFFFFF" fill-rule="nonzero" />
    <path d="M56.7941 18.5702L11.3587 54.0744C 7.52717 57.0684 6.84531 62.6254 9.86582 66.4908L9.86582 66.4908L45.6879 112.333C 48.7085 116.199 54.2655 116.88 58.097 113.886L58.097 113.886L96.5476 83.8404L89.8489 78.9718L97.3419 79.6153L104.412 80.207L116.736 80.9527L69.2032 20.1234C 66.1827 16.258 60.6256 15.5762 56.7941 18.5702zM78.3093 73.0802C 78.3093 73.0802 75.9494 72.576 73.9253 72.0824C 77.3868 67.3569 76.9095 63.2517 76.9095 63.2517C 76.2347 65.2536 75.4158 66.9311 74.5734 68.2993C 73.4345 70.3361 72.1779 72.0826 70.7962 73.5991C 68.0181 76.753 64.9018 78.9151 61.9878 80.4276C 59.7637 81.5649 57.6783 82.3206 55.8642 82.8645C 54.8458 83.1687 53.7067 83.4581 52.4881 83.6458C 52.3334 83.6575 52.2052 83.7031 52.0504 83.7147C 51.9561 83.7338 51.8957 83.7264 51.8353 83.719C 50.96 83.8568 50.4355 83.8844 50.4355 83.8844C 50.4355 83.8844 54.1827 85.3252 59.4957 83.2487C 59.4854 85.3321 59.4231 87.8382 59.4231 87.8382C 51.7442 93.4564 45.0541 90.7655 45.0541 90.7655C 36.5225 79.8475 34.4898 67.1823 34.4898 67.1823C 36.5108 59.705 41.2356 56.1768 41.2356 56.1768L41.2356 56.1768L41.8926 56.3187C 37.1671 62.8511 36.446 67.7289 36.446 67.7289C 36.446 67.7289 36.874 66.7391 37.6781 65.1824C 40.0609 60.7537 42.5985 58.0608 43.7058 57.0317C 43.8828 56.8388 44.0258 56.6725 44.2292 56.5135C 46.0856 54.626 48.3722 52.73 51.0255 51.0935C 54.5381 48.9494 58.7385 47.1963 63.7751 46.3734C 63.7751 46.3734 59.1093 45.9236 51.9673 48.6646L51.9673 48.6646L52.018 47.7512C 52.018 47.7512 56.5838 44.0196 64.328 43.8662C 64.328 43.8662 76.126 48.9005 84.6576 59.8186C 84.6576 59.8186 85.6173 66.9873 78.3093 73.0802z" stroke="none" fill="#0C090A" fill-rule="nonzero" />
    <path clip-path="url(#1)"  d="M96.5476 83.8404L127.334 123.238L179.604 82.3937L125.943 43.3941L96.5476 83.8404zM89.8489 78.9718L94.1271 29.1552L-84.8962 13.7807L60.4533 119.418L89.8489 78.9718zM97.3419 79.6153L93.0637 129.432L93.1182 129.437L93.1727 129.441L97.3419 79.6153zM104.412 80.207L100.243 130.033L100.817 130.081L101.392 130.116L104.412 80.207zM116.736 80.9527L113.716 130.861L224.426 137.561L156.134 50.1664L116.736 80.9527zM73.9253 72.0824L33.5893 42.5357L-10.6456 102.924L62.0791 120.659L73.9253 72.0824zM76.9095 63.2517L126.575 57.4773L29.5291 47.2799L76.9095 63.2517zM74.5735 68.2993L31.9957 42.086L31.4452 42.9801L30.9328 43.8965L74.5735 68.2993zM70.7962 73.5991L33.8354 39.9257L33.5534 40.2353L33.2766 40.5495L70.7962 73.5991zM61.9878 80.4276L84.751 124.945L84.8867 124.876L85.022 124.806L61.9878 80.4276zM55.8642 82.8645L70.1771 130.772L70.1992 130.765L70.2212 130.759L55.8642 82.8645zM52.4881 83.6458L56.2498 133.504L58.1832 133.358L60.0994 133.063L52.4881 83.6458zM52.0504 83.7147L48.2887 33.8564L45.1847 34.0906L42.1336 34.708L52.0504 83.7147zM51.8353 83.719L57.9247 34.0912L50.974 33.2383L44.0566 34.3278L51.8353 83.719zM50.4355 83.8844L47.8076 33.9536L32.4915 130.554L50.4355 83.8844zM59.4957 83.2487L109.495 83.4978L109.862 9.88129L41.295 36.6791L59.4957 83.2487zM59.4231 87.8382L88.9467 128.191L108.797 113.668L109.408 89.08L59.4231 87.8382zM45.0541 90.7655L5.65612 121.552L13.9295 132.14L26.3957 137.154L45.0541 90.7655zM34.4898 67.1823L-13.7781 54.1358L-16.5802 64.5027L-14.8784 75.1059L34.4898 67.1823zM41.2356 56.1768L51.7931 7.30414L29.5514 2.49946L11.3191 16.1143L41.2356 56.1768zM41.8926 56.3187L82.404 85.6245L127.267 23.608L52.4501 7.44606L41.8926 56.3187zM36.446 67.7289L-13.0164 60.4165L82.339 87.5741L36.446 67.7289zM37.6781 65.1824L-6.35333 41.4921L-6.55248 41.8622L-6.74538 42.2357L37.6781 65.1824zM43.7058 57.0317L77.7443 93.6566L79.2036 92.3004L80.5503 90.8324L43.7058 57.0317zM44.2292 56.5135L75.0156 95.9115L77.5881 93.9013L79.8773 91.5737L44.2292 56.5135zM51.0255 51.0935L24.975 8.41598L24.8765 8.47614L24.7782 8.53675L51.0255 51.0935zM63.7751 46.3734L71.8369 95.7192L68.5738 -3.39576L63.7751 46.3734zM51.9673 48.6646L2.04432 45.8901L-2.2427 123.027L69.8831 95.3447L51.9673 48.6646zM52.018 47.7512L20.3765 9.03666L3.31766 22.9789L2.09509 44.9766L52.018 47.7512zM64.328 43.8662L83.9518 -2.12195L74.0745 -6.33673L63.3377 -6.12403L64.328 43.8662zM84.6576 59.8186L134.215 53.1836L132.414 39.7287L124.056 29.0323L84.6576 59.8186zM26.0078 -20.8278L-19.4277 14.6764L42.145 93.4723L87.5805 57.9682L26.0078 -20.8278zM-19.4277 14.6764C -45.1428 34.7707 -49.4578 71.7778 -29.5322 97.2772L-29.5322 97.2772L49.2638 35.7045C 63.1485 53.473 60.1972 79.366 42.145 93.4723L42.145 93.4723L-19.4277 14.6764zM-29.5322 97.2772L6.28997 143.12L85.0859 81.5469L49.2638 35.7045L-29.5322 97.2772zM6.28997 143.12C 26.2157 168.619 63.1682 173.379 88.8833 153.284L88.8833 153.284L27.3106 74.4885C 45.3628 60.3822 71.2012 63.7783 85.0859 81.5469L85.0859 81.5469L6.28997 143.12zM88.8833 153.284L127.334 123.238L65.7613 44.4424L27.3106 74.4885L88.8833 153.284zM125.943 43.3941L119.244 38.5256L60.4533 119.418L67.152 124.287L125.943 43.3941zM85.5706 128.788L93.0637 129.432L101.62 29.7987L94.1271 29.1552L85.5706 128.788zM93.1727 129.441L100.243 130.033L108.581 30.3811L101.511 29.7895L93.1727 129.441zM101.392 130.116L113.716 130.861L119.757 31.044L107.432 30.2983L101.392 130.116zM156.134 50.1664L108.601 -10.6629L29.8052 50.9098L77.3384 111.739L156.134 50.1664zM108.601 -10.6629C 88.6755 -36.1623 51.7229 -40.9221 26.0078 -20.8278L26.0078 -20.8278L87.5805 57.9682C 69.5283 72.0745 43.6899 68.6783 29.8052 50.9098L29.8052 50.9098L108.601 -10.6629zM78.3093 73.0802C 88.7552 24.1835 88.7558 24.1836 88.7564 24.1838C 88.7566 24.1838 88.7571 24.1839 88.7575 24.184C 88.7582 24.1841 88.7589 24.1843 88.7596 24.1844C 88.7609 24.1847 88.7621 24.185 88.7631 24.1852C 88.7652 24.1856 88.7667 24.186 88.7677 24.1862C 88.7697 24.1866 88.7696 24.1866 88.7675 24.1861C 88.7633 24.1852 88.7511 24.1826 88.7315 24.1784C 88.6921 24.1699 88.6238 24.1551 88.5315 24.1351C 88.3453 24.0946 88.0706 24.0345 87.7454 23.962C 87.0472 23.8065 86.3176 23.6392 85.7715 23.506L85.7715 23.506L62.0791 120.659C 63.5571 121.019 65.0195 121.351 66.0073 121.571C 66.5251 121.686 66.9669 121.783 67.2864 121.852C 67.447 121.887 67.5789 121.916 67.6765 121.937C 67.7254 121.947 67.7658 121.956 67.7971 121.963C 67.8128 121.966 67.8262 121.969 67.8373 121.971C 67.8428 121.972 67.8478 121.973 67.8522 121.974C 67.8543 121.975 67.8564 121.975 67.8582 121.976C 67.8592 121.976 67.8601 121.976 67.861 121.976C 67.8614 121.976 67.862 121.977 67.8622 121.977C 67.8628 121.977 67.8634 121.977 78.3093 73.0802zM114.261 101.629C 120.866 92.6121 124.261 83.3586 125.802 75.4078C 126.559 71.5026 126.859 67.9776 126.92 64.9849C 126.95 63.4845 126.921 62.1017 126.856 60.8518C 126.824 60.2261 126.783 59.6313 126.735 59.0691C 126.711 58.7879 126.685 58.5146 126.659 58.2493C 126.645 58.1167 126.632 57.986 126.618 57.8573C 126.611 57.793 126.604 57.7292 126.597 57.6658C 126.593 57.6342 126.589 57.6026 126.586 57.5712C 126.584 57.5555 126.581 57.532 126.58 57.5242C 126.578 57.5007 126.575 57.4773 76.9095 63.2517C 27.2441 69.0262 27.2414 69.0028 27.2387 68.9794C 27.2378 68.9716 27.2351 68.9482 27.2333 68.9327C 27.2297 68.9015 27.2262 68.8703 27.2227 68.8391C 27.2157 68.7768 27.2088 68.7145 27.202 68.6521C 27.1885 68.5274 27.1754 68.4027 27.1629 68.278C 27.1377 68.0286 27.1145 67.7788 27.0933 67.5289C 27.0508 67.0291 27.0163 66.5271 26.9902 66.0229C 26.938 65.016 26.9192 63.9909 26.9404 62.9492C 26.9826 60.8738 27.1853 58.6704 27.6288 56.3822C 28.5429 51.6654 30.4458 46.8272 33.5893 42.5357L33.5893 42.5357L114.261 101.629zM29.5291 47.2799C 30.0662 45.6867 30.8607 43.9295 31.9957 42.086L31.9957 42.086L117.151 94.5125C 119.971 89.9327 122.403 84.8204 124.29 79.2236L124.29 79.2236L29.5291 47.2799zM30.9328 43.8965C 31.5235 42.8401 32.4633 41.4319 33.8354 39.9257L33.8354 39.9257L107.757 107.273C 111.893 102.733 115.345 97.8321 118.214 92.702L118.214 92.702L30.9328 43.8965zM33.2766 40.5495C 35.3406 38.2063 37.4956 36.8062 38.9536 36.0494L38.9536 36.0494L85.022 124.806C 92.308 121.024 100.696 115.3 108.316 106.649L108.316 106.649L33.2766 40.5495zM39.2246 35.9098C 40.3126 35.3535 41.1736 35.07 41.5071 34.97L41.5071 34.97L70.2212 130.759C 74.1829 129.571 79.2147 127.776 84.751 124.945L84.751 124.945L39.2246 35.9098zM41.5512 34.9568C 41.9485 34.8381 43.1459 34.4951 44.8768 34.2285L44.8768 34.2285L60.0994 133.063C 64.2675 132.421 67.7431 131.499 70.1771 130.772L70.1771 130.772L41.5512 34.9568zM48.7264 33.7875C 46.7692 33.9352 45.1614 34.1708 44.0706 34.3545C 43.5315 34.4453 43.092 34.5282 42.8126 34.5824C 42.6711 34.6098 42.5551 34.6329 42.4809 34.6477C 42.4126 34.6614 42.3528 34.6735 42.3524 34.6736C 42.3351 34.6771 42.3772 34.6685 42.4279 34.6584C 42.4843 34.6471 42.5826 34.6275 42.7062 34.6036C 42.9502 34.5563 43.3538 34.4801 43.8567 34.3953C 44.8752 34.2238 46.4089 33.9983 48.2887 33.8564L48.2887 33.8564L55.8122 133.573C 57.7694 133.425 59.3771 133.19 60.468 133.006C 61.0071 132.915 61.4465 132.832 61.726 132.778C 61.8674 132.751 61.9835 132.728 62.0576 132.713C 62.126 132.699 62.1858 132.687 62.1862 132.687C 62.2035 132.683 62.1613 132.692 62.1107 132.702C 62.0543 132.713 61.956 132.733 61.8323 132.757C 61.5884 132.804 61.1847 132.88 60.6818 132.965C 59.6633 133.137 58.1297 133.362 56.2498 133.504L56.2498 133.504L48.7264 33.7875zM42.1336 34.708C 45.546 34.0175 49.0232 33.6903 52.502 33.7301C 55.6057 33.7656 58.1579 34.1198 57.9247 34.0912L57.9247 34.0912L45.746 133.347C 47.2543 133.532 53.7968 134.375 61.9673 132.721L61.9673 132.721L42.1336 34.708zM44.0566 34.3278C 44.6237 34.2385 45.2074 34.1642 45.8159 34.1032C 46.122 34.0724 46.4394 34.0446 46.7694 34.0197C 46.9346 34.0072 47.1035 33.9955 47.2763 33.9844C 47.3627 33.9789 47.4502 33.9736 47.5387 33.9684C 47.583 33.9659 47.6275 33.9633 47.6723 33.9609C 47.6947 33.9596 47.7172 33.9584 47.7398 33.9572C 47.751 33.9566 47.7623 33.956 47.7736 33.9554C 47.7793 33.955 47.7849 33.9547 47.7906 33.9544C 47.7934 33.9543 47.7977 33.9541 47.7991 33.954C 47.8034 33.9538 47.8076 33.9536 50.4355 83.8844C 53.0634 133.815 53.0677 133.815 53.0719 133.815C 53.0734 133.815 53.0776 133.815 53.0805 133.814C 53.0862 133.814 53.0919 133.814 53.0976 133.814C 53.109 133.813 53.1205 133.812 53.132 133.812C 53.1551 133.81 53.1783 133.809 53.2018 133.808C 53.2486 133.805 53.2962 133.803 53.3445 133.8C 53.4411 133.794 53.5407 133.788 53.6432 133.782C 53.8481 133.768 54.0648 133.753 54.2929 133.736C 54.7486 133.702 55.2518 133.659 55.7985 133.604C 56.8881 133.494 58.1717 133.337 59.6141 133.11L59.6141 133.11L44.0566 34.3278zM50.4355 83.8844C 32.4915 130.554 32.5133 130.562 32.5352 130.57C 32.5425 130.573 32.5645 130.582 32.5791 130.587C 32.6085 130.598 32.6379 130.61 32.6675 130.621C 32.7267 130.643 32.7863 130.666 32.8465 130.689C 32.9668 130.734 33.0891 130.779 33.2133 130.825C 33.4617 130.916 33.718 131.008 33.9822 131.1C 34.5104 131.285 35.0709 131.471 35.663 131.657C 36.8457 132.027 38.1627 132.396 39.6058 132.737C 42.4843 133.417 45.9243 134.001 49.8364 134.247C 57.7964 134.747 67.4532 133.822 77.6964 129.818L77.6964 129.818L41.295 36.6791C 46.2252 34.7522 51.3519 34.1447 56.11 34.4438C 58.4212 34.589 60.5924 34.9422 62.6023 35.4172C 63.611 35.6555 64.5938 35.928 65.5508 36.2277C 66.03 36.3778 66.5049 36.5354 66.9756 36.6999C 67.211 36.7822 67.4457 36.8663 67.6796 36.9522C 67.7965 36.9951 67.9133 37.0385 68.03 37.0824C 68.0883 37.1043 68.1466 37.1263 68.2049 37.1485C 68.234 37.1596 68.2631 37.1707 68.2922 37.1818C 68.3068 37.1874 68.3286 37.1957 68.3359 37.1985C 68.3577 37.2069 68.3796 37.2153 50.4355 83.8844zM9.49635 82.9997C 9.49286 83.7018 9.47959 84.5837 9.46456 85.3744C 9.4574 85.7508 9.45053 86.0713 9.44556 86.2931C 9.44308 86.4034 9.44112 86.4877 9.43987 86.5404C 9.43924 86.5667 9.4388 86.585 9.43856 86.5946C 9.43845 86.5994 9.43838 86.602 9.43837 86.6024C 9.43837 86.6026 9.43838 86.6022 9.4384 86.6012C 9.43842 86.6007 9.43843 86.6001 9.43845 86.5993C 9.43846 86.5989 9.43847 86.5985 9.43848 86.598C 9.43849 86.5978 9.4385 86.5974 9.4385 86.5973C 9.43851 86.5969 9.43852 86.5965 59.4231 87.8382C 109.408 89.08 109.408 89.0795 109.408 89.0791C 109.408 89.079 109.408 89.0785 109.408 89.0782C 109.408 89.0776 109.408 89.077 109.408 89.0763C 109.408 89.0749 109.408 89.0733 109.408 89.0716C 109.408 89.0682 109.408 89.0642 109.408 89.0596C 109.408 89.0503 109.409 89.0386 109.409 89.0245C 109.41 88.9964 109.411 88.9589 109.412 88.9126C 109.414 88.8201 109.417 88.6923 109.42 88.5351C 109.427 88.2218 109.437 87.7856 109.446 87.2751C 109.465 86.2918 109.488 84.8791 109.495 83.4978L109.495 83.4978L9.49635 82.9997zM29.8995 47.4854C 35.367 43.4851 42.1722 41.4862 48.7978 41.4119C 51.8393 41.3777 54.5873 41.7431 56.9692 42.2675C 58.1725 42.5324 59.3277 42.8477 60.4355 43.1981C 60.9914 43.3739 61.5412 43.5605 62.0854 43.7566C 62.3577 43.8548 62.6293 43.9556 62.9002 44.059C 63.0357 44.1107 63.1711 44.1631 63.3065 44.2161C 63.3742 44.2426 63.4418 44.2693 63.5095 44.2962C 63.5433 44.3096 63.5772 44.3231 63.611 44.3366C 63.6279 44.3434 63.6533 44.3536 63.6617 44.357C 63.6871 44.3671 63.7125 44.3773 45.0541 90.7655C 26.3957 137.154 26.4212 137.164 26.4466 137.174C 26.4552 137.178 26.4807 137.188 26.4978 137.195C 26.5321 137.208 26.5665 137.222 26.6012 137.236C 26.6704 137.263 26.7405 137.291 26.8115 137.319C 26.9533 137.374 27.0984 137.431 27.2468 137.487C 27.5435 137.6 27.8536 137.716 28.1768 137.832C 28.8228 138.065 29.5238 138.304 30.2776 138.542C 31.7813 139.018 33.5191 139.5 35.4696 139.929C 39.3458 140.782 44.2463 141.469 49.9202 141.406C 61.8106 141.272 75.8003 137.81 88.9467 128.191L88.9467 128.191L29.8995 47.4854zM84.4521 59.9792C 84.5922 60.1585 84.2148 59.6547 83.8019 58.4664C 83.6439 58.0118 83.5735 57.7196 83.5765 57.732C 83.5804 57.7482 83.6081 57.8659 83.6554 58.1065C 83.6792 58.2277 83.7084 58.3821 83.7422 58.5724C 83.7592 58.6677 83.7773 58.7723 83.7966 58.8865C 83.8063 58.9436 83.8162 59.0031 83.8264 59.0651C 83.8316 59.0961 83.8367 59.1278 83.842 59.1601C 83.8446 59.1762 83.8472 59.1925 83.8499 59.2089C 83.8512 59.2172 83.8532 59.2296 83.8539 59.2337C 83.8559 59.2462 83.8579 59.2588 34.4898 67.1823C -14.8784 75.1059 -14.8764 75.1185 -14.8744 75.1312C -14.8737 75.1355 -14.8716 75.1483 -14.8702 75.1569C -14.8674 75.1741 -14.8646 75.1916 -14.8617 75.2092C -14.856 75.2446 -14.8501 75.2808 -14.8439 75.318C -14.8317 75.3923 -14.8187 75.4702 -14.805 75.5516C -14.7774 75.7143 -14.7468 75.8913 -14.7129 76.082C -14.6451 76.4633 -14.5639 76.9004 -14.4679 77.3892C -14.2761 78.3651 -14.0229 79.5575 -13.6952 80.9317C -13.0444 83.66 -12.0734 87.2164 -10.6567 91.2929C -7.9204 99.1667 -3.01558 110.455 5.65612 121.552L5.65612 121.552L84.4521 59.9792zM82.7576 80.2289C 81.6955 84.1584 79.8208 87.3794 77.8692 89.8522C 76.8968 91.0842 75.8559 92.1968 74.7742 93.2171C 74.2284 93.7319 73.6574 94.2372 73.0596 94.7359C 72.7601 94.9858 72.452 95.2356 72.1348 95.4856C 71.9762 95.6107 71.815 95.736 71.6513 95.8615C 71.5695 95.9243 71.487 95.9872 71.4038 96.0501C 71.3621 96.0816 71.3204 96.1131 71.2784 96.1447C 71.2574 96.1604 71.2364 96.1762 71.2154 96.192C 71.2048 96.1999 71.189 96.2117 71.1837 96.2157C 71.1679 96.2275 71.1521 96.2393 41.2356 56.1768C 11.3191 16.1143 11.3033 16.1262 11.2873 16.1381C 11.282 16.142 11.2661 16.154 11.2554 16.162C 11.234 16.178 11.2126 16.1941 11.191 16.2103C 11.1479 16.2427 11.1045 16.2755 11.0606 16.3087C 10.9728 16.3751 10.8835 16.4431 10.7926 16.5128C 10.6109 16.6522 10.423 16.7982 10.2293 16.9509C 9.84191 17.2562 9.43032 17.5891 8.99764 17.9501C 8.13357 18.671 7.17769 19.5103 6.15738 20.4728C 4.12663 22.3883 1.77819 24.8503 -0.627993 27.899C -5.44724 34.0052 -10.6949 42.7289 -13.7781 54.1358L-13.7781 54.1358L82.7576 80.2289zM30.6781 105.049L31.3351 105.191L52.4501 7.44606L51.7931 7.30414L30.6781 105.049zM1.38123 27.013C -3.76474 34.1266 -7.15381 40.934 -9.36257 46.767C -10.4618 49.6699 -11.2609 52.31 -11.8418 54.6074C -12.1323 55.7561 -12.3685 56.8205 -12.5608 57.7909C -12.6569 58.2762 -12.7421 58.7384 -12.8176 59.1762C -12.8554 59.3952 -12.8907 59.6081 -12.9238 59.8148C -12.9403 59.9182 -12.9563 60.02 -12.9717 60.1203C -12.9794 60.1704 -12.987 60.2202 -12.9945 60.2695C -12.9982 60.2942 -13.0019 60.3188 -13.0055 60.3433C -13.0074 60.3555 -13.0101 60.3738 -13.011 60.3799C -13.0137 60.3982 -13.0164 60.4165 36.446 67.7289C 85.9084 75.0414 85.9057 75.0596 85.903 75.0778C 85.9021 75.0838 85.8994 75.102 85.8976 75.1141C 85.894 75.1383 85.8903 75.1624 85.8867 75.1865C 85.8794 75.2347 85.8721 75.2827 85.8648 75.3304C 85.8501 75.426 85.8352 75.5207 85.8202 75.6147C 85.7901 75.8025 85.7594 75.9873 85.7281 76.1689C 85.6654 76.5321 85.6004 76.8831 85.5332 77.2222C 85.3988 77.9004 85.2558 78.5326 85.1068 79.122C 84.8088 80.3007 84.4853 81.3131 84.157 82.18C 83.4902 83.9409 82.8245 85.0433 82.404 85.6245L82.404 85.6245L1.38123 27.013zM36.446 67.7289C 82.339 87.5741 82.3379 87.5766 82.3368 87.5791C 82.3365 87.5799 82.3354 87.5824 82.3347 87.5841C 82.3333 87.5874 82.3318 87.5907 82.3304 87.5939C 82.3276 87.6005 82.3248 87.607 82.322 87.6135C 82.3164 87.6264 82.3108 87.6391 82.3054 87.6516C 82.2945 87.6766 82.284 87.7008 82.2738 87.7243C 82.2533 87.7711 82.2341 87.8148 82.2162 87.8555C 82.1803 87.9368 82.1494 88.0061 82.1233 88.0642C 82.0712 88.1799 82.0375 88.2525 82.0212 88.2873C 81.9903 88.353 82.0199 88.2873 82.1016 88.1291L82.1016 88.1291L-6.74538 42.2357C -7.46782 43.6343 -8.05427 44.8418 -8.50017 45.7916C -8.72402 46.2684 -8.915 46.6857 -9.07245 47.0357C -9.15126 47.2109 -9.2219 47.3697 -9.28429 47.5112C -9.3155 47.582 -9.34466 47.6485 -9.37178 47.7106C -9.38534 47.7417 -9.39839 47.7716 -9.41093 47.8005C -9.4172 47.8149 -9.42335 47.8291 -9.42936 47.8429C -9.43237 47.8499 -9.43535 47.8567 -9.43829 47.8636C -9.43976 47.8669 -9.44122 47.8703 -9.44268 47.8737C -9.44341 47.8754 -9.4445 47.8779 -9.44486 47.8787C -9.44594 47.8812 -9.44703 47.8837 36.446 67.7289zM81.7096 88.8727C 81.3988 89.4503 80.9804 90.0979 80.4063 90.8247C 79.8682 91.5059 79.0375 92.4547 77.7443 93.6566L77.7443 93.6566L9.6673 20.4069C 5.0918 24.6593 -1.03843 31.6136 -6.35333 41.4921L-6.35333 41.4921L81.7096 88.8727zM80.5503 90.8324C 80.6404 90.7341 80.719 90.6478 80.7334 90.632C 80.7672 90.5949 80.7273 90.6388 80.678 90.6925C 80.5788 90.8006 80.2414 91.1679 79.7847 91.637C 78.7847 92.6644 77.1756 94.2235 75.0156 95.9115L75.0156 95.9115L13.4429 17.1155C 11.0794 18.9624 9.29714 20.6843 8.13044 21.8827C 7.59046 22.4374 7.1714 22.8924 6.98923 23.091C 6.89851 23.1899 6.81682 23.2796 6.80811 23.2892C 6.78003 23.32 6.81543 23.2811 6.86135 23.231L6.86135 23.231L80.5503 90.8324zM79.8773 91.5737C 79.1477 92.3155 78.3168 93.0064 77.2727 93.6503L77.2727 93.6503L24.7782 8.53675C 18.4276 12.4536 13.0235 16.9365 8.5812 21.4533L8.5812 21.4533L79.8773 91.5737zM77.0759 93.7711C 75.6627 94.6337 73.8126 95.3964 71.8369 95.7192L71.8369 95.7192L55.7133 -2.97236C 43.6644 -1.00389 33.4135 3.26516 24.975 8.41598L24.975 8.41598L77.0759 93.7711zM63.7751 46.3734C 68.5738 -3.39576 68.5561 -3.39747 68.5383 -3.39917C 68.5324 -3.39973 68.5146 -3.40143 68.5027 -3.40256C 68.4789 -3.40482 68.455 -3.40707 68.431 -3.40932C 68.3831 -3.41381 68.3347 -3.41826 68.2859 -3.42268C 68.1884 -3.43152 68.0894 -3.44022 67.9888 -3.44876C 67.7875 -3.46583 67.5801 -3.48226 67.3665 -3.49787C 66.9395 -3.5291 66.4878 -3.55707 66.0122 -3.58041C 65.0611 -3.62709 64.0133 -3.65535 62.8749 -3.654C 60.5986 -3.65129 57.9541 -3.53015 54.9953 -3.19943C 49.0541 -2.53535 41.9138 -1.03295 34.0515 1.98463L34.0515 1.98463L69.8831 95.3447C 69.1627 95.6211 67.9264 95.9779 66.1036 96.1817C 65.204 96.2822 64.1723 96.3445 62.994 96.3459C 62.4046 96.3466 61.7771 96.3321 61.1091 96.2993C 60.7751 96.2829 60.4306 96.2619 60.0753 96.236C 59.8977 96.223 59.7174 96.2087 59.5342 96.1932C 59.4426 96.1854 59.3504 96.1773 59.2574 96.1689C 59.2109 96.1647 59.1643 96.1604 59.1174 96.156C 59.094 96.1538 59.0705 96.1516 59.047 96.1494C 59.0353 96.1483 59.0176 96.1466 59.0117 96.146C 58.9941 96.1443 58.9764 96.1426 63.7751 46.3734zM101.89 51.4392L101.941 50.5258L2.09509 44.9766L2.04432 45.8901L101.89 51.4392zM52.018 47.7512C 83.6595 86.4657 83.6442 86.4783 83.6289 86.4908C 83.6238 86.4949 83.6085 86.5074 83.5983 86.5157C 83.5779 86.5324 83.5575 86.5489 83.5371 86.5655C 83.4964 86.5986 83.4557 86.6315 83.4151 86.6642C 83.3339 86.7297 83.2529 86.7946 83.1722 86.8589C 83.0108 86.9874 82.8503 87.1134 82.6906 87.2371C 82.3713 87.4844 82.0545 87.723 81.7396 87.9533C 81.1111 88.4127 80.4828 88.8446 79.8513 89.2497C 78.5997 90.0527 77.2685 90.7938 75.8379 91.4394C 72.9667 92.7353 69.388 93.7757 65.3183 93.8564L65.3183 93.8564L63.3377 -6.12403C 51.5238 -5.89 41.7901 -2.90707 34.7 0.292992C 31.16 1.89073 28.2033 3.5743 25.8536 5.08172C 24.6731 5.83908 23.6276 6.56369 22.7192 7.22785C 22.2643 7.56042 21.8418 7.87932 21.4518 8.18136C 21.2568 8.33244 21.0697 8.47949 20.8905 8.6221C 20.801 8.69342 20.7133 8.76365 20.6277 8.83275C 20.5848 8.8673 20.5425 8.90157 20.5006 8.93556C 20.4797 8.95255 20.4589 8.96947 20.4382 8.98632C 20.4279 8.99474 20.4125 9.00733 20.4073 9.01154C 20.3919 9.0241 20.3765 9.03666 52.018 47.7512zM64.328 43.8662C 44.7042 89.8543 44.6925 89.8493 44.6809 89.8443C 44.677 89.8427 44.6654 89.8377 44.6578 89.8344C 44.6424 89.8279 44.6273 89.8214 44.6122 89.8149C 44.5822 89.802 44.5527 89.7894 44.5239 89.7769C 44.4662 89.752 44.4108 89.728 44.3577 89.7048C 44.2516 89.6585 44.1545 89.6156 44.0662 89.5761C 43.8896 89.4972 43.7469 89.4316 43.6351 89.3792C 43.413 89.2751 43.3056 89.2198 43.2908 89.2121C 43.2794 89.2062 43.546 89.3451 43.9489 89.6083C 45.0021 90.2963 45.3997 90.7843 45.2596 90.605L45.2596 90.605L124.056 29.0323C 115.384 17.9349 105.617 10.4466 98.6379 5.88789C 95.0249 3.52774 91.8087 1.72567 89.3187 0.434658C 88.0645 -0.215579 86.9687 -0.749535 86.0681 -1.17156C 85.617 -1.38296 85.2125 -1.5674 84.8589 -1.72535C 84.6821 -1.80437 84.5177 -1.87687 84.3664 -1.94292C 84.2908 -1.97595 84.2184 -2.00738 84.1492 -2.03721C 84.1147 -2.05212 84.0809 -2.06664 84.048 -2.08077C 84.0316 -2.08783 84.0153 -2.09479 83.9993 -2.10166C 83.9913 -2.10509 83.9794 -2.11017 83.9754 -2.11188C 83.9636 -2.11693 83.9518 -2.12195 64.328 43.8662zM84.6576 59.8186C 35.0998 66.4536 35.0962 66.4267 35.0926 66.3997C 35.0914 66.3908 35.0878 66.3638 35.0854 66.3459C 35.0807 66.31 35.076 66.2741 35.0714 66.2382C 35.0621 66.1665 35.053 66.0948 35.044 66.0231C 35.0261 65.8798 35.0089 65.7366 34.9923 65.5935C 34.9592 65.3074 34.9286 65.0214 34.9009 64.7354C 34.8453 64.1638 34.8004 63.5896 34.7672 63.0124C 34.701 61.8621 34.6797 60.6761 34.7182 59.4571C 34.7943 57.0446 35.1103 54.3212 35.8773 51.4131C 37.5458 45.0869 41.0978 39.0064 46.2911 34.6766L46.2911 34.6766L110.328 111.484C 122.829 101.061 129.555 88.3498 132.571 76.916C 134.011 71.4541 134.544 66.5578 134.668 62.6107C 134.731 60.6245 134.692 58.8308 134.602 57.2647C 134.557 56.4796 134.498 55.7454 134.432 55.0658C 134.399 54.7258 134.364 54.3988 134.328 54.0852C 134.31 53.9283 134.291 53.7748 134.272 53.6245C 134.263 53.5494 134.254 53.4751 134.244 53.4016C 134.239 53.3649 134.235 53.3283 134.23 53.292C 134.227 53.2738 134.224 53.2467 134.223 53.2376C 134.219 53.2106 134.215 53.1836 84.6576 59.8186z" stroke="none" fill="#0C090A" fill-rule="nonzero" />
    <path transform="matrix(0.7879591 -0.61572754 0.61572754 0.7879591 -36.355648 24.654129)"  d="M17.6177 65.1121L78.579 65.1121L78.579 115.3155L17.6177 115.3155z" stroke="none" fill="#0C090A" fill-rule="nonzero" />
    <path d="M169.979 163.452L139.563 187.22C 136.998 189.224 136.542 192.944 138.564 195.532L138.564 195.532L162.544 226.221C 164.566 228.808 168.287 229.265 170.852 227.26L170.852 227.26L196.592 207.146L192.108 203.887L197.124 204.318L201.857 204.714L210.107 205.213L178.287 164.491C 176.264 161.904 172.544 161.447 169.979 163.452zM184.383 199.943C 184.383 199.943 182.803 199.605 181.448 199.275C 183.765 196.112 183.445 193.363 183.445 193.363C 182.994 194.704 182.445 195.827 181.882 196.742C 181.119 198.106 180.278 199.275 179.353 200.29C 177.493 202.402 175.407 203.849 173.456 204.862C 171.967 205.623 170.571 206.129 169.357 206.493C 168.675 206.697 167.913 206.89 167.097 207.016C 166.993 207.024 166.907 207.054 166.804 207.062C 166.741 207.075 166.7 207.07 166.66 207.065C 166.074 207.157 165.723 207.176 165.723 207.176C 165.723 207.176 168.231 208.14 171.788 206.75C 171.781 208.145 171.739 209.823 171.739 209.823C 166.599 213.584 162.12 211.782 162.12 211.782C 156.409 204.473 155.048 195.995 155.048 195.995C 156.401 190.989 159.564 188.627 159.564 188.627L159.564 188.627L160.004 188.722C 156.84 193.095 156.357 196.361 156.357 196.361C 156.357 196.361 156.644 195.698 157.182 194.656C 158.777 191.691 160.476 189.888 161.217 189.199C 161.336 189.07 161.432 188.959 161.568 188.853C 162.811 187.589 164.341 186.32 166.118 185.224C 168.469 183.789 171.281 182.615 174.653 182.064C 174.653 182.064 171.529 181.763 166.748 183.598L166.748 183.598L166.782 182.987C 166.782 182.987 169.839 180.489 175.023 180.386C 175.023 180.386 182.921 183.756 188.632 191.065C 188.632 191.065 189.275 195.864 184.383 199.943z" stroke="none" fill="#FFFFFF" fill-rule="nonzero" />
    <path d="M169.979 163.452L139.563 187.22C 136.998 189.224 136.542 192.944 138.564 195.532L138.564 195.532L162.544 226.221C 164.566 228.808 168.287 229.265 170.852 227.26L170.852 227.26L196.592 207.146L192.108 203.887L197.124 204.318L201.857 204.714L210.107 205.213L178.287 164.491C 176.264 161.904 172.544 161.447 169.979 163.452zM184.383 199.943C 184.383 199.943 182.803 199.605 181.448 199.275C 183.765 196.112 183.445 193.363 183.445 193.363C 182.994 194.704 182.445 195.827 181.882 196.742C 181.119 198.106 180.278 199.275 179.353 200.29C 177.493 202.402 175.407 203.849 173.456 204.862C 171.967 205.623 170.571 206.129 169.357 206.493C 168.675 206.697 167.913 206.89 167.097 207.016C 166.993 207.024 166.907 207.054 166.804 207.062C 166.741 207.075 166.7 207.07 166.66 207.065C 166.074 207.157 165.723 207.176 165.723 207.176C 165.723 207.176 168.231 208.14 171.788 206.75C 171.781 208.145 171.739 209.823 171.739 209.823C 166.599 213.584 162.12 211.782 162.12 211.782C 156.409 204.473 155.048 195.995 155.048 195.995C 156.401 190.989 159.564 188.627 159.564 188.627L159.564 188.627L160.004 188.722C 156.84 193.095 156.357 196.361 156.357 196.361C 156.357 196.361 156.644 195.698 157.182 194.656C 158.777 191.691 160.476 189.888 161.217 189.199C 161.336 189.07 161.432 188.959 161.568 188.853C 162.811 187.589 164.341 186.32 166.118 185.224C 168.469 183.789 171.281 182.615 174.653 182.064C 174.653 182.064 171.529 181.763 166.748 183.598L166.748 183.598L166.782 182.987C 166.782 182.987 169.839 180.489 175.023 180.386C 175.023 180.386 182.921 183.756 188.632 191.065C 188.632 191.065 189.275 195.864 184.383 199.943z" stroke="none" fill="#0C090A" fill-rule="nonzero" />
    <path clip-path="url(#2)"  d="M196.592 207.146L227.378 246.544L279.648 205.7L225.988 166.7L196.592 207.146zM192.108 203.887L196.386 154.07L17.3626 138.696L162.712 244.333L192.108 203.887zM197.124 204.318L192.846 254.135L192.9 254.139L192.955 254.144L197.124 204.318zM201.857 204.714L197.688 254.54L198.262 254.588L198.837 254.623L201.857 204.714zM210.107 205.213L207.087 255.122L317.797 261.821L249.505 174.427L210.107 205.213zM181.448 199.275L141.112 169.728L96.8768 230.116L169.602 247.851L181.448 199.275zM183.445 193.363L233.111 187.589L136.065 177.392L183.445 193.363zM181.882 196.742L139.304 170.529L138.753 171.423L138.241 172.34L181.882 196.742zM179.353 200.29L142.392 166.617L142.11 166.927L141.833 167.241L179.353 200.29zM173.456 204.862L196.219 249.379L196.355 249.31L196.49 249.24L173.456 204.862zM169.357 206.493L183.67 254.401L183.692 254.394L183.714 254.387L169.357 206.493zM167.097 207.016L170.858 256.874L172.792 256.728L174.708 256.433L167.097 207.016zM166.804 207.062L163.042 157.204L159.938 157.438L156.887 158.056L166.804 207.062zM166.66 207.065L172.749 157.437L165.798 156.584L158.881 157.674L166.66 207.065zM165.723 207.176L163.095 157.245L147.779 253.845L165.723 207.176zM171.788 206.75L221.787 206.999L222.154 133.383L153.587 160.181L171.788 206.75zM171.739 209.823L201.263 250.176L221.113 235.652L221.724 211.064L171.739 209.823zM162.12 211.782L122.722 242.569L130.996 253.156L143.462 258.171L162.12 211.782zM155.048 195.995L106.78 182.948L103.978 193.315L105.68 203.918L155.048 195.995zM159.564 188.627L170.121 139.754L147.88 134.95L129.647 148.565L159.564 188.627zM160.004 188.722L200.515 218.028L245.378 156.011L170.561 139.849L160.004 188.722zM156.357 196.361L106.895 189.048L202.25 216.206L156.357 196.361zM157.182 194.656L113.151 170.966L112.952 171.336L112.759 171.709L157.182 194.656zM161.217 189.199L195.256 225.824L196.715 224.468L198.062 223L161.217 189.199zM161.568 188.853L192.354 228.251L194.927 226.24L197.216 223.913L161.568 188.853zM166.118 185.224L140.067 142.547L139.969 142.607L139.87 142.667L166.118 185.224zM174.653 182.064L182.715 231.41L179.451 132.295L174.653 182.064zM166.748 183.598L116.825 180.824L112.538 257.96L184.664 230.278L166.748 183.598zM166.782 182.987L135.141 144.272L118.082 158.214L116.859 180.212L166.782 182.987zM175.023 180.386L194.647 134.398L184.769 130.183L174.033 130.396L175.023 180.386zM188.632 191.065L238.19 184.43L236.389 170.975L228.03 160.279L188.632 191.065zM139.193 124.054L108.777 147.822L170.349 226.618L200.766 202.85L139.193 124.054zM108.777 147.822C 84.328 166.926 80.2383 202.097 99.1656 226.318L99.1656 226.318L177.962 164.745C 192.845 183.792 189.668 211.522 170.349 226.618L170.349 226.618L108.777 147.822zM99.1656 226.318L123.146 257.007L201.942 195.434L177.962 164.745L99.1656 226.318zM123.146 257.007C 142.074 281.229 177.189 285.763 201.638 266.658L201.638 266.658L140.065 187.862C 159.384 172.766 187.059 176.388 201.942 195.434L201.942 195.434L123.146 257.007zM201.638 266.658L227.378 246.544L165.806 167.748L140.065 187.862L201.638 266.658zM225.988 166.7L221.503 163.441L162.712 244.333L167.196 247.593L225.988 166.7zM187.829 253.704L192.846 254.135L201.402 154.501L196.386 154.07L187.829 253.704zM192.955 254.144L197.688 254.54L206.026 154.888L201.293 154.492L192.955 254.144zM198.837 254.623L207.087 255.122L213.127 155.305L204.877 154.805L198.837 254.623zM249.505 174.427L217.685 133.705L138.889 195.278L170.709 236L249.505 174.427zM217.685 133.705C 198.757 109.484 163.642 104.949 139.193 124.054L139.193 124.054L200.766 202.85C 181.447 217.946 153.772 214.324 138.889 195.278L138.889 195.278L217.685 133.705zM184.383 199.943C 194.828 151.046 194.829 151.046 194.83 151.047C 194.83 151.047 194.83 151.047 194.831 151.047C 194.832 151.047 194.832 151.047 194.833 151.047C 194.834 151.048 194.836 151.048 194.837 151.048C 194.839 151.049 194.841 151.049 194.843 151.049C 194.847 151.05 194.849 151.051 194.85 151.051C 194.851 151.051 194.848 151.05 194.84 151.049C 194.823 151.045 194.788 151.037 194.737 151.026C 194.635 151.004 194.478 150.97 194.292 150.929C 193.873 150.835 193.505 150.75 193.294 150.699L193.294 150.699L169.602 247.851C 170.745 248.13 171.845 248.379 172.554 248.537C 172.933 248.622 173.256 248.692 173.492 248.744C 173.611 248.769 173.71 248.791 173.785 248.807C 173.822 248.815 173.854 248.822 173.879 248.827C 173.892 248.83 173.903 248.832 173.913 248.835C 173.918 248.836 173.922 248.836 173.926 248.837C 173.928 248.838 173.93 248.838 173.932 248.839C 173.933 248.839 173.933 248.839 173.934 248.839C 173.935 248.839 173.935 248.839 173.935 248.839C 173.936 248.839 173.937 248.84 184.383 199.943zM221.784 228.822C 227.817 220.586 230.965 212.062 232.402 204.646C 233.107 201.008 233.391 197.701 233.449 194.86C 233.478 193.436 233.45 192.112 233.388 190.902C 233.356 190.297 233.316 189.717 233.269 189.165C 233.246 188.889 233.221 188.62 233.194 188.357C 233.181 188.226 233.167 188.096 233.154 187.968C 233.147 187.904 233.14 187.84 233.132 187.777C 233.129 187.746 233.125 187.714 233.122 187.683C 233.12 187.667 233.117 187.644 233.116 187.636C 233.114 187.612 233.111 187.589 183.445 193.363C 133.78 199.138 133.777 199.114 133.775 199.091C 133.774 199.083 133.771 199.06 133.769 199.044C 133.766 199.013 133.762 198.982 133.759 198.951C 133.752 198.888 133.745 198.825 133.738 198.763C 133.724 198.637 133.711 198.512 133.698 198.386C 133.673 198.134 133.649 197.88 133.628 197.625C 133.584 197.115 133.549 196.598 133.522 196.073C 133.467 195.026 133.447 193.942 133.47 192.824C 133.515 190.597 133.734 188.176 134.229 185.62C 135.247 180.369 137.396 174.801 141.112 169.728L141.112 169.728L221.784 228.822zM136.065 177.392C 136.825 175.137 137.89 172.825 139.304 170.529L139.304 170.529L224.459 222.956C 227.001 218.828 229.162 214.27 230.826 209.335L230.826 209.335L136.065 177.392zM138.241 172.34C 139.208 170.61 140.563 168.624 142.392 166.617L142.392 166.617L216.314 233.964C 219.993 229.926 223.03 225.602 225.522 221.145L225.522 221.145L138.241 172.34zM141.833 167.241C 144.816 163.855 148.001 161.74 150.422 160.483L150.422 160.483L196.49 249.24C 202.813 245.958 210.171 240.948 216.873 233.34L216.873 233.34L141.833 167.241zM150.693 160.344C 152.516 159.412 154.067 158.878 155 158.599L155 158.599L183.714 254.387C 187.076 253.38 191.418 251.834 196.219 249.379L196.219 249.379L150.693 160.344zM155.044 158.585C 155.778 158.366 157.352 157.927 159.485 157.599L159.485 157.599L174.708 256.433C 178.473 255.853 181.572 255.027 183.67 254.401L183.67 254.401L155.044 158.585zM163.335 157.158C 161.391 157.304 159.795 157.538 158.716 157.72C 158.183 157.81 157.75 157.892 157.476 157.945C 157.337 157.972 157.224 157.994 157.153 158.008C 157.117 158.016 157.087 158.022 157.068 158.025C 157.05 158.029 157.034 158.032 157.033 158.032C 157.019 158.035 157.064 158.026 157.118 158.015C 157.177 158.004 157.278 157.983 157.405 157.959C 157.655 157.911 158.064 157.833 158.573 157.747C 159.603 157.574 161.149 157.347 163.042 157.204L163.042 157.204L170.565 256.92C 172.51 256.774 174.105 256.54 175.184 256.358C 175.717 256.268 176.151 256.187 176.425 256.134C 176.563 256.107 176.676 256.084 176.747 256.07C 176.784 256.063 176.813 256.057 176.833 256.053C 176.851 256.049 176.866 256.046 176.867 256.046C 176.882 256.043 176.836 256.052 176.783 256.063C 176.724 256.075 176.622 256.095 176.496 256.119C 176.246 256.168 175.836 256.245 175.327 256.331C 174.297 256.504 172.751 256.732 170.858 256.874L170.858 256.874L163.335 157.158zM156.887 158.056C 160.315 157.362 163.805 157.034 167.295 157.074C 170.41 157.109 172.972 157.465 172.749 157.437L172.749 157.437L160.57 256.693C 162.059 256.875 168.581 257.716 176.721 256.069L176.721 256.069L156.887 158.056zM158.881 157.674C 159.593 157.562 160.292 157.474 160.98 157.405C 161.326 157.37 161.674 157.34 162.025 157.313C 162.201 157.3 162.377 157.288 162.555 157.276C 162.645 157.271 162.734 157.265 162.824 157.26C 162.869 157.257 162.914 157.255 162.959 157.252C 162.982 157.251 163.004 157.25 163.027 157.249C 163.038 157.248 163.049 157.247 163.061 157.247C 163.066 157.246 163.072 157.246 163.078 157.246C 163.081 157.246 163.085 157.245 163.086 157.245C 163.09 157.245 163.095 157.245 165.723 207.176C 168.351 257.107 168.355 257.106 168.359 257.106C 168.36 257.106 168.365 257.106 168.368 257.106C 168.373 257.106 168.379 257.105 168.385 257.105C 168.396 257.104 168.408 257.104 168.419 257.103C 168.442 257.102 168.465 257.101 168.488 257.099C 168.535 257.097 168.582 257.094 168.63 257.091C 168.725 257.086 168.823 257.08 168.922 257.073C 169.122 257.061 169.331 257.046 169.548 257.03C 169.983 256.997 170.456 256.956 170.963 256.905C 171.973 256.804 173.141 256.661 174.439 256.456L174.439 256.456L158.881 157.674zM165.723 207.176C 147.779 253.845 147.8 253.853 147.822 253.862C 147.83 253.865 147.852 253.873 147.866 253.879C 147.896 253.89 147.925 253.901 147.954 253.912C 148.013 253.935 148.073 253.957 148.133 253.98C 148.252 254.025 148.374 254.07 148.497 254.115C 148.743 254.205 148.996 254.296 149.255 254.387C 149.774 254.568 150.32 254.75 150.893 254.929C 152.039 255.288 153.301 255.641 154.672 255.965C 157.407 256.611 160.637 257.157 164.285 257.386C 171.715 257.853 180.624 256.98 189.989 253.32L189.989 253.32L153.587 160.181C 159.396 157.911 165.271 157.25 170.558 157.583C 173.134 157.745 175.515 158.136 177.668 158.645C 178.749 158.9 179.787 159.189 180.781 159.5C 181.279 159.656 181.768 159.818 182.248 159.986C 182.489 160.07 182.727 160.155 182.963 160.242C 183.081 160.286 183.199 160.329 183.316 160.373C 183.375 160.395 183.433 160.418 183.492 160.44C 183.521 160.451 183.55 160.462 183.579 160.473C 183.594 160.479 183.616 160.487 183.623 160.49C 183.645 160.498 183.667 160.507 165.723 207.176zM121.789 206.501C 121.787 206.859 121.78 207.362 121.77 207.859C 121.766 208.089 121.762 208.284 121.759 208.418C 121.757 208.484 121.756 208.533 121.755 208.562C 121.755 208.576 121.755 208.585 121.755 208.589C 121.755 208.59 121.755 208.59 121.755 208.589C 121.755 208.589 121.755 208.588 121.755 208.586C 121.755 208.586 121.755 208.585 121.755 208.584C 121.755 208.583 121.755 208.583 121.755 208.582C 121.755 208.582 121.755 208.582 121.755 208.582C 121.755 208.581 121.755 208.581 171.739 209.823C 221.724 211.064 221.724 211.064 221.724 211.064C 221.724 211.063 221.724 211.063 221.724 211.063C 221.724 211.062 221.724 211.061 221.724 211.061C 221.724 211.06 221.724 211.058 221.724 211.057C 221.724 211.054 221.724 211.05 221.724 211.046C 221.725 211.039 221.725 211.029 221.725 211.018C 221.726 210.997 221.726 210.968 221.727 210.934C 221.729 210.865 221.731 210.773 221.733 210.66C 221.738 210.435 221.745 210.124 221.752 209.76C 221.765 209.07 221.782 208.036 221.787 206.999L221.787 206.999L121.789 206.501zM142.216 169.47C 148.952 164.541 156.945 162.3 164.441 162.216C 167.917 162.177 171.021 162.596 173.65 163.174C 174.977 163.466 176.228 163.809 177.402 164.18C 177.99 164.366 178.565 164.562 179.126 164.764C 179.407 164.865 179.685 164.968 179.96 165.073C 180.097 165.126 180.234 165.179 180.371 165.232C 180.439 165.259 180.507 165.286 180.575 165.313C 180.609 165.326 180.643 165.34 180.677 165.353C 180.694 165.36 180.719 165.37 180.728 165.374C 180.753 165.384 180.778 165.394 162.12 211.782C 143.462 258.171 143.487 258.181 143.513 258.191C 143.521 258.194 143.547 258.205 143.564 258.211C 143.598 258.225 143.632 258.239 143.667 258.252C 143.736 258.28 143.805 258.307 143.876 258.335C 144.017 258.39 144.16 258.446 144.306 258.501C 144.599 258.613 144.903 258.726 145.217 258.839C 145.847 259.066 146.523 259.296 147.244 259.524C 148.682 259.979 150.323 260.434 152.15 260.836C 155.78 261.635 160.324 262.269 165.563 262.21C 176.583 262.086 189.386 258.865 201.263 250.176L201.263 250.176L142.216 169.47zM201.518 180.996C 203.068 182.98 203.564 184.425 203.671 184.734C 203.774 185.029 203.876 185.373 203.986 185.834C 204.043 186.075 204.108 186.37 204.179 186.732C 204.215 186.914 204.253 187.115 204.292 187.337C 204.312 187.448 204.332 187.564 204.353 187.687C 204.363 187.748 204.374 187.81 204.384 187.874C 204.389 187.906 204.395 187.939 204.4 187.972C 204.403 187.988 204.405 188.005 204.408 188.021C 204.409 188.029 204.411 188.042 204.412 188.046C 204.414 188.059 204.416 188.071 155.048 195.995C 105.68 203.918 105.682 203.931 105.684 203.944C 105.684 203.948 105.686 203.961 105.688 203.969C 105.691 203.986 105.693 204.003 105.696 204.021C 105.702 204.056 105.708 204.091 105.714 204.127C 105.726 204.2 105.738 204.274 105.751 204.352C 105.777 204.507 105.806 204.672 105.837 204.847C 105.899 205.196 105.972 205.587 106.056 206.015C 106.224 206.869 106.44 207.884 106.714 209.034C 107.258 211.313 108.057 214.233 109.213 217.561C 111.429 223.937 115.461 233.276 122.722 242.569L122.722 242.569L201.518 180.996zM203.316 209.041C 201.92 214.207 199.487 218.337 197.062 221.41C 195.852 222.943 194.595 224.278 193.357 225.447C 192.733 226.035 192.098 226.596 191.456 227.131C 191.135 227.4 190.81 227.663 190.481 227.922C 190.316 228.052 190.151 228.181 189.984 228.308C 189.901 228.372 189.817 228.436 189.733 228.5C 189.691 228.531 189.649 228.563 189.607 228.595C 189.586 228.611 189.565 228.626 189.544 228.642C 189.533 228.65 189.517 228.662 189.512 228.666C 189.496 228.678 189.48 228.69 159.564 188.627C 129.647 148.565 129.631 148.576 129.616 148.588C 129.61 148.592 129.594 148.604 129.584 148.612C 129.562 148.628 129.541 148.644 129.52 148.66C 129.477 148.693 129.433 148.725 129.39 148.758C 129.303 148.824 129.215 148.891 129.125 148.96C 128.947 149.097 128.763 149.239 128.575 149.388C 128.199 149.684 127.805 150.003 127.394 150.346C 126.574 151.03 125.682 151.814 124.74 152.702C 122.866 154.47 120.734 156.709 118.565 159.457C 114.219 164.963 109.529 172.777 106.78 182.948L106.78 182.948L203.316 209.041zM149.006 237.5L149.446 237.595L170.561 139.849L170.121 139.754L149.006 237.5zM119.492 159.416C 115.127 165.45 112.188 171.315 110.234 176.475C 109.263 179.041 108.542 181.412 108.008 183.525C 107.741 184.581 107.52 185.574 107.337 186.496C 107.246 186.957 107.164 187.401 107.091 187.827C 107.054 188.039 107.02 188.248 106.987 188.451C 106.971 188.553 106.955 188.654 106.94 188.753C 106.932 188.803 106.924 188.852 106.917 188.902C 106.913 188.926 106.91 188.951 106.906 188.975C 106.904 188.987 106.901 189.006 106.9 189.012C 106.898 189.03 106.895 189.048 156.357 196.361C 205.82 203.673 205.817 203.691 205.814 203.71C 205.814 203.716 205.811 203.734 205.809 203.746C 205.805 203.77 205.802 203.794 205.798 203.819C 205.791 203.867 205.783 203.915 205.776 203.963C 205.761 204.06 205.746 204.156 205.731 204.251C 205.7 204.442 205.669 204.631 205.636 204.819C 205.572 205.195 205.503 205.564 205.431 205.927C 205.287 206.654 205.129 207.358 204.957 208.039C 204.612 209.403 204.21 210.684 203.754 211.888C 202.832 214.322 201.717 216.367 200.515 218.028L200.515 218.028L119.492 159.416zM156.357 196.361C 202.25 216.206 202.249 216.208 202.248 216.211C 202.248 216.212 202.247 216.214 202.246 216.216C 202.245 216.219 202.243 216.222 202.242 216.226C 202.239 216.232 202.236 216.239 202.233 216.245C 202.228 216.258 202.222 216.271 202.216 216.284C 202.205 216.31 202.194 216.335 202.184 216.36C 202.162 216.409 202.141 216.457 202.121 216.502C 202.081 216.594 202.043 216.678 202.009 216.755C 201.939 216.909 201.879 217.039 201.829 217.147C 201.729 217.359 201.657 217.503 201.606 217.603L201.606 217.603L112.759 171.709C 112.169 172.85 111.685 173.848 111.307 174.651C 111.118 175.055 110.953 175.415 110.813 175.727C 110.743 175.882 110.679 176.026 110.621 176.158C 110.592 176.224 110.564 176.287 110.538 176.346C 110.525 176.376 110.512 176.405 110.5 176.433C 110.494 176.447 110.488 176.461 110.482 176.475C 110.479 176.482 110.476 176.489 110.473 176.495C 110.472 176.499 110.47 176.502 110.469 176.505C 110.468 176.507 110.467 176.51 110.467 176.51C 110.466 176.513 110.464 176.515 156.357 196.361zM201.214 218.346C 199.877 220.831 197.983 223.29 195.256 225.824L195.256 225.824L127.179 152.575C 122.969 156.487 117.678 162.551 113.151 170.966L113.151 170.966L201.214 218.346zM198.062 223C 198.145 222.91 198.216 222.831 198.224 222.823C 198.25 222.794 198.204 222.845 198.147 222.906C 198.035 223.03 197.684 223.411 197.213 223.895C 196.186 224.95 194.548 226.536 192.354 228.251L192.354 228.251L130.782 149.455C 128.452 151.275 126.698 152.97 125.559 154.14C 125.033 154.681 124.627 155.121 124.459 155.305C 124.375 155.396 124.3 155.479 124.298 155.48C 124.277 155.504 124.32 155.457 124.373 155.399L124.373 155.399L198.062 223zM197.216 223.913C 195.873 225.278 194.286 226.596 192.365 227.781L192.365 227.781L139.87 142.667C 134.397 146.043 129.749 149.899 125.92 153.792L125.92 153.792L197.216 223.913zM192.168 227.902C 189.594 229.473 186.355 230.815 182.715 231.41L182.715 231.41L166.591 132.719C 156.207 134.415 147.344 138.105 140.067 142.547L140.067 142.547L192.168 227.902zM174.653 182.064C 179.451 132.295 179.434 132.293 179.416 132.292C 179.41 132.291 179.392 132.289 179.38 132.288C 179.357 132.286 179.333 132.284 179.309 132.282C 179.261 132.277 179.213 132.273 179.165 132.268C 179.068 132.26 178.97 132.251 178.871 132.243C 178.673 132.226 178.47 132.21 178.262 132.194C 177.847 132.164 177.413 132.137 176.961 132.115C 176.056 132.071 175.078 132.045 174.03 132.046C 171.936 132.048 169.558 132.16 166.939 132.453C 161.679 133.041 155.514 134.354 148.832 136.918L148.832 136.918L184.664 230.278C 182.763 231.008 180.551 231.554 178.047 231.834C 176.808 231.972 175.509 232.044 174.15 232.046C 173.469 232.047 172.772 232.03 172.058 231.995C 171.7 231.977 171.338 231.955 170.971 231.928C 170.787 231.915 170.602 231.9 170.416 231.885C 170.323 231.877 170.23 231.868 170.136 231.86C 170.089 231.856 170.042 231.851 169.995 231.847C 169.972 231.845 169.948 231.843 169.925 231.84C 169.913 231.839 169.895 231.837 169.889 231.837C 169.872 231.835 169.854 231.834 174.653 182.064zM216.671 186.373L216.705 185.761L116.859 180.212L116.825 180.824L216.671 186.373zM166.782 182.987C 198.424 221.701 198.408 221.714 198.393 221.726C 198.388 221.73 198.372 221.743 198.362 221.751C 198.342 221.768 198.321 221.785 198.301 221.801C 198.26 221.834 198.219 221.868 198.178 221.901C 198.096 221.967 198.014 222.032 197.932 222.098C 197.767 222.229 197.603 222.358 197.437 222.486C 197.106 222.743 196.772 222.995 196.434 223.242C 195.759 223.735 195.062 224.215 194.339 224.679C 192.906 225.598 191.307 226.495 189.527 227.298C 185.959 228.909 181.363 230.27 176.013 230.376L176.013 230.376L174.033 130.396C 163.499 130.604 154.782 133.266 148.389 136.152C 145.198 137.592 142.51 139.12 140.342 140.511C 139.252 141.21 138.275 141.886 137.413 142.516C 136.982 142.832 136.577 143.138 136.198 143.431C 136.009 143.577 135.826 143.721 135.65 143.861C 135.562 143.931 135.476 144.001 135.391 144.069C 135.348 144.103 135.306 144.137 135.264 144.171C 135.244 144.188 135.223 144.205 135.202 144.222C 135.192 144.23 135.176 144.243 135.171 144.247C 135.156 144.26 135.141 144.272 166.782 182.987zM175.023 180.386C 155.399 226.374 155.387 226.369 155.376 226.364C 155.372 226.362 155.36 226.357 155.352 226.354C 155.337 226.347 155.322 226.341 155.306 226.334C 155.276 226.321 155.246 226.308 155.216 226.295C 155.156 226.27 155.098 226.244 155.041 226.22C 154.928 226.17 154.82 226.122 154.717 226.076C 154.511 225.984 154.325 225.899 154.157 225.82C 153.823 225.664 153.552 225.529 153.332 225.415C 152.911 225.197 152.602 225.015 152.341 224.845C 152.067 224.666 150.785 223.835 149.234 221.851L149.234 221.851L228.03 160.279C 220.769 150.986 212.682 144.816 207.03 141.124C 204.081 139.198 201.441 137.717 199.36 136.638C 198.311 136.094 197.378 135.639 196.59 135.27C 196.195 135.084 195.834 134.92 195.509 134.775C 195.347 134.702 195.194 134.635 195.05 134.572C 194.978 134.541 194.909 134.51 194.841 134.481C 194.808 134.467 194.775 134.453 194.742 134.439C 194.726 134.432 194.71 134.425 194.694 134.418C 194.686 134.415 194.674 134.41 194.67 134.408C 194.658 134.403 194.647 134.398 175.023 180.386zM188.632 191.065C 139.075 197.7 139.071 197.673 139.067 197.646C 139.066 197.637 139.063 197.61 139.06 197.592C 139.055 197.556 139.051 197.52 139.046 197.484C 139.037 197.412 139.028 197.34 139.019 197.268C 139.001 197.123 138.983 196.979 138.966 196.833C 138.933 196.543 138.901 196.25 138.873 195.955C 138.815 195.365 138.768 194.765 138.733 194.153C 138.663 192.934 138.639 191.648 138.681 190.302C 138.765 187.636 139.117 184.553 139.995 181.223C 141.887 174.053 145.963 166.876 152.364 161.539L152.364 161.539L216.401 238.347C 227.694 228.931 233.896 217.316 236.689 206.726C 238.018 201.686 238.515 197.149 238.631 193.456C 238.69 191.596 238.654 189.903 238.568 188.405C 238.525 187.655 238.468 186.947 238.404 186.285C 238.372 185.954 238.338 185.634 238.302 185.325C 238.284 185.17 238.266 185.018 238.247 184.869C 238.238 184.795 238.228 184.721 238.219 184.648C 238.214 184.611 238.209 184.575 238.205 184.538C 238.202 184.52 238.199 184.493 238.197 184.484C 238.194 184.457 238.19 184.43 188.632 191.065z" stroke="none" fill="#0C090A" fill-rule="nonzero" />
    <path transform="matrix(0.7879591 -0.61572754 0.61572754 0.7879591 -89.344604 129.77774)"  d="M143.753 194.609L184.56311 194.609L184.56311 228.21729L143.753 228.21729z" stroke="none" fill="#0C090A" fill-rule="nonzero" />
    <path d="M63.6596 195.002L63.0253 194.986C 63.2395 194.992 63.451 194.997 63.6596 195.002z" stroke="#0C090A" stroke-width="50" fill="#0C090A" fill-rule="nonzero" />
    <path transform="matrix(0.7879591 -0.61572754 0.61572754 0.7879591 -105.814285 59.634872)"  d="M33.6772 183.45L64.0556 183.45L64.0556 208.4675L33.6772 208.4675z" stroke="none" fill="#0C090A" fill-rule="nonzero" />
    <path d="M156.612 39.0362L155.978 39.0204C 156.192 39.0258 156.404 39.031 156.612 39.0362z" stroke="#0C090A" stroke-width="50" fill="#0C090A" fill-rule="nonzero" />
    <path transform="matrix(0.7879591 -0.61572754 0.61572754 0.7879591 9.928139 83.79728)"  d="M126.63 27.4839L157.00839 27.4839L157.00839 52.5014L126.63 52.5014z" stroke="none" fill="#0C090A" fill-rule="nonzero" />
    <path d="M93.0368 107.332L143.848 165.072" stroke="#0C090A" stroke-width="6" stroke-linecap="square" stroke-dasharray="13,13" fill="none" />
    <path d="M72.4039 206.158L100.757 240.48" stroke="#0C090A" stroke-width="5" stroke-linecap="square" stroke-dasharray="9,9" fill="none" />
    <path d="M166.187 58.4304L194.54 92.7525" stroke="#0C090A" stroke-width="5" stroke-linecap="square" stroke-dasharray="9,9" fill="none" />
</g>
</svg>