<?xml version="1.0" standalone="no"?>
<!DOCTYPE svg PUBLIC "-//W3C//DTD SVG 20010904//EN"
 "http://www.w3.org/TR/2001/REC-SVG-20010904/DTD/svg10.dtd">
<svg version="1.0" xmlns="http://www.w3.org/2000/svg"
 width="1224.000000pt" height="659.000000pt" viewBox="0 0 1224.000000 659.000000"
 preserveAspectRatio="xMidYMid meet">

<g transform="translate(0.000000,659.000000) scale(0.100000,-0.100000)"
fill="#000000" stroke="none">
<path d="M6485 6129 c-203 -132 -370 -246 -370 -253 0 -14 471 -516 483 -516
4 0 104 63 222 140 118 77 217 135 219 129 2 -6 -2 -168 -8 -361 -7 -193 -10
-353 -7 -356 17 -16 21 39 29 361 5 194 10 361 13 372 3 13 56 53 145 110 77
49 142 92 144 95 2 3 -59 73 -136 155 -134 144 -139 151 -139 192 0 24 -4 43
-10 43 -5 0 -10 -15 -10 -32 -1 -33 -2 -32 -93 65 -51 54 -96 97 -102 97 -5 0
-176 -109 -380 -241z"/>
<path d="M3965 6157 c-28 -7 -57 -17 -65 -22 -100 -59 -1503 -974 -1524 -994
-64 -58 -84 -166 -46 -240 17 -35 1161 -1260 1216 -1303 12 -10 42 -27 66 -38
52 -24 176 -27 236 -6 32 11 555 346 1206 771 l88 58 -50 31 c-28 17 -75 46
-104 64 l-53 32 80 -5 c44 -3 139 -9 210 -15 221 -16 546 -32 551 -27 7 7
-1488 1596 -1542 1638 -72 57 -177 79 -269 56z"/>
<path d="M7316 5108 l-58 -40 142 -143 143 -144 60 41 59 40 -143 144 c-79 79
-144 144 -144 143 0 0 -26 -18 -59 -41z"/>
<path d="M7683 4742 c-29 -20 -52 -41 -53 -46 0 -16 263 -276 280 -276 8 0 38
18 67 38 l52 38 -142 142 c-78 78 -144 142 -147 142 -3 -1 -28 -18 -57 -38z"/>
<path d="M8047 4369 l-59 -42 136 -136 136 -136 32 18 c18 10 46 29 63 42 l30
25 -135 135 c-74 74 -137 135 -140 135 -3 0 -31 -19 -63 -41z"/>
<path d="M4968 3823 c-37 -27 -67 -52 -67 -58 1 -10 328 -323 374 -358 24 -18
25 -17 87 29 35 25 63 51 63 58 0 9 -378 376 -387 376 -2 0 -33 -21 -70 -47z"/>
<path d="M5515 3304 c-33 -25 -61 -49 -63 -54 -5 -14 389 -380 402 -372 58 36
125 89 123 98 -3 14 -376 368 -391 371 -6 1 -38 -19 -71 -43z"/>
<path d="M6065 2784 c-33 -25 -61 -49 -63 -53 -2 -5 86 -92 194 -195 l197
-185 51 36 c28 20 60 45 71 55 20 19 20 20 -22 57 -22 20 -111 103 -196 184
-85 81 -158 147 -163 147 -5 0 -36 -21 -69 -46z"/>
<path d="M7523 2285 c-60 -26 -1023 -657 -1048 -686 -32 -39 -40 -87 -22 -131
18 -43 805 -881 849 -904 51 -26 128 -29 179 -7 31 14 823 521 857 548 2 2
-24 20 -57 40 -34 21 -59 40 -57 43 3 2 76 0 163 -6 87 -6 210 -14 273 -18
l115 -6 -46 48 c-25 27 -260 277 -522 555 -380 404 -484 509 -516 523 -50 20
-125 20 -168 1z"/>
<path d="M3511 1987 c-205 -134 -373 -247 -371 -253 3 -15 474 -514 485 -514
6 0 107 63 225 140 118 76 216 137 218 135 2 -2 -1 -128 -7 -280 -13 -334 -14
-445 -2 -445 10 0 18 150 27 491 l7 257 144 93 c79 51 146 96 148 99 2 3 -59
70 -136 150 -133 139 -138 147 -139 188 0 46 -20 60 -20 15 -1 -26 -9 -20 -95
70 -51 53 -97 97 -102 97 -4 0 -176 -110 -382 -243z"/>
<path d="M4317 1186 c-26 -18 -50 -36 -53 -39 -3 -3 57 -69 134 -148 l139
-143 53 35 c29 19 58 37 64 41 12 8 -261 288 -279 287 -5 0 -32 -15 -58 -33z"/>
<path d="M4687 819 c-31 -22 -57 -44 -57 -47 0 -4 63 -70 139 -146 l139 -139
62 43 61 44 -143 143 c-78 79 -143 143 -143 143 0 0 -26 -18 -58 -41z"/>
<path d="M5047 447 l-57 -41 137 -138 137 -137 29 17 c16 9 43 29 60 44 l32
27 -135 135 c-74 75 -137 136 -140 135 -3 0 -31 -19 -63 -42z"/>
</g>
</svg>
