<?xml version="1.0" encoding="utf-8"?>
<!-- Generator: Adobe Illustrator 25.0.0, SVG Export Plug-In . SVG Version: 6.00 Build 0)  -->
<svg version="1.1" id="Layer_1" xmlns="http://www.w3.org/2000/svg" xmlns:xlink="http://www.w3.org/1999/xlink" x="0px" y="0px"
	 viewBox="0 0 295 160" style="enable-background:new 0 0 295 160;" xml:space="preserve">
<style type="text/css">
	.st0{fill:#FFFFFF;}
	.st1{fill:#EFEEEC;}
	.st2{clip-path:url(#SVGID_2_);fill:#EFEEEC;}
	.st3{clip-path:url(#SVGID_4_);fill:#EFEEEC;}
	.st4{clip-path:url(#SVGID_6_);fill:#EFEEEC;}
	.st5{clip-path:url(#SVGID_8_);fill:#EFEEEC;}
	
		.st6{fill:none;stroke:#EFEEEC;stroke-width:4.8443;stroke-linecap:square;stroke-miterlimit:3.2295;stroke-dasharray:10.4959,10.4959;}
	
		.st7{fill:none;stroke:#EFEEEC;stroke-width:4.0369;stroke-linecap:square;stroke-miterlimit:3.2295;stroke-dasharray:7.2664,7.2664;}
</style>
<g transform="matrix(0.80737704 0 0 0.80737704 0.01434617 -0)">
	<path class="st0" d="M142.2,19L107,46.5c-3,2.3-3.5,6.6-1.2,9.6l0,0l27.7,35.5c2.3,3,6.6,3.5,9.6,1.2l0,0L173,69.6l-5.2-3.8
		l5.8,0.5l5.5,0.5l9.5,0.6l-36.8-47.1C149.5,17.3,145.2,16.7,142.2,19z M158.9,61.3c0,0-1.8-0.4-3.4-0.8c2.7-3.7,2.3-6.8,2.3-6.8
		c-0.5,1.6-1.2,2.8-1.8,3.9c-0.9,1.6-1.9,2.9-2.9,4.1c-2.2,2.4-4.6,4.1-6.8,5.3c-1.7,0.9-3.3,1.5-4.7,1.9c-0.8,0.2-1.7,0.5-2.6,0.6
		c-0.1,0-0.2,0-0.3,0.1c-0.1,0-0.1,0-0.2,0c-0.7,0.1-1.1,0.1-1.1,0.1s2.9,1.1,7-0.5c0,1.6-0.1,3.6-0.1,3.6
		c-5.9,4.4-11.1,2.3-11.1,2.3c-6.6-8.5-8.2-18.3-8.2-18.3c1.6-5.8,5.2-8.5,5.2-8.5l0,0l0.5,0.1c-3.7,5.1-4.2,8.8-4.2,8.8
		s0.3-0.8,1-2c1.8-3.4,3.8-5.5,4.7-6.3c0.1-0.1,0.2-0.3,0.4-0.4c1.4-1.5,3.2-2.9,5.3-4.2c2.7-1.7,6-3,9.9-3.7c0,0-3.6-0.3-9.1,1.8
		l0,0l0-0.7c0,0,3.5-2.9,9.5-3c0,0,9.1,3.9,15.7,12.4C163.8,51,164.5,56.5,158.9,61.3z"/>
	<path class="st1" d="M142.2,19L107,46.5c-3,2.3-3.5,6.6-1.2,9.6l0,0l27.7,35.5c2.3,3,6.6,3.5,9.6,1.2l0,0L173,69.6l-5.2-3.8
		l5.8,0.5l5.5,0.5l9.5,0.6l-36.8-47.1C149.5,17.3,145.2,16.7,142.2,19z M158.9,61.3c0,0-1.8-0.4-3.4-0.8c2.7-3.7,2.3-6.8,2.3-6.8
		c-0.5,1.6-1.2,2.8-1.8,3.9c-0.9,1.6-1.9,2.9-2.9,4.1c-2.2,2.4-4.6,4.1-6.8,5.3c-1.7,0.9-3.3,1.5-4.7,1.9c-0.8,0.2-1.7,0.5-2.6,0.6
		c-0.1,0-0.2,0-0.3,0.1c-0.1,0-0.1,0-0.2,0c-0.7,0.1-1.1,0.1-1.1,0.1s2.9,1.1,7-0.5c0,1.6-0.1,3.6-0.1,3.6
		c-5.9,4.4-11.1,2.3-11.1,2.3c-6.6-8.5-8.2-18.3-8.2-18.3c1.6-5.8,5.2-8.5,5.2-8.5l0,0l0.5,0.1c-3.7,5.1-4.2,8.8-4.2,8.8
		s0.3-0.8,1-2c1.8-3.4,3.8-5.5,4.7-6.3c0.1-0.1,0.2-0.3,0.4-0.4c1.4-1.5,3.2-2.9,5.3-4.2c2.7-1.7,6-3,9.9-3.7c0,0-3.6-0.3-9.1,1.8
		l0,0l0-0.7c0,0,3.5-2.9,9.5-3c0,0,9.1,3.9,15.7,12.4C163.8,51,164.5,56.5,158.9,61.3z"/>
	<g>
		<defs>
			<path id="SVGID_1_" d="M142.2,19L107,46.5c-3,2.3-3.5,6.6-1.2,9.6l0,0l27.7,35.5c2.3,3,6.6,3.5,9.6,1.2l0,0L173,69.6l-5.2-3.8
				l5.8,0.5l5.5,0.5l9.5,0.6l-36.8-47.1C149.5,17.3,145.2,16.7,142.2,19z M158.9,61.3c0,0-1.8-0.4-3.4-0.8c2.7-3.7,2.3-6.8,2.3-6.8
				c-0.5,1.6-1.2,2.8-1.8,3.9c-0.9,1.6-1.9,2.9-2.9,4.1c-2.2,2.4-4.6,4.1-6.8,5.3c-1.7,0.9-3.3,1.5-4.7,1.9
				c-0.8,0.2-1.7,0.5-2.6,0.6c-0.1,0-0.2,0-0.3,0.1c-0.1,0-0.1,0-0.2,0c-0.7,0.1-1.1,0.1-1.1,0.1s2.9,1.1,7-0.5
				c0,1.6-0.1,3.6-0.1,3.6c-5.9,4.4-11.1,2.3-11.1,2.3c-6.6-8.5-8.2-18.3-8.2-18.3c1.6-5.8,5.2-8.5,5.2-8.5l0,0l0.5,0.1
				c-3.7,5.1-4.2,8.8-4.2,8.8s0.3-0.8,1-2c1.8-3.4,3.8-5.5,4.7-6.3c0.1-0.1,0.2-0.3,0.4-0.4c1.4-1.5,3.2-2.9,5.3-4.2
				c2.7-1.7,6-3,9.9-3.7c0,0-3.6-0.3-9.1,1.8l0,0l0-0.7c0,0,3.5-2.9,9.5-3c0,0,9.1,3.9,15.7,12.4C163.8,51,164.5,56.5,158.9,61.3z"
				/>
		</defs>
		<clipPath id="SVGID_2_">
			<use xlink:href="#SVGID_1_"  style="overflow:visible;"/>
		</clipPath>
		<path class="st2" d="M173,69.6l23.8,30.5l40.5-31.6l-41.6-30.2L173,69.6z M167.8,65.8l3.3-38.6L32.5,15.3L145,97.1L167.8,65.8z
			 M173.6,66.3l-3.3,38.6l0,0l0,0L173.6,66.3z M179.1,66.8l-3.2,38.6l0.4,0l0.4,0L179.1,66.8z M188.6,67.4l-2.3,38.7l85.7,5.2
			l-52.9-67.7L188.6,67.4z M155.5,60.5l-31.2-22.9L90,84.4l56.3,13.7L155.5,60.5z M157.8,53.6l38.5-4.5l-75.2-7.9L157.8,53.6z
			 M156,57.6l-33-20.3l-0.4,0.7l-0.4,0.7L156,57.6z M153.1,61.7l-28.6-26.1l-0.2,0.2l-0.2,0.2L153.1,61.7z M146.2,67l17.6,34.5
			l0.1-0.1l0.1-0.1L146.2,67z M141.5,68.8l11.1,37.1l0,0l0,0L141.5,68.8z M138.9,69.4l2.9,38.6l1.5-0.1l1.5-0.2L138.9,69.4z
			 M138.5,69.5l-2.9-38.6l-2.4,0.2l-2.4,0.5L138.5,69.5z M138.4,69.5l4.7-38.4l-5.4-0.7l-5.4,0.8L138.4,69.5z M137.3,69.6l-2-38.7
			l-11.9,74.8L137.3,69.6z M144.3,69.1l38.7,0.2l0.3-57l-53.1,20.8L144.3,69.1z M144.2,72.7l22.9,31.3l15.4-11.2l0.5-19L144.2,72.7z
			 M133.1,75l-30.5,23.8l6.4,8.2l9.7,3.9L133.1,75z M124.9,56.7L87.6,46.6l-2.2,8l1.3,8.2L124.9,56.7z M130.2,48.2l8.2-37.9
			l-17.2-3.7L107,17.1L130.2,48.2z M130.7,48.3L162,71l34.7-48l-57.9-12.5L130.7,48.3z M126.4,57.1l-38.3-5.7l73.9,21L126.4,57.1z
			 M127.4,55.1L93.3,36.8l-0.2,0.3L93,37.4L127.4,55.1z M132.1,48.8l26.4,28.4l1.1-1.1l1-1.1L132.1,48.8z M132.5,48.4l23.8,30.5
			l2-1.6l1.8-1.8L132.5,48.4z M137.7,44.2l-20.2-33.1l-0.1,0l-0.1,0L137.7,44.2z M147.6,40.6l6.2,38.2L151.3,2L147.6,40.6z
			 M138.5,42.4l-38.7-2.1l-3.3,59.7l55.9-21.4L138.5,42.4z M138.5,41.6l-24.5-30l-13.2,10.8l-0.9,17L138.5,41.6z M148,38.6L163.2,3
			l-7.6-3.3l-8.3,0.2L148,38.6z M163.8,51l38.4-5.1l-1.4-10.4l-6.5-8.3L163.8,51z M118.4-11.5L83.2,16l47.7,61l35.2-27.5L118.4-11.5
			z M83.2,16c-19.9,15.6-23.3,44.2-7.8,64l0,0l61-47.7c10.8,13.8,8.5,33.8-5.5,44.7l0,0L83.2,16z M75.4,80l27.7,35.5l61-47.7
			l-27.7-35.5L75.4,80z M103.1,115.5c15.4,19.7,44.1,23.4,64,7.9l0,0l-47.7-61c14-10.9,34-8.3,44.7,5.5l0,0L103.1,115.5z
			 M167.1,123.4l29.8-23.3l-47.7-61l-29.8,23.3L167.1,123.4z M195.8,38.3l-5.2-3.8L145,97.1l5.2,3.8L195.8,38.3z M164.5,104.4
			l5.8,0.5l6.6-77.2l-5.8-0.5L164.5,104.4z M170.4,104.9l5.5,0.5l6.5-77.2l-5.5-0.5L170.4,104.9z M176.7,105.4l9.5,0.6l4.7-77.3
			l-9.5-0.6L176.7,105.4z M219.1,43.5L182.3-3.6l-61,47.7l36.8,47.1L219.1,43.5z M182.3-3.6c-15.4-19.7-44.1-23.4-64-7.9l0,0
			l47.7,61c-14,10.9-34,8.3-44.7-5.5l0,0L182.3-3.6z M158.9,61.3c8.1-37.9,8.1-37.9,8.1-37.9c0,0,0,0,0,0c0,0,0,0,0,0c0,0,0,0,0,0
			c0,0,0,0,0,0c0,0,0,0,0,0c0,0,0,0,0,0c0,0-0.1,0-0.2,0c-0.1,0-0.4-0.1-0.6-0.1c-0.5-0.1-1.1-0.2-1.5-0.4l0,0l-18.3,75.2
			c1.1,0.3,2.3,0.5,3,0.7c0.4,0.1,0.7,0.2,1,0.2c0.1,0,0.2,0,0.3,0.1c0,0,0.1,0,0.1,0c0,0,0,0,0,0c0,0,0,0,0,0c0,0,0,0,0,0
			c0,0,0,0,0,0c0,0,0,0,0,0C150.8,99.1,150.8,99.1,158.9,61.3z M186.7,83.4c5.1-7,7.7-14.1,8.9-20.3c0.6-3,0.8-5.8,0.9-8.1
			c0-1.2,0-2.2,0-3.2c0-0.5-0.1-0.9-0.1-1.4c0-0.2,0-0.4-0.1-0.6c0-0.1,0-0.2,0-0.3c0,0,0-0.1,0-0.1c0,0,0,0,0-0.1c0,0,0,0,0,0
			c0,0,0,0-38.5,4.4c-38.5,4.5-38.5,4.5-38.5,4.4c0,0,0,0,0,0c0,0,0,0,0-0.1c0,0,0-0.1,0-0.1c0-0.1,0-0.2,0-0.3c0-0.2,0-0.4-0.1-0.6
			c0-0.4-0.1-0.8-0.1-1.2c0-0.8-0.1-1.6,0-2.4c0-1.6,0.2-3.3,0.5-5.1c0.7-3.7,2.2-7.4,4.6-10.7l0,0L186.7,83.4z M121.1,41.3
			c0.4-1.2,1-2.6,1.9-4l0,0l66,40.6c2.2-3.5,4.1-7.5,5.5-11.8l0,0L121.1,41.3z M122.2,38.7c0.5-0.8,1.2-1.9,2.2-3.1l0,0l57.3,52.2
			c3.2-3.5,5.9-7.3,8.1-11.3l0,0L122.2,38.7z M124,36.1c1.6-1.8,3.3-2.9,4.4-3.5l0,0l35.7,68.7c5.6-2.9,12.1-7.4,18-14.1l0,0
			L124,36.1z M128.6,32.5c0.8-0.4,1.5-0.7,1.8-0.7l0,0l22.2,74.2c3.1-0.9,7-2.3,11.3-4.5l0,0L128.6,32.5z M130.4,31.7
			c0.3-0.1,1.2-0.4,2.6-0.6l0,0l11.8,76.5c3.2-0.5,5.9-1.2,7.8-1.8l0,0L130.4,31.7z M136,30.8c-1.5,0.1-2.8,0.3-3.6,0.4
			c-0.4,0.1-0.8,0.1-1,0.2c-0.1,0-0.2,0-0.3,0.1c-0.1,0-0.1,0-0.1,0c0,0,0,0,0.1,0c0,0,0.1,0,0.2,0c0.2,0,0.5-0.1,0.9-0.2
			c0.8-0.1,2-0.3,3.4-0.4l0,0l5.8,77.2c1.5-0.1,2.8-0.3,3.6-0.4c0.4-0.1,0.8-0.1,1-0.2c0.1,0,0.2,0,0.3-0.1c0.1,0,0.1,0,0.1,0
			c0,0,0,0-0.1,0c0,0-0.1,0-0.2,0c-0.2,0-0.5,0.1-0.9,0.2c-0.8,0.1-2,0.3-3.4,0.4l0,0L136,30.8z M130.9,31.5c2.6-0.5,5.3-0.8,8-0.8
			c2.4,0,4.4,0.3,4.2,0.3l0,0l-9.4,76.9c1.2,0.1,6.2,0.8,12.6-0.5l0,0L130.9,31.5z M132.3,31.2c0.4-0.1,0.9-0.1,1.4-0.2
			c0.2,0,0.5,0,0.7-0.1c0.1,0,0.3,0,0.4,0c0.1,0,0.1,0,0.2,0c0,0,0.1,0,0.1,0c0,0,0,0,0.1,0c0,0,0,0,0,0c0,0,0,0,0,0c0,0,0,0,0,0
			c0,0,0,0,2,38.7c2,38.7,2,38.7,2,38.7c0,0,0,0,0,0c0,0,0,0,0,0c0,0,0,0,0,0c0,0,0,0,0.1,0c0,0,0.1,0,0.1,0c0.1,0,0.2,0,0.2,0
			c0.2,0,0.3,0,0.5,0c0.4,0,0.7-0.1,1.2-0.1c0.8-0.1,1.8-0.2,3-0.4l0,0L132.3,31.2z M137.3,69.6c-13.9,36.1-13.9,36.2-13.9,36.2
			c0,0,0,0,0,0c0,0,0,0,0.1,0c0,0,0.1,0,0.1,0.1c0.1,0,0.2,0.1,0.3,0.1c0.2,0.1,0.4,0.1,0.6,0.2c0.4,0.1,0.8,0.3,1.3,0.4
			c0.9,0.3,1.9,0.6,3.1,0.8c2.2,0.5,4.9,1,7.9,1.2c6.2,0.4,13.6-0.3,21.6-3.4l0,0l-28.2-72.1c3.8-1.5,7.8-2,11.5-1.7
			c1.8,0.1,3.5,0.4,5,0.8c0.8,0.2,1.5,0.4,2.3,0.6c0.4,0.1,0.7,0.2,1.1,0.4c0.2,0.1,0.4,0.1,0.5,0.2c0.1,0,0.2,0.1,0.3,0.1
			c0,0,0.1,0,0.1,0.1c0,0,0,0,0.1,0c0,0,0,0,0,0C151.2,33.5,151.2,33.5,137.3,69.6z M105.6,68.9c0,0.5,0,1.2,0,1.8
			c0,0.3,0,0.5,0,0.7c0,0.1,0,0.2,0,0.2c0,0,0,0,0,0c0,0,0,0,0,0c0,0,0,0,0,0c0,0,0,0,0,0c0,0,0,0,0,0c0,0,0,0,0,0c0,0,0,0,38.7,1
			c38.7,1,38.7,1,38.7,1c0,0,0,0,0,0c0,0,0,0,0,0c0,0,0,0,0,0c0,0,0,0,0,0c0,0,0,0,0,0c0,0,0-0.1,0-0.1c0-0.1,0-0.2,0-0.3
			c0-0.2,0-0.6,0-1c0-0.8,0-1.9,0-2.9l0,0L105.6,68.9z M121.4,41.4c4.2-3.1,9.5-4.6,14.6-4.7c2.4,0,4.5,0.3,6.3,0.7
			c0.9,0.2,1.8,0.4,2.7,0.7c0.4,0.1,0.9,0.3,1.3,0.4c0.2,0.1,0.4,0.2,0.6,0.2c0.1,0,0.2,0.1,0.3,0.1c0.1,0,0.1,0,0.2,0.1
			c0,0,0.1,0,0.1,0c0,0,0,0,0,0c0,0,0,0-14.4,35.9c-14.5,35.9-14.4,35.9-14.4,35.9c0,0,0,0,0,0c0,0,0.1,0,0.1,0c0.1,0,0.1,0,0.2,0.1
			c0.1,0,0.2,0.1,0.3,0.1c0.2,0.1,0.5,0.2,0.7,0.3c0.5,0.2,1,0.4,1.6,0.5c1.2,0.4,2.5,0.7,4,1.1c3,0.7,6.8,1.2,11.2,1.1
			c9.2-0.1,20-2.8,30.2-10.2l0,0L121.4,41.4z M163.6,51.1c0.1,0.1-0.2-0.3-0.5-1.2c-0.1-0.4-0.2-0.6-0.2-0.6c0,0,0,0.1,0.1,0.3
			c0,0.1,0,0.2,0.1,0.4c0,0.1,0,0.2,0,0.2c0,0,0,0.1,0,0.1c0,0,0,0,0,0.1c0,0,0,0,0,0c0,0,0,0,0,0c0,0,0,0-38.2,6.2
			c-38.2,6.1-38.2,6.1-38.2,6.2c0,0,0,0,0,0c0,0,0,0,0,0c0,0,0,0.1,0,0.1c0,0.1,0,0.1,0,0.2c0,0.1,0,0.3,0.1,0.4
			c0.1,0.3,0.1,0.6,0.2,1c0.1,0.8,0.3,1.7,0.6,2.7c0.5,2.1,1.3,4.9,2.4,8c2.1,6.1,5.9,14.8,12.6,23.4l0,0L163.6,51.1z M162.3,66.8
			c-0.8,3-2.3,5.5-3.8,7.5c-0.8,1-1.6,1.8-2.4,2.6c-0.4,0.4-0.9,0.8-1.3,1.2c-0.2,0.2-0.5,0.4-0.7,0.6c-0.1,0.1-0.2,0.2-0.4,0.3
			c-0.1,0-0.1,0.1-0.2,0.1c0,0-0.1,0-0.1,0.1c0,0,0,0,0,0c0,0,0,0,0,0c0,0,0,0-23.2-31c-23.2-31-23.2-31-23.2-31c0,0,0,0,0,0
			c0,0,0,0,0,0c0,0-0.1,0.1-0.1,0.1c-0.1,0.1-0.1,0.1-0.2,0.2c-0.1,0.1-0.3,0.2-0.4,0.3c-0.3,0.2-0.6,0.5-1,0.8
			c-0.7,0.6-1.4,1.2-2.2,2c-1.6,1.5-3.4,3.4-5.3,5.8C94,31,89.9,37.8,87.6,46.6l0,0L162.3,66.8z M122,86l0.5,0.1l16.4-75.7l-0.5-0.1
			L122,86z M99.3,25.6c-4,5.5-6.6,10.8-8.3,15.3c-0.9,2.2-1.5,4.3-1.9,6.1c-0.2,0.9-0.4,1.7-0.6,2.5c-0.1,0.4-0.1,0.7-0.2,1.1
			c0,0.2-0.1,0.3-0.1,0.5c0,0.1,0,0.2,0,0.2c0,0,0,0.1,0,0.1c0,0,0,0,0,0.1c0,0,0,0,0,0c0,0,0,0,38.3,5.7
			c38.3,5.7,38.3,5.7,38.3,5.7c0,0,0,0,0,0c0,0,0,0,0,0.1c0,0,0,0.1,0,0.1c0,0.1,0,0.1,0,0.2c0,0.1,0,0.3-0.1,0.4
			c0,0.3-0.1,0.6-0.2,0.8c-0.1,0.5-0.2,1-0.3,1.5c-0.2,0.9-0.5,1.7-0.7,2.4c-0.5,1.4-1,2.2-1.4,2.7l0,0L99.3,25.6z M126.4,57.1
			C162,72.5,162,72.5,162,72.5c0,0,0,0,0,0c0,0,0,0,0,0c0,0,0,0,0,0c0,0,0,0,0,0c0,0,0,0,0,0.1c0,0,0,0.1,0,0.1
			c0,0.1-0.1,0.1-0.1,0.2c0,0.1-0.1,0.1-0.1,0.2c0,0.1,0,0,0.1-0.1l0,0L93,37.4c-0.6,1.1-1,2-1.4,2.8c-0.2,0.4-0.3,0.7-0.4,1
			c-0.1,0.1-0.1,0.3-0.2,0.4c0,0.1,0,0.1-0.1,0.2c0,0,0,0,0,0.1c0,0,0,0,0,0c0,0,0,0,0,0c0,0,0,0,0,0c0,0,0,0,0,0
			C90.9,41.7,90.9,41.7,126.4,57.1z M161.5,73.5c-0.2,0.4-0.6,0.9-1,1.5c-0.4,0.5-1.1,1.3-2.1,2.2l0,0l-52.7-56.7
			c-3.5,3.3-8.3,8.7-12.4,16.3l0,0L161.5,73.5z M160.6,75c0.1-0.1,0.1-0.1,0.1-0.2c0,0,0,0,0,0c-0.1,0.1-0.3,0.4-0.7,0.7
			c-0.8,0.8-2,2-3.7,3.3l0,0l-47.7-61c-1.8,1.4-3.2,2.8-4.1,3.7c-0.4,0.4-0.7,0.8-0.9,0.9c-0.1,0.1-0.1,0.1-0.1,0.2c0,0,0,0,0,0l0,0
			L160.6,75z M160.1,75.6c-0.6,0.6-1.2,1.1-2,1.6l0,0l-40.7-65.9c-4.9,3-9.1,6.5-12.5,10l0,0L160.1,75.6z M157.9,77.3
			c-1.1,0.7-2.5,1.3-4.1,1.5l0,0L141.4,2.4c-9.3,1.5-17.3,4.8-23.8,8.8l0,0L157.9,77.3z M147.6,40.6C151.3,2,151.3,2,151.3,2
			c0,0,0,0,0,0c0,0,0,0-0.1,0c0,0-0.1,0-0.1,0c-0.1,0-0.2,0-0.2,0c-0.2,0-0.3,0-0.5,0c-0.3,0-0.7,0-1-0.1c-0.7,0-1.5-0.1-2.4-0.1
			c-1.8,0-3.8,0.1-6.1,0.4c-4.6,0.5-10.1,1.7-16.2,4l0,0l27.8,72.3c-0.6,0.2-1.5,0.5-2.9,0.6c-0.7,0.1-1.5,0.1-2.4,0.1
			c-0.5,0-0.9,0-1.5,0c-0.3,0-0.5,0-0.8,0c-0.1,0-0.3,0-0.4,0c-0.1,0-0.1,0-0.2,0c0,0-0.1,0-0.1,0c0,0,0,0-0.1,0c0,0,0,0,0,0
			C143.9,79.1,143.9,79.1,147.6,40.6z M177.1,44.5l0-0.7l-77.3-4.3l0,0.7L177.1,44.5z M138.5,41.6c24.5,30,24.5,30,24.5,30
			c0,0,0,0,0,0c0,0,0,0,0,0c0,0-0.1,0.1-0.1,0.1c-0.1,0.1-0.1,0.1-0.2,0.2c-0.1,0.1-0.2,0.2-0.4,0.3c-0.2,0.2-0.5,0.4-0.7,0.6
			c-0.5,0.4-1,0.7-1.5,1c-1,0.6-2,1.2-3.1,1.7c-2.2,1-5,1.8-8.1,1.9l0,0l-1.5-77.4c-9.1,0.2-16.7,2.5-22.2,5c-2.7,1.2-5,2.5-6.9,3.7
			c-0.9,0.6-1.7,1.1-2.4,1.7c-0.4,0.3-0.7,0.5-1,0.7c-0.2,0.1-0.3,0.2-0.4,0.3c-0.1,0.1-0.1,0.1-0.2,0.2c0,0-0.1,0.1-0.1,0.1
			c0,0,0,0,0,0c0,0,0,0,0,0C114,11.7,114,11.7,138.5,41.6z M148,38.6c-15.2,35.6-15.2,35.6-15.2,35.6c0,0,0,0,0,0c0,0,0,0,0,0
			c0,0,0,0-0.1,0c0,0-0.1,0-0.1-0.1c-0.1,0-0.2-0.1-0.2-0.1c-0.1-0.1-0.2-0.1-0.3-0.2c-0.2-0.1-0.3-0.1-0.3-0.1c0,0,0.2,0.1,0.5,0.3
			c0.8,0.5,1.1,0.9,1,0.8l0,0l61-47.7c-6.7-8.6-14.3-14.4-19.7-17.9c-2.8-1.8-5.3-3.2-7.2-4.2c-1-0.5-1.8-0.9-2.5-1.2
			c-0.3-0.2-0.7-0.3-0.9-0.4c-0.1-0.1-0.3-0.1-0.4-0.2c-0.1,0-0.1,0-0.2-0.1c0,0-0.1,0-0.1,0c0,0,0,0,0,0c0,0,0,0,0,0
			C163.2,3,163.2,3,148,38.6z M163.8,51c-38.4,5.1-38.4,5.1-38.4,5.1c0,0,0,0,0,0c0,0,0-0.1,0-0.1c0-0.1,0-0.1,0-0.2
			c0-0.1,0-0.2,0-0.3c0-0.2,0-0.4-0.1-0.7c0-0.4-0.1-0.9-0.1-1.3c-0.1-0.9-0.1-1.8,0-2.8c0.1-1.9,0.3-4,0.9-6.2
			c1.3-4.9,4-9.6,8.1-13l0,0L183.7,91c9.7-8.1,14.9-17.9,17.2-26.8c1.1-4.2,1.5-8,1.6-11.1c0-1.5,0-2.9-0.1-4.1
			c0-0.6-0.1-1.2-0.1-1.7c0-0.3-0.1-0.5-0.1-0.8c0-0.1,0-0.2,0-0.4c0-0.1,0-0.1,0-0.2c0,0,0-0.1,0-0.1c0,0,0,0,0,0
			C202.2,45.9,202.2,45.9,163.8,51z"/>
	</g>
	<path class="st1" d="M111.9,55.1L149.1,26L173,56.7l-37.2,29.1L111.9,55.1z"/>
	<path class="st0" d="M229.9,131.3l-23.6,18.4c-2,1.6-2.3,4.4-0.8,6.4l0,0l18.6,23.8c1.6,2,4.4,2.4,6.4,0.8l0,0l19.9-15.6l-3.5-2.5
		l3.9,0.3l3.7,0.3l6.4,0.4l-24.6-31.5C234.7,130.1,231.9,129.7,229.9,131.3z M241,159.5c0,0-1.2-0.3-2.3-0.5
		c1.8-2.4,1.5-4.6,1.5-4.6c-0.3,1-0.8,1.9-1.2,2.6c-0.6,1.1-1.2,2-2,2.7c-1.4,1.6-3.1,2.8-4.6,3.5c-1.2,0.6-2.2,1-3.2,1.3
		c-0.5,0.2-1.1,0.3-1.8,0.4c-0.1,0-0.1,0-0.2,0c0,0-0.1,0-0.1,0c-0.5,0.1-0.7,0.1-0.7,0.1s1.9,0.7,4.7-0.3c0,1.1,0,2.4,0,2.4
		c-4,2.9-7.4,1.5-7.4,1.5c-4.4-5.7-5.5-12.2-5.5-12.2c1-3.9,3.5-5.7,3.5-5.7l0,0l0.3,0.1c-2.5,3.4-2.8,5.9-2.8,5.9s0.2-0.5,0.6-1.3
		c1.2-2.3,2.6-3.7,3.1-4.2c0.1-0.1,0.2-0.2,0.3-0.3c1-1,2.1-2,3.5-2.8c1.8-1.1,4-2,6.6-2.4c0,0-2.4-0.2-6.1,1.2l0,0l0-0.5
		c0,0,2.4-1.9,6.4-2c0,0,6.1,2.6,10.5,8.3C244.3,152.6,244.8,156.4,241,159.5z"/>
	<path class="st1" d="M229.9,131.3l-23.6,18.4c-2,1.6-2.3,4.4-0.8,6.4l0,0l18.6,23.8c1.6,2,4.4,2.4,6.4,0.8l0,0l19.9-15.6l-3.5-2.5
		l3.9,0.3l3.7,0.3l6.4,0.4l-24.6-31.5C234.7,130.1,231.9,129.7,229.9,131.3z M241,159.5c0,0-1.2-0.3-2.3-0.5
		c1.8-2.4,1.5-4.6,1.5-4.6c-0.3,1-0.8,1.9-1.2,2.6c-0.6,1.1-1.2,2-2,2.7c-1.4,1.6-3.1,2.8-4.6,3.5c-1.2,0.6-2.2,1-3.2,1.3
		c-0.5,0.2-1.1,0.3-1.8,0.4c-0.1,0-0.1,0-0.2,0c0,0-0.1,0-0.1,0c-0.5,0.1-0.7,0.1-0.7,0.1s1.9,0.7,4.7-0.3c0,1.1,0,2.4,0,2.4
		c-4,2.9-7.4,1.5-7.4,1.5c-4.4-5.7-5.5-12.2-5.5-12.2c1-3.9,3.5-5.7,3.5-5.7l0,0l0.3,0.1c-2.5,3.4-2.8,5.9-2.8,5.9s0.2-0.5,0.6-1.3
		c1.2-2.3,2.6-3.7,3.1-4.2c0.1-0.1,0.2-0.2,0.3-0.3c1-1,2.1-2,3.5-2.8c1.8-1.1,4-2,6.6-2.4c0,0-2.4-0.2-6.1,1.2l0,0l0-0.5
		c0,0,2.4-1.9,6.4-2c0,0,6.1,2.6,10.5,8.3C244.3,152.6,244.8,156.4,241,159.5z"/>
	<g>
		<defs>
			<path id="SVGID_3_" d="M229.9,131.3l-23.6,18.4c-2,1.6-2.3,4.4-0.8,6.4l0,0l18.6,23.8c1.6,2,4.4,2.4,6.4,0.8l0,0l19.9-15.6
				l-3.5-2.5l3.9,0.3l3.7,0.3l6.4,0.4l-24.6-31.5C234.7,130.1,231.9,129.7,229.9,131.3z M241,159.5c0,0-1.2-0.3-2.3-0.5
				c1.8-2.4,1.5-4.6,1.5-4.6c-0.3,1-0.8,1.9-1.2,2.6c-0.6,1.1-1.2,2-2,2.7c-1.4,1.6-3.1,2.8-4.6,3.5c-1.2,0.6-2.2,1-3.2,1.3
				c-0.5,0.2-1.1,0.3-1.8,0.4c-0.1,0-0.1,0-0.2,0c0,0-0.1,0-0.1,0c-0.5,0.1-0.7,0.1-0.7,0.1s1.9,0.7,4.7-0.3c0,1.1,0,2.4,0,2.4
				c-4,2.9-7.4,1.5-7.4,1.5c-4.4-5.7-5.5-12.2-5.5-12.2c1-3.9,3.5-5.7,3.5-5.7l0,0l0.3,0.1c-2.5,3.4-2.8,5.9-2.8,5.9
				s0.2-0.5,0.6-1.3c1.2-2.3,2.6-3.7,3.1-4.2c0.1-0.1,0.2-0.2,0.3-0.3c1-1,2.1-2,3.5-2.8c1.8-1.1,4-2,6.6-2.4c0,0-2.4-0.2-6.1,1.2
				l0,0l0-0.5c0,0,2.4-1.9,6.4-2c0,0,6.1,2.6,10.5,8.3C244.3,152.6,244.8,156.4,241,159.5z"/>
		</defs>
		<clipPath id="SVGID_4_">
			<use xlink:href="#SVGID_3_"  style="overflow:visible;"/>
		</clipPath>
		<path class="st3" d="M250.5,165.1l23.8,30.5l40.5-31.6l-41.6-30.2L250.5,165.1z M247,162.6l3.3-38.6l-138.6-11.9l112.6,81.8
			L247,162.6z M250.9,162.9l-3.3,38.6l0,0l0,0L250.9,162.9z M254.6,163.2l-3.2,38.6l0.4,0l0.4,0L254.6,163.2z M260.9,163.6
			l-2.3,38.7l85.7,5.2l-52.9-67.7L260.9,163.6z M238.7,159l-31.2-22.9l-34.3,46.8l56.3,13.7L238.7,159z M240.3,154.4l38.5-4.5
			l-75.2-7.9L240.3,154.4z M239.1,157l-33-20.3l-0.4,0.7l-0.4,0.7L239.1,157z M237.1,159.8l-28.6-26.1l-0.2,0.2l-0.2,0.2
			L237.1,159.8z M232.6,163.3l17.6,34.5l0.1-0.1l0.1-0.1L232.6,163.3z M229.4,164.6l11.1,37.1l0,0l0,0L229.4,164.6z M227.6,165
			l2.9,38.6l1.5-0.1l1.5-0.2L227.6,165z M227.4,165l-2.9-38.6l-2.4,0.2l-2.4,0.5L227.4,165z M227.3,165l4.7-38.4l-5.4-0.7l-5.4,0.8
			L227.3,165z M226.6,165.1l-2-38.7l-11.9,74.8L226.6,165.1z M231.3,164.8L270,165l0.3-57l-53.1,20.8L231.3,164.8z M231.2,167.2
			l22.9,31.3l15.4-11.2l0.5-19L231.2,167.2z M223.8,168.7l-30.5,23.8l6.4,8.2l9.7,3.9L223.8,168.7z M218.3,156.5l-37.4-10.1l-2.2,8
			l1.3,8.2L218.3,156.5z M221.8,150.7l8.2-37.9l-17.2-3.7l-14.1,10.5L221.8,150.7z M222.1,150.8l31.4,22.7l34.7-48L230.3,113
			L222.1,150.8z M219.3,156.7l-38.3-5.7l73.8,21L219.3,156.7z M220,155.4l-34.1-18.3l-0.2,0.3l-0.1,0.3L220,155.4z M223.1,151.2
			l26.4,28.4l1.1-1.1l1-1.1L223.1,151.2z M223.4,150.9l23.8,30.5l2-1.6l1.8-1.8L223.4,150.9z M226.9,148.1l-20.2-33.1l-0.1,0l-0.1,0
			L226.9,148.1z M233.5,145.7l6.2,38.2l-2.5-76.8L233.5,145.7z M227.4,146.9l-38.7-2.1l-3.3,59.7l55.9-21.4L227.4,146.9z
			 M227.4,146.4l-24.5-30l-13.2,10.8l-0.9,17L227.4,146.4z M233.8,144.4l15.2-35.6l-7.7-3.3l-8.3,0.2L233.8,144.4z M244.3,152.6
			l38.4-5.1l-1.4-10.4l-6.5-8.3L244.3,152.6z M206,100.7l-23.6,18.4l47.7,61l23.6-18.4L206,100.7z M182.5,119.1
			c-18.9,14.8-22.1,42-7.4,60.8l0,0l61-47.7c11.5,14.8,9.1,36.2-5.9,47.9l0,0L182.5,119.1z M175,179.9l18.6,23.8l61-47.7L236,132.3
			L175,179.9z M193.6,203.7c14.7,18.8,41.9,22.3,60.8,7.5l0,0l-47.7-61c15-11.7,36.4-8.9,47.9,5.9l0,0L193.6,203.7z M254.4,211.2
			l19.9-15.6l-47.7-61l-19.9,15.6L254.4,211.2z M273.2,133.8l-3.5-2.5l-45.5,62.6l3.5,2.5L273.2,133.8z M243.7,201.1l3.9,0.3
			l6.6-77.2l-3.9-0.3L243.7,201.1z M247.7,201.5l3.7,0.3l6.5-77.2l-3.7-0.3L247.7,201.5z M252.2,201.9l6.4,0.4l4.7-77.3l-6.4-0.4
			L252.2,201.9z M291.5,139.8l-24.6-31.5l-61,47.7l24.6,31.5L291.5,139.8z M266.8,108.2c-14.7-18.8-41.9-22.3-60.8-7.5l0,0l47.7,61
			c-15,11.7-36.4,8.9-47.9-5.9l0,0L266.8,108.2z M241,159.5c8.1-37.9,8.1-37.9,8.1-37.9c0,0,0,0,0,0s0,0,0,0c0,0,0,0,0,0
			c0,0,0,0,0,0c0,0,0,0,0,0c0,0,0,0,0,0c0,0,0,0-0.1,0c-0.1,0-0.2,0-0.3-0.1c-0.3-0.1-0.6-0.1-0.8-0.2l0,0l-18.3,75.2
			c0.9,0.2,1.7,0.4,2.3,0.5c0.3,0.1,0.5,0.1,0.7,0.2c0.1,0,0.2,0,0.2,0c0,0,0.1,0,0.1,0c0,0,0,0,0,0c0,0,0,0,0,0c0,0,0,0,0,0
			c0,0,0,0,0,0c0,0,0,0,0,0C232.9,197.4,232.9,197.4,241,159.5z M270,181.9c4.7-6.4,7.1-13,8.2-18.7c0.5-2.8,0.8-5.4,0.8-7.6
			c0-1.1,0-2.1,0-3.1c0-0.5-0.1-0.9-0.1-1.3c0-0.2,0-0.4-0.1-0.6c0-0.1,0-0.2,0-0.3c0,0,0-0.1,0-0.1c0,0,0,0,0-0.1c0,0,0,0,0,0
			c0,0,0,0-38.5,4.4c-38.5,4.5-38.5,4.5-38.5,4.4c0,0,0,0,0,0c0,0,0,0,0-0.1c0,0,0-0.1,0-0.1c0-0.1,0-0.2,0-0.3c0-0.2,0-0.4-0.1-0.6
			c0-0.4-0.1-0.8-0.1-1.2c0-0.8-0.1-1.7,0-2.5c0-1.7,0.2-3.6,0.6-5.6c0.8-4.1,2.5-8.4,5.3-12.3l0,0L270,181.9z M203.6,142
			c0.6-1.7,1.4-3.5,2.5-5.3l0,0l66,40.6c2-3.2,3.6-6.7,4.9-10.5l0,0L203.6,142z M205.3,138.1c0.7-1.3,1.8-2.9,3.2-4.4l0,0l57.3,52.2
			c2.8-3.1,5.2-6.5,7.1-9.9l0,0L205.3,138.1z M208.1,134.2c2.3-2.6,4.8-4.3,6.7-5.2l0,0l35.7,68.7c4.9-2.5,10.6-6.4,15.8-12.3l0,0
			L208.1,134.2z M214.9,128.8c1.4-0.7,2.6-1.1,3.3-1.4l0,0l22.2,74.2c2.6-0.8,6-2,9.7-3.9l0,0L214.9,128.8z M218.3,127.5
			c0.6-0.2,1.8-0.5,3.4-0.8l0,0l11.8,76.5c2.9-0.4,5.3-1.1,6.9-1.6l0,0L218.3,127.5z M224.7,126.4c-1.5,0.1-2.7,0.3-3.6,0.4
			c-0.4,0.1-0.7,0.1-1,0.2c-0.1,0-0.2,0-0.3,0c0,0-0.1,0-0.1,0c0,0,0,0,0,0c0,0,0,0,0.1,0c0,0,0.1,0,0.2,0c0.2,0,0.5-0.1,0.9-0.2
			c0.8-0.1,2-0.3,3.5-0.4l0,0l5.8,77.2c1.5-0.1,2.7-0.3,3.6-0.4c0.4-0.1,0.7-0.1,1-0.2c0.1,0,0.2,0,0.2,0c0,0,0.1,0,0.1,0
			c0,0,0,0,0,0c0,0,0,0-0.1,0c0,0-0.1,0-0.2,0c-0.2,0-0.5,0.1-0.9,0.2c-0.8,0.1-2,0.3-3.5,0.4l0,0L224.7,126.4z M219.7,127.1
			c2.7-0.5,5.4-0.8,8.1-0.8c2.4,0,4.4,0.3,4.2,0.3l0,0l-9.4,76.9c1.2,0.1,6.2,0.8,12.5-0.5l0,0L219.7,127.1z M221.3,126.8
			c0.6-0.1,1.1-0.2,1.6-0.2c0.3,0,0.5-0.1,0.8-0.1c0.1,0,0.3,0,0.4,0c0.1,0,0.1,0,0.2,0c0,0,0.1,0,0.1,0c0,0,0,0,0.1,0c0,0,0,0,0,0
			c0,0,0,0,0,0c0,0,0,0,0,0c0,0,0,0,2,38.7s2,38.7,2,38.7c0,0,0,0,0,0c0,0,0,0,0,0c0,0,0,0,0,0c0,0,0,0,0.1,0c0,0,0.1,0,0.1,0
			c0.1,0,0.1,0,0.2,0c0.2,0,0.3,0,0.5,0c0.3,0,0.7-0.1,1.1-0.1c0.8-0.1,1.7-0.2,2.7-0.3l0,0L221.3,126.8z M226.6,165.1
			c-13.9,36.1-13.9,36.2-13.9,36.2c0,0,0,0,0,0c0,0,0,0,0.1,0c0,0,0.1,0,0.1,0.1c0.1,0,0.2,0.1,0.3,0.1c0.2,0.1,0.4,0.1,0.6,0.2
			c0.4,0.1,0.8,0.3,1.3,0.4c0.9,0.3,1.9,0.6,2.9,0.8c2.1,0.5,4.6,0.9,7.4,1.1c5.8,0.4,12.7-0.3,19.9-3.1l0,0l-28.2-72.1
			c4.5-1.8,9-2.3,13.1-2c2,0.1,3.8,0.4,5.5,0.8c0.8,0.2,1.6,0.4,2.4,0.7c0.4,0.1,0.8,0.2,1.1,0.4c0.2,0.1,0.4,0.1,0.6,0.2
			c0.1,0,0.2,0.1,0.3,0.1c0,0,0.1,0,0.1,0.1c0,0,0,0,0.1,0c0,0,0,0,0,0C240.4,129,240.5,129,226.6,165.1z M192.5,164.6
			c0,0.3,0,0.7,0,1.1c0,0.2,0,0.3,0,0.4c0,0.1,0,0.1,0,0.1c0,0,0,0,0,0c0,0,0,0,0,0c0,0,0,0,0,0c0,0,0,0,0,0s0,0,0,0l0,0
			c0,0,0,0,38.7,1c38.7,1,38.7,1,38.7,1c0,0,0,0,0,0c0,0,0,0,0,0c0,0,0,0,0,0c0,0,0,0,0,0c0,0,0,0,0,0c0,0,0,0,0-0.1
			c0-0.1,0-0.1,0-0.2c0-0.2,0-0.4,0-0.7c0-0.5,0-1.3,0-2.1l0,0L192.5,164.6z M208.4,135.9c5.2-3.8,11.4-5.6,17.2-5.6
			c2.7,0,5.1,0.3,7.1,0.7c1,0.2,2,0.5,2.9,0.8c0.5,0.1,0.9,0.3,1.3,0.5c0.2,0.1,0.4,0.2,0.6,0.2c0.1,0,0.2,0.1,0.3,0.1
			c0.1,0,0.1,0,0.2,0.1c0,0,0.1,0,0.1,0c0,0,0,0,0,0c0,0,0,0-14.4,35.9c-14.5,35.9-14.4,35.9-14.4,35.9c0,0,0,0,0,0c0,0,0.1,0,0.1,0
			c0.1,0,0.1,0,0.2,0.1c0.1,0,0.2,0.1,0.3,0.1c0.2,0.1,0.5,0.2,0.7,0.3c0.5,0.2,1,0.4,1.6,0.5c1.1,0.4,2.4,0.7,3.8,1
			c2.8,0.6,6.3,1.1,10.4,1.1c8.5-0.1,18.5-2.6,27.6-9.3l0,0L208.4,135.9z M254.3,144.8c1.2,1.5,1.6,2.7,1.7,2.9
			c0.1,0.2,0.2,0.5,0.2,0.9c0,0.2,0.1,0.4,0.1,0.7c0,0.1,0.1,0.3,0.1,0.5c0,0.1,0,0.2,0,0.3c0,0,0,0.1,0,0.1c0,0,0,0.1,0,0.1
			c0,0,0,0,0,0c0,0,0,0,0,0c0,0,0,0-38.2,6.2c-38.2,6.1-38.2,6.1-38.2,6.2c0,0,0,0,0,0c0,0,0,0,0,0c0,0,0,0.1,0,0.1
			c0,0.1,0,0.1,0,0.2c0,0.1,0,0.2,0.1,0.4c0,0.3,0.1,0.6,0.2,0.9c0.1,0.7,0.3,1.4,0.5,2.3c0.4,1.8,1,4,1.9,6.6
			c1.7,4.9,4.8,12.2,10.5,19.4l0,0L254.3,144.8z M255.7,166.6c-1.1,4-3,7.2-4.8,9.6c-0.9,1.2-1.9,2.2-2.9,3.1
			c-0.5,0.5-1,0.9-1.5,1.3c-0.2,0.2-0.5,0.4-0.8,0.6c-0.1,0.1-0.3,0.2-0.4,0.3c-0.1,0-0.1,0.1-0.2,0.1c0,0-0.1,0-0.1,0.1
			c0,0,0,0,0,0c0,0,0,0,0,0c0,0,0,0-23.2-31c-23.2-31-23.2-31-23.2-31c0,0,0,0,0,0c0,0,0,0,0,0c0,0-0.1,0.1-0.1,0.1
			c-0.1,0.1-0.1,0.1-0.2,0.2c-0.1,0.1-0.3,0.2-0.4,0.3c-0.3,0.2-0.6,0.5-0.9,0.7c-0.6,0.5-1.3,1.1-2.1,1.8c-1.5,1.4-3.1,3.1-4.8,5.2
			c-3.4,4.3-7,10.3-9.1,18.2l0,0L255.7,166.6z M213.6,188.6l0.3,0.1l16.4-75.7l-0.3-0.1L213.6,188.6z M190.8,128.1
			c-3.4,4.7-5.7,9.2-7.2,13.2c-0.8,2-1.3,3.8-1.7,5.5c-0.2,0.8-0.4,1.6-0.5,2.3c-0.1,0.4-0.1,0.7-0.2,1c0,0.2-0.1,0.3-0.1,0.5
			c0,0.1,0,0.2,0,0.2c0,0,0,0.1,0,0.1c0,0,0,0,0,0.1c0,0,0,0,0,0c0,0,0,0,38.3,5.7c38.3,5.7,38.3,5.7,38.3,5.7c0,0,0,0,0,0
			c0,0,0,0,0,0.1c0,0,0,0.1,0,0.1c0,0.1,0,0.1,0,0.2c0,0.1,0,0.3-0.1,0.4c0,0.3-0.1,0.6-0.2,0.9c-0.1,0.6-0.2,1.1-0.4,1.6
			c-0.3,1.1-0.6,2-0.9,3c-0.7,1.9-1.6,3.5-2.5,4.8l0,0L190.8,128.1z M219.3,156.7c35.5,15.4,35.5,15.4,35.5,15.4c0,0,0,0,0,0
			c0,0,0,0,0,0c0,0,0,0,0,0c0,0,0,0,0,0c0,0,0,0,0,0.1c0,0,0,0.1,0,0.1c0,0.1-0.1,0.1-0.1,0.2c-0.1,0.1-0.1,0.2-0.1,0.3
			c-0.1,0.2-0.1,0.3-0.2,0.4l0,0l-68.8-35.5c-0.5,0.9-0.8,1.7-1.1,2.3c-0.1,0.3-0.3,0.6-0.4,0.8c-0.1,0.1-0.1,0.2-0.1,0.3
			c0,0.1,0,0.1-0.1,0.1c0,0,0,0,0,0.1c0,0,0,0,0,0c0,0,0,0,0,0c0,0,0,0,0,0c0,0,0,0,0,0C183.8,141.4,183.8,141.4,219.3,156.7z
			 M254.1,173.8c-1,1.9-2.5,3.8-4.6,5.8l0,0l-52.7-56.7c-3.3,3-7.4,7.7-10.9,14.2l0,0L254.1,173.8z M251.6,177.4
			c0.1-0.1,0.1-0.1,0.1-0.1C251.8,177.2,251.7,177.2,251.6,177.4c0,0-0.3,0.3-0.7,0.7c-0.8,0.8-2.1,2-3.8,3.4l0,0l-47.7-61
			c-1.8,1.4-3.2,2.7-4,3.6c-0.4,0.4-0.7,0.8-0.9,0.9c-0.1,0.1-0.1,0.1-0.1,0.1c0,0,0,0,0.1-0.1l0,0L251.6,177.4z M251,178.1
			c-1,1.1-2.3,2.1-3.8,3l0,0l-40.7-65.9c-4.2,2.6-7.8,5.6-10.8,8.6l0,0L251,178.1z M247.1,181.2c-2,1.2-4.5,2.3-7.3,2.7l0,0
			l-12.5-76.4c-8,1.3-14.9,4.2-20.5,7.6l0,0L247.1,181.2z M233.5,145.7c3.7-38.5,3.7-38.5,3.7-38.5c0,0,0,0,0,0c0,0,0,0-0.1,0
			c0,0-0.1,0-0.1,0c-0.1,0-0.2,0-0.2,0c-0.2,0-0.3,0-0.5,0c-0.3,0-0.7,0-1-0.1c-0.7,0-1.5-0.1-2.3-0.1c-1.6,0-3.5,0.1-5.5,0.3
			c-4.1,0.5-8.8,1.5-14,3.5l0,0l27.8,72.3c-1.5,0.6-3.2,1-5.1,1.2c-1,0.1-2,0.2-3,0.2c-0.5,0-1.1,0-1.6,0c-0.3,0-0.6,0-0.8-0.1
			c-0.1,0-0.3,0-0.4,0c-0.1,0-0.1,0-0.2,0c0,0-0.1,0-0.1,0c0,0,0,0-0.1,0c0,0,0,0,0,0C229.8,184.2,229.8,184.2,233.5,145.7z
			 M266,149l0-0.5l-77.3-4.3l0,0.5L266,149z M227.4,146.4c24.5,30,24.5,30,24.5,30c0,0,0,0,0,0c0,0,0,0,0,0c0,0-0.1,0.1-0.1,0.1
			c-0.1,0.1-0.1,0.1-0.2,0.2c-0.1,0.1-0.3,0.2-0.4,0.3c-0.3,0.2-0.5,0.4-0.8,0.6c-0.5,0.4-1.1,0.8-1.6,1.1c-1.1,0.7-2.3,1.4-3.7,2
			c-2.8,1.2-6.3,2.3-10.5,2.4l0,0l-1.5-77.4c-8.2,0.2-14.9,2.2-19.9,4.5c-2.5,1.1-4.6,2.3-6.2,3.4c-0.8,0.5-1.6,1.1-2.3,1.6
			c-0.3,0.2-0.6,0.5-0.9,0.7c-0.1,0.1-0.3,0.2-0.4,0.3c-0.1,0.1-0.1,0.1-0.2,0.2c0,0-0.1,0.1-0.1,0.1c0,0,0,0,0,0c0,0,0,0,0,0
			C202.9,116.4,202.9,116.4,227.4,146.4z M233.8,144.4C218.6,180,218.6,180,218.6,180c0,0,0,0,0,0c0,0,0,0,0,0c0,0,0,0-0.1,0
			c0,0-0.1,0-0.1-0.1c-0.1,0-0.2-0.1-0.3-0.1c-0.2-0.1-0.3-0.1-0.4-0.2c-0.3-0.1-0.5-0.2-0.6-0.3c-0.3-0.2-0.6-0.3-0.8-0.4
			c-0.2-0.1-1.2-0.8-2.4-2.3l0,0l61-47.7c-5.6-7.2-11.9-12-16.3-14.8c-2.3-1.5-4.3-2.6-5.9-3.5c-0.8-0.4-1.5-0.8-2.1-1.1
			c-0.3-0.1-0.6-0.3-0.8-0.4c-0.1-0.1-0.2-0.1-0.4-0.2c-0.1,0-0.1,0-0.2-0.1c0,0-0.1,0-0.1,0c0,0,0,0,0,0c0,0,0,0,0,0
			C249,108.8,249,108.7,233.8,144.4z M244.3,152.6c-38.4,5.1-38.4,5.1-38.4,5.1c0,0,0,0,0,0c0,0,0-0.1,0-0.1c0-0.1,0-0.1,0-0.2
			c0-0.1,0-0.2,0-0.3c0-0.2-0.1-0.5-0.1-0.7c0-0.5-0.1-0.9-0.1-1.4c-0.1-0.9-0.1-1.9,0-3c0.1-2.1,0.3-4.5,1-7
			c1.5-5.6,4.6-11.1,9.6-15.2l0,0l49.6,59.5c8.7-7.3,13.5-16.3,15.7-24.5c1-3.9,1.4-7.4,1.5-10.3c0-1.4,0-2.8,0-3.9
			c0-0.6-0.1-1.1-0.1-1.6c0-0.3-0.1-0.5-0.1-0.7c0-0.1,0-0.2,0-0.4c0-0.1,0-0.1,0-0.2c0,0,0-0.1,0-0.1c0,0,0,0,0,0
			C282.7,147.5,282.7,147.5,244.3,152.6z"/>
	</g>
	<path class="st1" d="M209.6,155.4l24.9-19.5l16,20.5l-24.9,19.5L209.6,155.4z"/>
	<path class="st0" d="M139.4,128.8l-17.5,13.7c-1.5,1.2-1.7,3.3-0.6,4.8l0,0l13.8,17.7c1.2,1.5,3.3,1.8,4.8,0.6l0,0l14.8-11.6
		l-2.6-1.9l2.9,0.2l2.7,0.2l4.8,0.3l-18.3-23.5C143,127.9,140.9,127.6,139.4,128.8z M147.7,149.8c0,0-0.9-0.2-1.7-0.4
		c1.3-1.8,1.2-3.4,1.2-3.4c-0.3,0.8-0.6,1.4-0.9,1.9c-0.4,0.8-0.9,1.5-1.5,2c-1.1,1.2-2.3,2.1-3.4,2.6c-0.9,0.4-1.7,0.7-2.4,0.9
		c-0.4,0.1-0.8,0.2-1.3,0.3c-0.1,0-0.1,0-0.2,0c0,0-0.1,0-0.1,0c-0.3,0.1-0.5,0.1-0.5,0.1s1.4,0.6,3.5-0.2c0,0.8,0,1.8,0,1.8
		c-3,2.2-5.5,1.1-5.5,1.1c-3.3-4.2-4.1-9.1-4.1-9.1c0.8-2.9,2.6-4.2,2.6-4.2l0,0l0.3,0.1c-1.8,2.5-2.1,4.4-2.1,4.4s0.2-0.4,0.5-1
		c0.9-1.7,1.9-2.7,2.3-3.1c0.1-0.1,0.1-0.1,0.2-0.2c0.7-0.7,1.6-1.5,2.6-2.1c1.4-0.8,3-1.5,4.9-1.8c0,0-1.8-0.2-4.6,0.9l0,0l0-0.4
		c0,0,1.8-1.4,4.8-1.5c0,0,4.6,1.9,7.8,6.2C150.2,144.7,150.5,147.5,147.7,149.8z"/>
	<path class="st1" d="M139.4,128.8l-17.5,13.7c-1.5,1.2-1.7,3.3-0.6,4.8l0,0l13.8,17.7c1.2,1.5,3.3,1.8,4.8,0.6l0,0l14.8-11.6
		l-2.6-1.9l2.9,0.2l2.7,0.2l4.8,0.3l-18.3-23.5C143,127.9,140.9,127.6,139.4,128.8z M147.7,149.8c0,0-0.9-0.2-1.7-0.4
		c1.3-1.8,1.2-3.4,1.2-3.4c-0.3,0.8-0.6,1.4-0.9,1.9c-0.4,0.8-0.9,1.5-1.5,2c-1.1,1.2-2.3,2.1-3.4,2.6c-0.9,0.4-1.7,0.7-2.4,0.9
		c-0.4,0.1-0.8,0.2-1.3,0.3c-0.1,0-0.1,0-0.2,0c0,0-0.1,0-0.1,0c-0.3,0.1-0.5,0.1-0.5,0.1s1.4,0.6,3.5-0.2c0,0.8,0,1.8,0,1.8
		c-3,2.2-5.5,1.1-5.5,1.1c-3.3-4.2-4.1-9.1-4.1-9.1c0.8-2.9,2.6-4.2,2.6-4.2l0,0l0.3,0.1c-1.8,2.5-2.1,4.4-2.1,4.4s0.2-0.4,0.5-1
		c0.9-1.7,1.9-2.7,2.3-3.1c0.1-0.1,0.1-0.1,0.2-0.2c0.7-0.7,1.6-1.5,2.6-2.1c1.4-0.8,3-1.5,4.9-1.8c0,0-1.8-0.2-4.6,0.9l0,0l0-0.4
		c0,0,1.8-1.4,4.8-1.5c0,0,4.6,1.9,7.8,6.2C150.2,144.7,150.5,147.5,147.7,149.8z"/>
	<g>
		<defs>
			<path id="SVGID_5_" d="M139.4,128.8l-17.5,13.7c-1.5,1.2-1.7,3.3-0.6,4.8l0,0l13.8,17.7c1.2,1.5,3.3,1.8,4.8,0.6l0,0l14.8-11.6
				l-2.6-1.9l2.9,0.2l2.7,0.2l4.8,0.3l-18.3-23.5C143,127.9,140.9,127.6,139.4,128.8z M147.7,149.8c0,0-0.9-0.2-1.7-0.4
				c1.3-1.8,1.2-3.4,1.2-3.4c-0.3,0.8-0.6,1.4-0.9,1.9c-0.4,0.8-0.9,1.5-1.5,2c-1.1,1.2-2.3,2.1-3.4,2.6c-0.9,0.4-1.7,0.7-2.4,0.9
				c-0.4,0.1-0.8,0.2-1.3,0.3c-0.1,0-0.1,0-0.2,0c0,0-0.1,0-0.1,0c-0.3,0.1-0.5,0.1-0.5,0.1s1.4,0.6,3.5-0.2c0,0.8,0,1.8,0,1.8
				c-3,2.2-5.5,1.1-5.5,1.1c-3.3-4.2-4.1-9.1-4.1-9.1c0.8-2.9,2.6-4.2,2.6-4.2l0,0l0.3,0.1c-1.8,2.5-2.1,4.4-2.1,4.4s0.2-0.4,0.5-1
				c0.9-1.7,1.9-2.7,2.3-3.1c0.1-0.1,0.1-0.1,0.2-0.2c0.7-0.7,1.6-1.5,2.6-2.1c1.4-0.8,3-1.5,4.9-1.8c0,0-1.8-0.2-4.6,0.9l0,0l0-0.4
				c0,0,1.8-1.4,4.8-1.5c0,0,4.6,1.9,7.8,6.2C150.2,144.7,150.5,147.5,147.7,149.8z"/>
		</defs>
		<clipPath id="SVGID_6_">
			<use xlink:href="#SVGID_5_"  style="overflow:visible;"/>
		</clipPath>
		<path class="st4" d="M154.8,154l23.8,30.5l40.5-31.6l-41.6-30.2L154.8,154z M152.2,152.1l3.3-38.6L16.8,101.6l112.6,81.8
			L152.2,152.1z M155.1,152.3l-3.3,38.6l0,0l0,0L155.1,152.3z M157.8,152.6l-3.2,38.6l0.4,0l0.4,0L157.8,152.6z M162.6,152.9
			l-2.3,38.7l85.7,5.2L193.1,129L162.6,152.9z M146,149.4l-31.2-22.9l-34.3,46.8l56.3,13.7L146,149.4z M147.2,146l38.5-4.5
			l-75.2-7.9L147.2,146z M146.3,148l-33-20.3l-0.4,0.7l-0.4,0.7L146.3,148z M144.8,150l-28.6-26.1l-0.2,0.2l-0.2,0.2L144.8,150z
			 M141.4,152.6l17.6,34.5l0.1-0.1l0.1-0.1L141.4,152.6z M139.1,153.6l11.1,37.1l0,0l0,0L139.1,153.6z M137.8,153.9l2.9,38.6
			l1.5-0.1l1.5-0.2L137.8,153.9z M137.6,153.9l-2.9-38.6l-2.4,0.2l-2.4,0.5L137.6,153.9z M137.5,153.9l4.7-38.4l-5.4-0.7l-5.4,0.8
			L137.5,153.9z M137,154l-2-38.7l-11.9,74.8L137,154z M140.5,153.7l38.7,0.2l0.3-57l-53.1,20.8L140.5,153.7z M140.4,155.5
			l22.9,31.3l15.4-11.2l0.5-19L140.4,155.5z M134.9,156.6l-30.5,23.8l6.4,8.2l9.7,3.9L134.9,156.6z M130.8,147.5l-37.4-10.1l-2.2,8
			l1.3,8.2L130.8,147.5z M133.4,143.3l8.2-37.9l-17.2-3.7l-14.1,10.5L133.4,143.3z M133.7,143.3L165,166l34.7-48l-57.9-12.5
			L133.7,143.3z M131.6,147.7l-38.3-5.7l73.9,21L131.6,147.7z M132,146.8l-34.1-18.3l-0.2,0.3l-0.1,0.3L132,146.8z M134.4,143.6
			l26.4,28.4l1.1-1.1l1-1.1L134.4,143.6z M134.6,143.4l23.8,30.5l2-1.6l1.8-1.8L134.6,143.4z M137.2,141.3L117,108.3l-0.1,0l-0.1,0
			L137.2,141.3z M142.1,139.5l6.2,38.2l-2.5-76.8L142.1,139.5z M137.6,140.4l-38.7-2.1L95.6,198l55.9-21.4L137.6,140.4z M137.6,140
			l-24.5-30l-13.2,10.8l-0.9,17L137.6,140z M142.3,138.5l15.2-35.6l-7.6-3.3l-8.3,0.2L142.3,138.5z M150.2,144.7l38.4-5.1l-1.4-10.4
			l-6.5-8.3L150.2,144.7z M115.6,98.3L98,112l47.7,61l17.5-13.7L115.6,98.3z M98,112c-18.4,14.4-21.5,40.9-7.2,59.1l0,0l61-47.7
			c11.9,15.3,9.4,37.5-6.1,49.6l0,0L98,112z M90.8,171.1l13.8,17.7l61-47.7l-13.8-17.7L90.8,171.1z M104.6,188.8
			c14.3,18.2,40.7,21.7,59.1,7.3l0,0l-47.7-61c15.5-12.1,37.6-9.2,49.6,6.1l0,0L104.6,188.8z M163.8,196.1l14.8-11.6l-47.7-61
			L116.1,135L163.8,196.1z M177.5,122.6l-2.6-1.9l-45.5,62.6l2.6,1.9L177.5,122.6z M148.9,190.7l2.9,0.2l6.6-77.2l-2.9-0.2
			L148.9,190.7z M151.8,190.9l2.7,0.2L161,114l-2.7-0.2L151.8,190.9z M155.5,191.2l4.8,0.3l4.7-77.3l-4.8-0.3L155.5,191.2z
			 M193.1,129l-18.3-23.5l-61,47.7l18.3,23.5L193.1,129z M174.7,105.5c-14.3-18.2-40.7-21.7-59.1-7.3l0,0l47.7,61
			c-15.5,12.1-37.6,9.2-49.6-6.1l0,0L174.7,105.5z M147.7,149.8c8.1-37.9,8.1-37.9,8.1-37.9c0,0,0,0,0,0c0,0,0,0,0,0c0,0,0,0,0,0
			c0,0,0,0,0,0c0,0,0,0,0,0c0,0,0,0,0,0c0,0,0,0,0,0c0,0-0.1,0-0.2,0c-0.1,0-0.2,0-0.3-0.1c-0.1,0-0.1,0-0.1,0l0,0L136.9,187
			c0.8,0.2,1.5,0.3,1.9,0.4c0.2,0.1,0.4,0.1,0.6,0.1c0.1,0,0.1,0,0.2,0c0,0,0,0,0.1,0c0,0,0,0,0,0c0,0,0,0,0,0c0,0,0,0,0,0
			c0,0,0,0,0,0c0,0,0,0,0,0C139.6,187.7,139.6,187.7,147.7,149.8z M177.3,172.3c4.4-6.1,6.8-12.4,7.9-17.9c0.5-2.7,0.7-5.2,0.8-7.3
			c0-1.1,0-2.1,0-3c0-0.5-0.1-0.9-0.1-1.3c0-0.2,0-0.4-0.1-0.6c0-0.1,0-0.2,0-0.3c0,0,0-0.1,0-0.1c0,0,0,0,0-0.1c0,0,0,0,0,0
			c0,0,0,0-38.5,4.4c-38.5,4.5-38.5,4.5-38.5,4.4c0,0,0,0,0,0c0,0,0,0,0-0.1c0,0,0-0.1,0-0.1c0-0.1,0-0.2,0-0.3c0-0.2,0-0.4-0.1-0.6
			c0-0.4-0.1-0.8-0.1-1.2c0-0.8-0.1-1.7,0-2.6c0-1.8,0.2-3.7,0.6-5.8c0.8-4.3,2.6-8.9,5.7-13.1l0,0L177.3,172.3z M110.5,133.7
			c0.7-2,1.6-4,2.8-6l0,0l66,40.6c1.9-3,3.4-6.3,4.6-9.9l0,0L110.5,133.7z M112.5,129.1c0.9-1.6,2.1-3.4,3.7-5.1l0,0l57.3,52.2
			c2.7-2.9,4.9-6,6.6-9.2l0,0L112.5,129.1z M115.8,124.4c2.7-3,5.6-5,7.8-6.1l0,0l35.7,68.7c4.5-2.3,9.8-5.9,14.6-11.4l0,0
			L115.8,124.4z M123.8,118.2c1.7-0.9,3.2-1.4,4.1-1.7l0,0l22.2,74.2c2.4-0.7,5.5-1.8,8.9-3.6l0,0L123.8,118.2z M128,116.5
			c0.7-0.2,2.1-0.6,3.9-0.9l0,0l11.8,76.5c2.8-0.4,5-1,6.5-1.5l0,0L128,116.5z M134.8,115.3c-1.5,0.1-2.7,0.3-3.6,0.4
			c-0.2,0-0.4,0.1-0.6,0.1c-0.2,0-0.3,0.1-0.4,0.1c-0.1,0-0.2,0-0.2,0c0,0-0.1,0-0.1,0c0,0,0,0,0,0c0,0,0,0,0.1,0c0,0,0.1,0,0.2,0
			c0.1,0,0.2,0,0.4-0.1c0.2,0,0.3-0.1,0.5-0.1c0.8-0.1,2-0.3,3.5-0.4l0,0l5.8,77.2c1.5-0.1,2.7-0.3,3.6-0.4c0.2,0,0.4-0.1,0.6-0.1
			c0.2,0,0.3-0.1,0.4-0.1c0.1,0,0.2,0,0.2,0c0,0,0.1,0,0.1,0c0,0,0,0,0,0c0,0,0,0-0.1,0c0,0-0.1,0-0.2,0c-0.1,0-0.2,0-0.4,0.1
			c-0.2,0-0.3,0.1-0.5,0.1c-0.8,0.1-2,0.3-3.5,0.4l0,0L134.8,115.3z M129.9,116c2.7-0.5,5.4-0.8,8.1-0.8c2.4,0,4.4,0.3,4.2,0.3l0,0
			l-9.4,76.9c1.1,0.1,6.2,0.8,12.5-0.5l0,0L129.9,116z M131.5,115.7c0.6-0.1,1.2-0.2,1.8-0.2c0.3,0,0.6-0.1,0.8-0.1
			c0.1,0,0.3,0,0.4,0c0.1,0,0.1,0,0.2,0c0,0,0.1,0,0.1,0c0,0,0,0,0.1,0c0,0,0,0,0,0c0,0,0,0,0,0c0,0,0,0,0,0c0,0,0,0,2,38.7
			c2,38.7,2,38.7,2,38.7c0,0,0,0,0,0c0,0,0,0,0,0c0,0,0,0,0,0c0,0,0,0,0.1,0c0,0,0.1,0,0.1,0c0.1,0,0.1,0,0.2,0c0.2,0,0.3,0,0.5,0
			c0.3,0,0.7-0.1,1.1-0.1c0.8-0.1,1.6-0.2,2.6-0.3l0,0L131.5,115.7z M137,154c-13.9,36.1-13.9,36.2-13.9,36.2c0,0,0,0,0,0
			c0,0,0,0,0.1,0c0,0,0.1,0,0.1,0.1c0.1,0,0.2,0.1,0.3,0.1c0.2,0.1,0.4,0.1,0.6,0.2c0.4,0.1,0.8,0.3,1.3,0.4
			c0.9,0.3,1.8,0.5,2.9,0.8c2.1,0.5,4.5,0.9,7.2,1.1c5.5,0.3,12.1-0.3,19-3l0,0l-28.2-72.1c4.9-1.9,9.7-2.4,14-2.2
			c2.1,0.1,4,0.4,5.8,0.9c0.9,0.2,1.7,0.4,2.5,0.7c0.4,0.1,0.8,0.3,1.2,0.4c0.2,0.1,0.4,0.1,0.6,0.2c0.1,0,0.2,0.1,0.3,0.1
			c0,0,0.1,0,0.1,0.1c0,0,0,0,0.1,0c0,0,0,0,0,0C150.9,117.8,150.9,117.8,137,154z M101.7,153.5c0,0.1,0,0.4,0,0.6
			c0,0.1,0,0.2,0,0.3c0,0,0,0.1,0,0.1c0,0,0,0,0,0c0,0,0,0,0,0c0,0,0,0,0,0c0,0,0,0,0,0c0,0,0,0,0,0c0,0,0,0,0,0c0,0,0,0,38.7,1
			c38.7,1,38.7,1,38.7,1c0,0,0,0,0,0c0,0,0,0,0,0s0,0,0,0c0,0,0,0,0,0c0,0,0,0,0,0c0,0,0,0,0-0.1c0,0,0-0.1,0-0.2c0-0.1,0-0.3,0-0.6
			c0-0.4,0-1.1,0-1.7l0,0L101.7,153.5z M117.6,124.3c5.7-4.2,12.4-6,18.5-6.1c2.9,0,5.4,0.3,7.5,0.8c1.1,0.2,2.1,0.5,3,0.8
			c0.5,0.1,0.9,0.3,1.4,0.5c0.2,0.1,0.4,0.2,0.7,0.2c0.1,0,0.2,0.1,0.3,0.1c0.1,0,0.1,0,0.2,0.1c0,0,0.1,0,0.1,0c0,0,0,0,0,0
			c0,0,0,0-14.4,35.9c-14.5,35.9-14.4,35.9-14.4,35.9c0,0,0,0,0,0c0,0,0.1,0,0.1,0c0.1,0,0.1,0,0.2,0.1c0.1,0,0.2,0.1,0.3,0.1
			c0.2,0.1,0.5,0.2,0.7,0.3c0.5,0.2,1,0.3,1.5,0.5c1.1,0.3,2.3,0.7,3.7,1c2.7,0.6,6.1,1.1,10,1c8.2-0.1,17.6-2.5,26.3-8.8l0,0
			L117.6,124.3z M165.4,132.8c1.8,2.3,2.5,4.2,2.8,5c0.2,0.5,0.3,1,0.5,1.6c0.1,0.3,0.1,0.6,0.2,0.9c0,0.2,0.1,0.3,0.1,0.5
			c0,0.1,0,0.2,0,0.3c0,0,0,0.1,0,0.1c0,0,0,0.1,0,0.1c0,0,0,0,0,0c0,0,0,0,0,0c0,0,0,0-38.2,6.2c-38.2,6.1-38.2,6.1-38.2,6.2
			c0,0,0,0,0,0c0,0,0,0,0,0c0,0,0,0.1,0,0.1c0,0.1,0,0.1,0,0.2c0,0.1,0,0.2,0.1,0.4c0,0.3,0.1,0.5,0.2,0.8c0.1,0.6,0.3,1.3,0.5,2.1
			c0.4,1.6,0.9,3.6,1.7,5.9c1.5,4.3,4.3,10.8,9.3,17.3l0,0L165.4,132.8z M168.2,157.6c-1.2,4.5-3.3,8.1-5.4,10.7
			c-1,1.3-2.1,2.4-3.1,3.4c-0.5,0.5-1,0.9-1.5,1.4c-0.3,0.2-0.5,0.4-0.8,0.6c-0.1,0.1-0.3,0.2-0.4,0.3c-0.1,0-0.1,0.1-0.2,0.1
			c0,0-0.1,0-0.1,0.1c0,0,0,0,0,0c0,0,0,0,0,0c0,0,0,0-23.2-31c-23.2-31-23.2-31-23.2-31c0,0,0,0,0,0c0,0,0,0,0,0
			c0,0-0.1,0.1-0.1,0.1c-0.1,0.1-0.1,0.1-0.2,0.2c-0.1,0.1-0.3,0.2-0.4,0.3c-0.3,0.2-0.6,0.5-0.9,0.7c-0.6,0.5-1.3,1.1-2,1.8
			c-1.4,1.3-3,3-4.5,5c-3.2,4-6.6,9.7-8.6,17.1l0,0L168.2,157.6z M125.2,181.1l0.3,0.1l16.4-75.7l-0.3-0.1L125.2,181.1z
			 M102.3,120.6c-3.1,4.2-5.2,8.4-6.6,12.1c-0.7,1.9-1.2,3.6-1.6,5.1c-0.2,0.8-0.4,1.5-0.5,2.2c-0.1,0.3-0.1,0.7-0.2,1
			c0,0.2-0.1,0.3-0.1,0.5c0,0.1,0,0.2,0,0.2c0,0,0,0.1,0,0.1c0,0,0,0,0,0.1c0,0,0,0,0,0c0,0,0,0,38.3,5.7
			c38.3,5.7,38.3,5.7,38.3,5.7c0,0,0,0,0,0c0,0,0,0,0,0.1c0,0,0,0.1,0,0.1c0,0.1,0,0.1,0,0.2c0,0.1,0,0.3-0.1,0.4
			c-0.1,0.3-0.1,0.6-0.2,0.9c-0.1,0.6-0.2,1.2-0.4,1.7c-0.3,1.1-0.6,2.2-1,3.3c-0.8,2.2-1.9,4.1-3.1,5.8l0,0L102.3,120.6z
			 M131.6,147.7c35.5,15.4,35.5,15.4,35.5,15.4c0,0,0,0,0,0c0,0,0,0,0,0c0,0,0,0,0,0c0,0,0,0,0,0c0,0,0,0,0,0.1c0,0,0,0.1-0.1,0.1
			c0,0.1-0.1,0.1-0.1,0.2c-0.1,0.1-0.1,0.3-0.2,0.4c-0.1,0.2-0.2,0.4-0.3,0.6l0,0L97.6,129c-0.4,0.8-0.7,1.5-1,2
			c-0.1,0.3-0.3,0.5-0.4,0.8c-0.1,0.1-0.1,0.2-0.1,0.3c0,0,0,0.1-0.1,0.1c0,0,0,0,0,0.1c0,0,0,0,0,0c0,0,0,0,0,0c0,0,0,0,0,0
			c0,0,0,0,0,0C96,132.4,96,132.4,131.6,147.7z M166.1,165.1c-1.4,2.5-3.2,4.8-5.4,6.9l0,0L108,115.3c-3.1,2.9-6.9,7.2-10.1,13.2
			l0,0L166.1,165.1z M162.9,169.8c0.1-0.1,0.1-0.1,0.1-0.1C163,169.7,163,169.7,162.9,169.8c0,0-0.3,0.3-0.7,0.7
			c-0.8,0.8-2.1,2.1-3.8,3.4l0,0l-47.7-61c-1.8,1.4-3.1,2.7-4,3.6c-0.4,0.4-0.7,0.7-0.8,0.9c0,0-0.1,0.1-0.1,0.1c0,0,0,0,0,0
			c0,0,0,0,0.1-0.1l0,0L162.9,169.8z M162.2,170.6c-1.3,1.3-2.8,2.6-4.7,3.7l0,0l-40.7-65.9c-3.9,2.4-7.2,5.1-9.9,7.9l0,0
			L162.2,170.6z M157.4,174.4c-2.5,1.5-5.5,2.8-9,3.3l0,0l-12.5-76.4c-7.4,1.2-13.7,3.8-18.9,7l0,0L157.4,174.4z M142.1,139.5
			c3.7-38.5,3.7-38.5,3.7-38.5c0,0,0,0,0,0c0,0,0,0-0.1,0c0,0-0.1,0-0.1,0c-0.1,0-0.2,0-0.2,0c-0.2,0-0.3,0-0.5,0
			c-0.3,0-0.6,0-1-0.1c-0.7,0-1.4-0.1-2.2-0.1c-1.5,0-3.3,0.1-5.2,0.3c-3.8,0.4-8.2,1.4-12.9,3.2l0,0l27.8,72.3
			c-1.9,0.7-4,1.2-6.3,1.5c-1.1,0.1-2.2,0.2-3.3,0.2c-0.6,0-1.1,0-1.7,0c-0.3,0-0.6,0-0.9-0.1c-0.1,0-0.3,0-0.4,0
			c-0.1,0-0.1,0-0.2,0c0,0-0.1,0-0.1,0c0,0,0,0-0.1,0c0,0,0,0,0,0C138.4,178.1,138.4,178.1,142.1,139.5z M176.2,142.5l0-0.4
			l-77.3-4.3l0,0.4L176.2,142.5z M137.6,140c24.5,30,24.5,30,24.5,30c0,0,0,0,0,0c0,0,0,0,0,0c0,0-0.1,0.1-0.1,0.1
			c-0.1,0.1-0.1,0.1-0.2,0.2c-0.1,0.1-0.3,0.2-0.4,0.3c-0.3,0.2-0.5,0.4-0.8,0.6c-0.5,0.4-1.1,0.8-1.7,1.2c-1.2,0.8-2.5,1.5-4,2.2
			c-3,1.4-7,2.6-11.7,2.6l0,0l-1.5-77.4c-7.6,0.2-14,2.1-18.7,4.2c-2.3,1.1-4.3,2.2-5.9,3.2c-0.8,0.5-1.5,1-2.2,1.5
			c-0.3,0.2-0.6,0.5-0.9,0.7c-0.1,0.1-0.3,0.2-0.4,0.3c-0.1,0.1-0.1,0.1-0.2,0.2c0,0-0.1,0.1-0.1,0.1c0,0,0,0,0,0c0,0,0,0,0,0
			C113.1,110,113.1,110.1,137.6,140z M142.3,138.5c-15.2,35.6-15.2,35.6-15.2,35.6c0,0,0,0,0,0c0,0,0,0,0,0c0,0,0,0-0.1,0
			c0,0-0.1,0-0.1-0.1c-0.1,0-0.2-0.1-0.3-0.1c-0.2-0.1-0.3-0.2-0.5-0.2c-0.3-0.1-0.6-0.3-0.8-0.4c-0.5-0.3-1-0.5-1.4-0.8
			c-0.7-0.5-2.4-1.7-4.2-3.9l0,0l61-47.7c-5.1-6.5-10.6-10.7-14.5-13.2c-2-1.3-3.8-2.3-5.3-3.1c-0.7-0.4-1.4-0.7-2-1
			c-0.3-0.1-0.5-0.3-0.8-0.4c-0.1-0.1-0.2-0.1-0.3-0.2c-0.1,0-0.1,0-0.2-0.1c0,0-0.1,0-0.1,0c0,0,0,0,0,0c0,0,0,0,0,0
			C157.5,102.9,157.5,102.9,142.3,138.5z M150.2,144.7c-38.4,5.1-38.4,5.1-38.4,5.1c0,0,0,0,0,0c0,0,0-0.1,0-0.1c0-0.1,0-0.1,0-0.2
			c0-0.1,0-0.2,0-0.3c0-0.2-0.1-0.5-0.1-0.7c0-0.5-0.1-0.9-0.1-1.4c-0.1-1-0.1-2,0-3.1c0.1-2.2,0.4-4.7,1.1-7.4
			c1.6-5.9,4.9-11.9,10.4-16.4l0,0l49.6,59.5c8.3-6.9,12.9-15.4,14.9-23.3c1-3.7,1.4-7.1,1.4-9.9c0-1.4,0-2.7,0-3.8
			c0-0.6-0.1-1.1-0.1-1.6c0-0.3-0.1-0.5-0.1-0.7c0-0.1,0-0.2,0-0.4c0-0.1,0-0.1,0-0.2c0,0,0-0.1,0-0.1c0,0,0,0,0,0
			C188.6,139.6,188.6,139.6,150.2,144.7z"/>
	</g>
	<path class="st1" d="M124.3,146.7l18.5-14.5l11.9,15.3L136.2,162L124.3,146.7z"/>
	<path class="st0" d="M211.4,8l-17.5,13.7c-1.5,1.2-1.7,3.3-0.6,4.8l0,0l13.8,17.7c1.2,1.5,3.3,1.8,4.8,0.6l0,0l14.8-11.6l-2.6-1.9
		l2.9,0.2l2.7,0.2l4.8,0.3L216.2,8.6C215,7.1,212.9,6.8,211.4,8z M219.7,29c0,0-0.9-0.2-1.7-0.4c1.3-1.8,1.2-3.4,1.2-3.4
		c-0.3,0.8-0.6,1.4-0.9,1.9c-0.4,0.8-0.9,1.5-1.5,2c-1.1,1.2-2.3,2.1-3.4,2.6c-0.9,0.4-1.7,0.7-2.4,0.9c-0.4,0.1-0.8,0.2-1.3,0.3
		c-0.1,0-0.1,0-0.2,0c0,0-0.1,0-0.1,0c-0.3,0.1-0.5,0.1-0.5,0.1s1.4,0.6,3.5-0.2c0,0.8,0,1.8,0,1.8c-3,2.2-5.5,1.1-5.5,1.1
		c-3.3-4.2-4.1-9.1-4.1-9.1c0.8-2.9,2.6-4.2,2.6-4.2l0,0l0.3,0.1c-1.8,2.5-2.1,4.4-2.1,4.4s0.2-0.4,0.5-1c0.9-1.7,1.9-2.7,2.3-3.1
		c0.1-0.1,0.1-0.1,0.2-0.2c0.7-0.7,1.6-1.5,2.6-2.1c1.4-0.8,3-1.5,4.9-1.8c0,0-1.8-0.2-4.6,0.9l0,0l0-0.4c0,0,1.8-1.4,4.8-1.5
		c0,0,4.6,1.9,7.8,6.2C222.2,23.9,222.5,26.7,219.7,29z"/>
	<path class="st1" d="M211.4,8l-17.5,13.7c-1.5,1.2-1.7,3.3-0.6,4.8l0,0l13.8,17.7c1.2,1.5,3.3,1.8,4.8,0.6l0,0l14.8-11.6l-2.6-1.9
		l2.9,0.2l2.7,0.2l4.8,0.3L216.2,8.6C215,7.1,212.9,6.8,211.4,8z M219.7,29c0,0-0.9-0.2-1.7-0.4c1.3-1.8,1.2-3.4,1.2-3.4
		c-0.3,0.8-0.6,1.4-0.9,1.9c-0.4,0.8-0.9,1.5-1.5,2c-1.1,1.2-2.3,2.1-3.4,2.6c-0.9,0.4-1.7,0.7-2.4,0.9c-0.4,0.1-0.8,0.2-1.3,0.3
		c-0.1,0-0.1,0-0.2,0c0,0-0.1,0-0.1,0c-0.3,0.1-0.5,0.1-0.5,0.1s1.4,0.6,3.5-0.2c0,0.8,0,1.8,0,1.8c-3,2.2-5.5,1.1-5.5,1.1
		c-3.3-4.2-4.1-9.1-4.1-9.1c0.8-2.9,2.6-4.2,2.6-4.2l0,0l0.3,0.1c-1.8,2.5-2.1,4.4-2.1,4.4s0.2-0.4,0.5-1c0.9-1.7,1.9-2.7,2.3-3.1
		c0.1-0.1,0.1-0.1,0.2-0.2c0.7-0.7,1.6-1.5,2.6-2.1c1.4-0.8,3-1.5,4.9-1.8c0,0-1.8-0.2-4.6,0.9l0,0l0-0.4c0,0,1.8-1.4,4.8-1.5
		c0,0,4.6,1.9,7.8,6.2C222.2,23.9,222.5,26.7,219.7,29z"/>
	<g>
		<defs>
			<path id="SVGID_7_" d="M211.4,8l-17.5,13.7c-1.5,1.2-1.7,3.3-0.6,4.8l0,0l13.8,17.7c1.2,1.5,3.3,1.8,4.8,0.6l0,0l14.8-11.6
				l-2.6-1.9l2.9,0.2l2.7,0.2l4.8,0.3L216.2,8.6C215,7.1,212.9,6.8,211.4,8z M219.7,29c0,0-0.9-0.2-1.7-0.4c1.3-1.8,1.2-3.4,1.2-3.4
				c-0.3,0.8-0.6,1.4-0.9,1.9c-0.4,0.8-0.9,1.5-1.5,2c-1.1,1.2-2.3,2.1-3.4,2.6c-0.9,0.4-1.7,0.7-2.4,0.9c-0.4,0.1-0.8,0.2-1.3,0.3
				c-0.1,0-0.1,0-0.2,0c0,0-0.1,0-0.1,0c-0.3,0.1-0.5,0.1-0.5,0.1s1.4,0.6,3.5-0.2c0,0.8,0,1.8,0,1.8c-3,2.2-5.5,1.1-5.5,1.1
				c-3.3-4.2-4.1-9.1-4.1-9.1c0.8-2.9,2.6-4.2,2.6-4.2l0,0l0.3,0.1c-1.8,2.5-2.1,4.4-2.1,4.4s0.2-0.4,0.5-1c0.9-1.7,1.9-2.7,2.3-3.1
				c0.1-0.1,0.1-0.1,0.2-0.2c0.7-0.7,1.6-1.5,2.6-2.1c1.4-0.8,3-1.5,4.9-1.8c0,0-1.8-0.2-4.6,0.9l0,0l0-0.4c0,0,1.8-1.4,4.8-1.5
				c0,0,4.6,1.9,7.8,6.2C222.2,23.9,222.5,26.7,219.7,29z"/>
		</defs>
		<clipPath id="SVGID_8_">
			<use xlink:href="#SVGID_7_"  style="overflow:visible;"/>
		</clipPath>
		<path class="st5" d="M226.8,33.2l23.8,30.5l40.5-31.6L249.5,1.9L226.8,33.2z M224.2,31.3l3.3-38.6L88.8-19.2l112.6,81.8
			L224.2,31.3z M227.1,31.5l-3.3,38.6l0,0l0,0L227.1,31.5z M229.8,31.8l-3.2,38.6l0.4,0l0.4,0L229.8,31.8z M234.5,32.1l-2.3,38.7
			l85.7,5.2L265.1,8.2L234.5,32.1z M218,28.6L186.8,5.8l-34.3,46.8l56.3,13.7L218,28.6z M219.2,25.2l38.5-4.5l-75.2-7.9L219.2,25.2z
			 M218.3,27.2l-33-20.3l-0.4,0.7l-0.4,0.7L218.3,27.2z M216.8,29.2L188.2,3.1L188,3.4l-0.2,0.2L216.8,29.2z M213.4,31.9L231,66.3
			l0.1-0.1l0.1-0.1L213.4,31.9z M211.1,32.8l11.1,37.1l0,0l0,0L211.1,32.8z M209.8,33.1l2.9,38.6l1.5-0.1l1.5-0.2L209.8,33.1z
			 M209.6,33.1l-2.9-38.6l-2.4,0.2l-2.4,0.5L209.6,33.1z M209.5,33.1l4.7-38.4L208.8-6l-5.4,0.8L209.5,33.1z M209,33.2l-2-38.7
			l-11.9,74.8L209,33.2z M212.5,32.9l38.7,0.2l0.3-57L198.4-3.1L212.5,32.9z M212.4,34.7L235.3,66l15.4-11.2l0.5-19L212.4,34.7z
			 M206.9,35.8l-30.5,23.8l6.4,8.2l9.7,3.9L206.9,35.8z M202.8,26.7l-37.4-10.1l-2.2,8l1.3,8.2L202.8,26.7z M205.4,22.5l8.2-37.9
			l-17.2-3.7L182.2-8.5L205.4,22.5z M205.7,22.6L237,45.3l34.7-48l-57.9-12.5L205.7,22.6z M203.6,27l-38.3-5.7l73.9,21L203.6,27z
			 M204,26L169.9,7.6l-0.2,0.3l-0.1,0.3L204,26z M206.4,22.8l26.4,28.4l1.1-1.1l1-1.1L206.4,22.8z M206.6,22.6l23.8,30.5l2-1.6
			l1.8-1.8L206.6,22.6z M209.2,20.5L189-12.5l-0.1,0l-0.1,0L209.2,20.5z M214.1,18.7l6.2,38.2l-2.5-76.8L214.1,18.7z M209.5,19.6
			l-38.7-2.1l-3.3,59.7l55.9-21.4L209.5,19.6z M209.6,19.2l-24.5-30L171.9,0.1l-0.9,17L209.6,19.2z M214.3,17.7l15.2-35.6l-7.6-3.3
			l-8.3,0.2L214.3,17.7z M222.2,23.9l38.4-5.1l-1.4-10.4l-6.5-8.3L222.2,23.9z M187.6-22.5L170-8.8l47.7,61l17.5-13.7L187.6-22.5z
			 M170-8.8c-18.4,14.4-21.5,40.9-7.2,59.1l0,0l61-47.7c11.9,15.3,9.4,37.5-6.1,49.6l0,0L170-8.8z M162.8,50.3L176.6,68l61-47.7
			L223.8,2.6L162.8,50.3z M176.6,68c14.3,18.2,40.7,21.7,59.1,7.3l0,0l-47.7-61c15.5-12.1,37.6-9.2,49.6,6.1l0,0L176.6,68z
			 M235.8,75.3l14.8-11.6l-47.7-61l-14.8,11.6L235.8,75.3z M249.5,1.9L246.9,0l-45.5,62.6l2.6,1.9L249.5,1.9z M220.9,69.9l2.9,0.2
			L230.4-7l-2.9-0.2L220.9,69.9z M223.8,70.1l2.7,0.2L233-6.8L230.3-7L223.8,70.1z M227.5,70.4l4.8,0.3l4.7-77.3l-4.8-0.3
			L227.5,70.4z M265.1,8.2l-18.3-23.5l-61,47.7L204,55.9L265.1,8.2z M246.7-15.3c-14.3-18.2-40.7-21.7-59.1-7.3l0,0l47.7,61
			c-15.5,12.1-37.6,9.2-49.6-6.1l0,0L246.7-15.3z M219.7,29c8.1-37.9,8.1-37.9,8.1-37.9c0,0,0,0,0,0c0,0,0,0,0,0c0,0,0,0,0,0
			c0,0,0,0,0,0c0,0,0,0,0,0c0,0,0,0,0,0c0,0,0,0,0,0c0,0-0.1,0-0.2,0c-0.1,0-0.2,0-0.3-0.1c-0.1,0-0.1,0-0.1,0l0,0l-18.3,75.2
			c0.8,0.2,1.5,0.3,1.9,0.4c0.2,0.1,0.4,0.1,0.6,0.1c0.1,0,0.1,0,0.2,0c0,0,0,0,0.1,0c0,0,0,0,0,0c0,0,0,0,0,0c0,0,0,0,0,0
			c0,0,0,0,0,0c0,0,0,0,0,0C211.6,66.9,211.6,66.9,219.7,29z M249.3,51.5c4.4-6.1,6.8-12.4,7.9-17.9c0.5-2.7,0.7-5.2,0.8-7.3
			c0-1.1,0-2.1,0-3c0-0.5-0.1-0.9-0.1-1.3c0-0.2,0-0.4-0.1-0.6c0-0.1,0-0.2,0-0.3c0,0,0-0.1,0-0.1c0,0,0,0,0-0.1c0,0,0,0,0,0
			c0,0,0,0-38.5,4.4c-38.5,4.5-38.5,4.5-38.5,4.4c0,0,0,0,0,0c0,0,0,0,0-0.1c0,0,0-0.1,0-0.1c0-0.1,0-0.2,0-0.3c0-0.2,0-0.4-0.1-0.6
			c0-0.4-0.1-0.8-0.1-1.2c0-0.8-0.1-1.7,0-2.6c0-1.8,0.2-3.7,0.6-5.8c0.8-4.3,2.6-8.9,5.7-13.1l0,0L249.3,51.5z M182.5,12.9
			c0.7-2,1.6-4,2.8-6l0,0l66,40.6c1.9-3,3.4-6.3,4.6-9.9l0,0L182.5,12.9z M184.5,8.3c0.9-1.6,2.1-3.4,3.7-5.1l0,0l57.3,52.2
			c2.7-2.9,4.9-6,6.6-9.2l0,0L184.5,8.3z M187.8,3.6c2.7-3,5.6-5,7.8-6.1l0,0l35.7,68.7c4.5-2.3,9.8-5.9,14.6-11.4l0,0L187.8,3.6z
			 M195.8-2.6c1.7-0.9,3.2-1.4,4.1-1.7l0,0l22.2,74.2c2.4-0.7,5.5-1.8,8.9-3.6l0,0L195.8-2.6z M200-4.3c0.7-0.2,2.1-0.6,3.9-0.9l0,0
			l11.8,76.5c2.8-0.4,5-1,6.5-1.5l0,0L200-4.3z M206.8-5.5c-1.5,0.1-2.7,0.3-3.6,0.4c-0.2,0-0.4,0.1-0.6,0.1c-0.2,0-0.3,0.1-0.4,0.1
			c-0.1,0-0.2,0-0.2,0c0,0,0,0-0.1,0c0,0,0,0,0,0c0,0,0,0,0.1,0c0,0,0.1,0,0.2,0c0.1,0,0.2,0,0.4-0.1c0.2,0,0.3-0.1,0.5-0.1
			c0.8-0.1,2-0.3,3.5-0.4l0,0l5.8,77.2c1.5-0.1,2.7-0.3,3.6-0.4c0.2,0,0.4-0.1,0.6-0.1c0.2,0,0.3-0.1,0.4-0.1c0.1,0,0.2,0,0.2,0
			c0,0,0,0,0.1,0c0,0,0,0,0,0c0,0,0,0-0.1,0c0,0-0.1,0-0.2,0c-0.1,0-0.2,0-0.4,0.1c-0.2,0-0.3,0.1-0.5,0.1c-0.8,0.1-2,0.3-3.5,0.4
			l0,0L206.8-5.5z M201.9-4.8c2.7-0.5,5.4-0.8,8.1-0.8c2.4,0,4.4,0.3,4.2,0.3l0,0l-9.4,76.9c1.1,0.1,6.2,0.8,12.5-0.5l0,0L201.9-4.8
			z M203.5-5.1c0.6-0.1,1.2-0.2,1.8-0.2c0.3,0,0.6-0.1,0.8-0.1c0.1,0,0.3,0,0.4,0c0.1,0,0.1,0,0.2,0c0,0,0.1,0,0.1,0c0,0,0,0,0.1,0
			c0,0,0,0,0,0c0,0,0,0,0,0c0,0,0,0,0,0c0,0,0,0,2,38.7c2,38.7,2,38.7,2,38.7c0,0,0,0,0,0c0,0,0,0,0,0c0,0,0,0,0,0c0,0,0,0,0.1,0
			c0,0,0.1,0,0.1,0c0.1,0,0.1,0,0.2,0c0.2,0,0.3,0,0.5,0c0.3,0,0.7-0.1,1.1-0.1c0.7-0.1,1.6-0.2,2.6-0.3l0,0L203.5-5.1z M209,33.2
			c-13.9,36.1-13.9,36.2-13.9,36.2c0,0,0,0,0,0c0,0,0,0,0.1,0c0,0,0.1,0,0.1,0.1c0.1,0,0.2,0.1,0.3,0.1c0.2,0.1,0.4,0.1,0.6,0.2
			c0.4,0.1,0.8,0.3,1.3,0.4c0.9,0.3,1.8,0.5,2.9,0.8c2.1,0.5,4.5,0.9,7.2,1.1c5.5,0.3,12.1-0.3,19-3l0,0L198.4-3.1
			c4.9-1.9,9.7-2.4,14-2.2c2.1,0.1,4,0.5,5.8,0.9c0.9,0.2,1.7,0.4,2.5,0.7c0.4,0.1,0.8,0.3,1.2,0.4c0.2,0.1,0.4,0.1,0.6,0.2
			c0.1,0,0.2,0.1,0.3,0.1c0,0,0.1,0,0.1,0.1c0,0,0,0,0.1,0c0,0,0,0,0,0C222.8-3,222.9-3,209,33.2z M173.7,32.8c0,0.1,0,0.4,0,0.6
			c0,0.1,0,0.2,0,0.3c0,0,0,0.1,0,0.1c0,0,0,0,0,0c0,0,0,0,0,0c0,0,0,0,0,0c0,0,0,0,0,0c0,0,0,0,0,0c0,0,0,0,0,0c0,0,0,0,38.7,1
			c38.7,1,38.7,1,38.7,1c0,0,0,0,0,0c0,0,0,0,0,0c0,0,0,0,0,0c0,0,0,0,0,0c0,0,0,0,0,0c0,0,0,0,0-0.1c0,0,0-0.1,0-0.2
			c0-0.1,0-0.3,0-0.6c0-0.4,0-1.1,0-1.7l0,0L173.7,32.8z M189.6,3.5c5.7-4.2,12.4-6,18.5-6.1c2.9,0,5.4,0.3,7.5,0.8
			c1.1,0.2,2.1,0.5,3,0.8c0.5,0.1,0.9,0.3,1.4,0.5c0.2,0.1,0.4,0.2,0.7,0.2c0.1,0,0.2,0.1,0.3,0.1c0.1,0,0.1,0,0.2,0.1
			c0,0,0.1,0,0.1,0c0,0,0,0,0,0c0,0,0,0-14.4,35.9c-14.5,35.9-14.4,35.9-14.4,35.9c0,0,0,0,0,0c0,0,0.1,0,0.1,0c0.1,0,0.1,0,0.2,0.1
			c0.1,0,0.2,0.1,0.3,0.1c0.2,0.1,0.5,0.2,0.7,0.3c0.5,0.2,1,0.3,1.5,0.5c1.1,0.3,2.3,0.7,3.7,1c2.7,0.6,6.1,1.1,10,1
			c8.2-0.1,17.6-2.5,26.3-8.8l0,0L189.6,3.5z M237.4,12c1.8,2.3,2.5,4.2,2.8,5c0.2,0.5,0.3,1,0.5,1.6c0.1,0.3,0.1,0.6,0.2,0.9
			c0,0.2,0.1,0.3,0.1,0.5c0,0.1,0,0.2,0,0.3c0,0,0,0.1,0,0.1c0,0,0,0.1,0,0.1c0,0,0,0,0,0c0,0,0,0,0,0c0,0,0,0-38.2,6.2
			c-38.2,6.1-38.2,6.1-38.2,6.2c0,0,0,0,0,0c0,0,0,0,0,0c0,0,0,0.1,0,0.1c0,0.1,0,0.1,0,0.2c0,0.1,0,0.2,0.1,0.4
			c0,0.3,0.1,0.5,0.2,0.8c0.1,0.6,0.3,1.3,0.5,2.1c0.4,1.6,0.9,3.6,1.7,5.9c1.5,4.3,4.3,10.8,9.3,17.3l0,0L237.4,12z M240.2,36.9
			c-1.2,4.5-3.3,8.1-5.4,10.7c-1,1.3-2.1,2.4-3.1,3.4c-0.5,0.5-1,0.9-1.5,1.4c-0.3,0.2-0.5,0.4-0.8,0.6c-0.1,0.1-0.3,0.2-0.4,0.3
			c-0.1,0-0.1,0.1-0.2,0.1c0,0-0.1,0-0.1,0.1c0,0,0,0,0,0c0,0,0,0,0,0c0,0,0,0-23.2-31c-23.2-31-23.2-31-23.2-31c0,0,0,0,0,0
			c0,0,0,0,0,0c0,0-0.1,0.1-0.1,0.1c-0.1,0.1-0.1,0.1-0.2,0.2c-0.1,0.1-0.3,0.2-0.4,0.3c-0.3,0.2-0.6,0.5-0.9,0.7
			c-0.6,0.5-1.3,1.1-2,1.8c-1.4,1.3-3,3-4.5,5c-3.2,4-6.6,9.7-8.6,17.1l0,0L240.2,36.9z M197.2,60.3l0.3,0.1l16.4-75.7l-0.3-0.1
			L197.2,60.3z M174.3-0.1c-3.1,4.2-5.2,8.4-6.6,12.1c-0.7,1.9-1.2,3.6-1.6,5.1c-0.2,0.8-0.4,1.5-0.5,2.2c-0.1,0.3-0.1,0.7-0.2,1
			c0,0.2-0.1,0.3-0.1,0.5c0,0.1,0,0.2,0,0.2c0,0,0,0.1,0,0.1c0,0,0,0,0,0.1c0,0,0,0,0,0c0,0,0,0,38.3,5.7
			c38.3,5.7,38.3,5.7,38.3,5.7c0,0,0,0,0,0c0,0,0,0,0,0.1c0,0,0,0.1,0,0.1c0,0.1,0,0.1,0,0.2c0,0.1,0,0.3-0.1,0.4
			c-0.1,0.3-0.1,0.6-0.2,0.9c-0.1,0.6-0.2,1.2-0.4,1.7c-0.3,1.1-0.6,2.2-1,3.3c-0.8,2.2-1.9,4.1-3.1,5.8l0,0L174.3-0.1z M203.6,27
			c35.5,15.4,35.5,15.4,35.5,15.4c0,0,0,0,0,0c0,0,0,0,0,0c0,0,0,0,0,0c0,0,0,0,0,0c0,0,0,0,0,0.1c0,0,0,0.1-0.1,0.1
			c0,0.1-0.1,0.1-0.1,0.2c-0.1,0.1-0.1,0.3-0.2,0.4c-0.1,0.2-0.2,0.4-0.3,0.6l0,0L169.6,8.2c-0.4,0.8-0.7,1.5-1,2
			c-0.1,0.3-0.3,0.5-0.4,0.8c-0.1,0.1-0.1,0.2-0.1,0.3c0,0,0,0.1-0.1,0.1c0,0,0,0,0,0.1c0,0,0,0,0,0c0,0,0,0,0,0c0,0,0,0,0,0
			c0,0,0,0,0,0C168,11.6,168,11.6,203.6,27z M238.1,44.3c-1.4,2.5-3.2,4.8-5.4,6.9l0,0L180-5.5c-3.1,2.9-6.9,7.2-10.1,13.2l0,0
			L238.1,44.3z M234.9,49c0.1-0.1,0.1-0.1,0.1-0.1C235,48.9,235,48.9,234.9,49c0,0-0.3,0.3-0.7,0.7c-0.8,0.8-2.1,2.1-3.8,3.4l0,0
			l-47.7-61c-1.8,1.4-3.1,2.7-4,3.6c-0.4,0.4-0.7,0.7-0.8,0.9c0,0-0.1,0.1-0.1,0.1c0,0,0,0,0,0c0,0,0,0,0.1-0.1l0,0L234.9,49z
			 M234.2,49.8c-1.3,1.3-2.8,2.6-4.7,3.7l0,0l-40.7-65.9c-3.9,2.4-7.2,5.1-9.9,7.9l0,0L234.2,49.8z M229.4,53.6
			c-2.5,1.5-5.5,2.8-9,3.3l0,0l-12.5-76.4c-7.4,1.2-13.7,3.8-18.9,7l0,0L229.4,53.6z M214.1,18.7c3.7-38.5,3.7-38.5,3.7-38.5
			c0,0,0,0,0,0c0,0,0,0-0.1,0c0,0-0.1,0-0.1,0c-0.1,0-0.2,0-0.2,0c-0.2,0-0.3,0-0.5,0c-0.3,0-0.6,0-1-0.1c-0.7,0-1.4-0.1-2.2-0.1
			c-1.5,0-3.3,0.1-5.2,0.3c-3.8,0.4-8.2,1.4-12.9,3.2l0,0l27.8,72.3c-1.9,0.7-4,1.2-6.3,1.5c-1.1,0.1-2.2,0.2-3.3,0.2
			c-0.6,0-1.1,0-1.7,0c-0.3,0-0.6,0-0.9-0.1c-0.1,0-0.3,0-0.4,0c-0.1,0-0.1,0-0.2,0c0,0-0.1,0-0.1,0c0,0,0,0-0.1,0c0,0,0,0,0,0
			C210.4,57.3,210.4,57.3,214.1,18.7z M248.2,21.7l0-0.4l-77.3-4.3l0,0.4L248.2,21.7z M209.6,19.2c24.5,30,24.5,30,24.5,30
			c0,0,0,0,0,0c0,0,0,0,0,0c0,0-0.1,0.1-0.1,0.1c-0.1,0.1-0.1,0.1-0.2,0.2c-0.1,0.1-0.3,0.2-0.4,0.3c-0.3,0.2-0.5,0.4-0.8,0.6
			c-0.5,0.4-1.1,0.8-1.7,1.2c-1.2,0.8-2.5,1.5-4,2.2c-3,1.4-7,2.6-11.7,2.6l0,0L213.6-21c-7.6,0.2-14,2.1-18.7,4.2
			c-2.3,1.1-4.3,2.2-5.9,3.2c-0.8,0.5-1.5,1-2.2,1.5c-0.3,0.2-0.6,0.5-0.9,0.7c-0.1,0.1-0.3,0.2-0.4,0.3c-0.1,0.1-0.1,0.1-0.2,0.2
			c0,0-0.1,0.1-0.1,0.1c0,0,0,0,0,0c0,0,0,0,0,0C185.1-10.7,185.1-10.7,209.6,19.2z M214.3,17.7c-15.2,35.6-15.2,35.6-15.2,35.6
			c0,0,0,0,0,0c0,0,0,0,0,0c0,0,0,0-0.1,0c0,0-0.1,0-0.1-0.1c-0.1,0-0.2-0.1-0.3-0.1c-0.2-0.1-0.3-0.2-0.5-0.2
			c-0.3-0.1-0.6-0.3-0.8-0.4c-0.5-0.3-1-0.5-1.4-0.8c-0.7-0.5-2.4-1.7-4.2-3.9l0,0l61-47.7c-5.1-6.5-10.6-10.7-14.5-13.2
			c-2-1.3-3.8-2.3-5.3-3.1c-0.7-0.4-1.4-0.7-2-1c-0.3-0.1-0.5-0.3-0.8-0.4c-0.1-0.1-0.2-0.1-0.3-0.2c-0.1,0-0.1,0-0.2-0.1
			c0,0-0.1,0-0.1,0c0,0,0,0,0,0c0,0,0,0,0,0C229.5-17.9,229.5-17.9,214.3,17.7z M222.2,23.9C183.8,29,183.8,29,183.8,29c0,0,0,0,0,0
			c0,0,0-0.1,0-0.1c0-0.1,0-0.1,0-0.2c0-0.1,0-0.2,0-0.3c0-0.2-0.1-0.5-0.1-0.7c0-0.5-0.1-0.9-0.1-1.4c-0.1-1-0.1-2,0-3.1
			c0.1-2.2,0.4-4.7,1.1-7.4c1.6-5.9,4.9-11.9,10.4-16.4l0,0l49.6,59.5c8.3-6.9,12.9-15.4,14.9-23.3c1-3.7,1.4-7.1,1.4-9.9
			c0-1.4,0-2.7,0-3.8c0-0.6-0.1-1.1-0.1-1.6c0-0.3-0.1-0.5-0.1-0.7c0-0.1,0-0.2,0-0.4c0-0.1,0-0.1,0-0.2c0,0,0-0.1,0-0.1
			c0,0,0,0,0,0C260.6,18.8,260.5,18.8,222.2,23.9z"/>
	</g>
	<path class="st1" d="M196.3,25.9l18.5-14.5l11.9,15.3l-18.5,14.5L196.3,25.9z"/>
	<path class="st6" d="M170.3,87.8l39.4,44.7"/>
	<path class="st7" d="M154.3,164.3l22,26.6"/>
	<path class="st7" d="M226.9,49.9l22,26.6"/>
</g>
</svg>
