<?xml version="1.0" encoding="utf-8"?>
<!-- Generator: Adobe Illustrator 25.0.0, SVG Export Plug-In . SVG Version: 6.00 Build 0)  -->
<svg version="1.1" xmlns="http://www.w3.org/2000/svg" xmlns:xlink="http://www.w3.org/1999/xlink" x="0px" y="0px"
	 viewBox="0 0 1467.1 373.6" style="enable-background:new 0 0 1467.1 373.6;" xml:space="preserve">
<style type="text/css">
	.st0{fill:#E2E6EF;}
	.st1{fill:#7EBCC3;}
	.st2{fill:#6885BD;}
</style>
<g id="Layer_1">
	<path class="st0" d="M149.9,273.9c0,6.2-2.4,11.9-6.3,16.1c-4.4,4.8-10.6,7.8-17.7,7.8H70.6c-2.6,0-5.2-0.4-7.6-1.2
		c-9.8-3.2-16.8-12.4-16.8-23.2V58.5c0-1.8,0.2-3.5,0.5-5.1c0.1-0.4,0.2-0.8,0.3-1.2c0.1-0.4,0.2-0.8,0.4-1.2
		c0.9-2.8,2.2-5.4,3.9-7.7c0,0,0,0,0,0c1.5-1.9,3.2-3.7,5.1-5.1c0,0,0,0,0,0c0.4-0.3,0.7-0.5,1.1-0.8c0.6-0.4,1.2-0.8,1.8-1.1
		c1.8-1,3.8-1.8,5.8-2.4c0.5-0.1,0.9-0.2,1.4-0.3c0.4-0.1,0.8-0.2,1.3-0.2c1.2-0.2,2.5-0.3,3.9-0.3c1.3,0,2.5,0.1,3.8,0.3
		c0.8,0.1,1.5,0.2,2.3,0.5c0.7,0.2,1.5,0.4,2.2,0.6c9.9,3.5,17.1,12.9,17.1,24V250h29c7,0,13.3,3,17.7,7.8
		C147.5,262.1,149.9,267.7,149.9,273.9z"/>
	<path class="st0" d="M506.9,124.4v66.4c0,64.4-52.2,116.5-116.5,116.5c-62.9,0-114.1-49.8-116.4-112c-0.1-1.5-0.1-3-0.1-4.5V49.6
		h0.1c0-14.4,11.7-26.1,26.1-26.1c14.4,0,26.1,11.7,26.1,26.1v141.2c0,35.5,28.8,64.3,64.3,64.3c35.5,0,64.3-28.8,64.3-64.3v-65.1
		c0-0.5,0-0.9,0-1.3c0-9.2,4.7-17.2,11.9-21.9c4.1-2.7,9-4.2,14.3-4.2C495.2,98.3,506.9,110,506.9,124.4z"/>
	<circle class="st1" cx="201.1" cy="273.2" r="24.8"/>
	<path class="st0" d="M833.1,122.3V272c0,1.7-0.2,3.3-0.4,4.9c-0.9,5-3.4,9.4-7.3,12.8c-10.4,8.8-27.3,5.8-37.8-6.7l-137-162.3
		v155.7c0,13.3-11,24-24.6,24c-13.6,0-24.6-10.7-24.6-24V54.5c0-7.7,3.7-14.6,9.5-19l0,0c4-3.1,9.1-4.9,14.7-5
		c4.5,0.1,9.2,1.3,13.6,3.8c0.2,0.1,0.4,0.2,0.6,0.4c3.3,1.9,6.4,4.5,9.1,7.6L784,202.4v-80.1c0-9.1,11-16.4,24.6-16.4
		C822.1,105.9,833.1,113.2,833.1,122.3z"/>
	<path class="st2" d="M1041.8,31.3L914,202.8l128.6,96.8l128.6-94.6L1041.8,31.3z M1033,273.5l-97-73l97-130.2V273.5z M1052.1,70.3
		l95.4,132.5l-95.4,68.3V70.3z"/>
	<path class="st0" d="M1427.9,249.5c-1.6,5.8-3.9,11.4-6.7,16.7c-3,5.8-6.7,11.4-11.3,16c-5.7,5.8-12.7,10.2-20.1,13.7
		c-15.4,7.2-31.6,10.2-48.5,10c-7.7-0.1-15.5-1.1-22.6-4.1s-13.5-8.1-17.2-14.9c-5.1-9.6-3.9-23.5,6.4-29.1c8.5-4.6,19-1,27.9-0.3
		c7.9,0.6,16.1,0.3,23.6-2.4c10.7-3.7,20.2-13,21.1-24.4c0.5-6.3-1.7-12.6-5.4-17.8c-9.8-13.7-27.6-18.6-42.6-24.2
		c-11.6-4.3-23.8-7.6-35.1-12.5c-8.2-3.5-16-7.7-23.7-12.2c-6.9-4-13.8-8.4-19.6-14c-11.5-11.3-17.6-27.4-18-43.5
		c-0.4-16.7,4.8-33.5,14.6-47c10.7-14.7,26.4-23.6,43.5-29.1c15.1-4.9,31.1-6.6,46.9-5.1c19,1.9,37.5,8.6,53.4,19.1
		c9.2,6.1,18.7,14.1,23.6,24.2c5.1,10.6,0.7,23.7-9.2,29.7c-5.1,3-11.2,3.9-16.8,2.3c-7-2-11.7-7.8-17.4-12.1
		c-7.4-5.6-15.7-10.1-24.5-12.9c-13.5-4.3-28.6-4.4-41.8,0.9c-6.9,2.7-13.4,7-17.5,13.2c-4.1,6.2-5.6,14.4-2.8,21.2
		c2.1,5,6.3,8.9,10.7,12.1c9.2,6.7,19.8,11.2,30.4,15.7c10.6,5.3,22,9.3,32.8,14c5.5,2.3,10.9,4.6,16.4,7
		c28.9,12.3,52.3,36.2,52.4,69.3C1430.8,236,1429.8,242.9,1427.9,249.5z"/>
	<circle class="st1" cx="482.2" cy="56" r="24.8"/>
	
		<ellipse transform="matrix(0.1602 -0.9871 0.9871 0.1602 621.9155 846.4635)" class="st1" cx="808.4" cy="57.7" rx="24.7" ry="24.8"/>
	<circle class="st1" cx="1260.8" cy="246.3" r="24.8"/>
</g>
<g id="Layer_2">
</g>
</svg>
