<svg width="295" height="160" viewBox="0 0 295 160" fill="none" xmlns="http://www.w3.org/2000/svg">
<rect y="54" width="94" height="52" rx="26" fill="#0C090A"/>
<path d="M24.536 76.72C25 76.112 25.632 75.6 26.432 75.184C27.232 74.768 28.136 74.56 29.144 74.56C30.296 74.56 31.344 74.848 32.288 75.424C33.248 75.984 34 76.776 34.544 77.8C35.088 78.824 35.36 80 35.36 81.328C35.36 82.656 35.088 83.848 34.544 84.904C34 85.944 33.248 86.76 32.288 87.352C31.344 87.928 30.296 88.216 29.144 88.216C28.136 88.216 27.24 88.016 26.456 87.616C25.672 87.2 25.032 86.688 24.536 86.08V94.288H21.8V74.776H24.536V76.72ZM32.576 81.328C32.576 80.416 32.384 79.632 32 78.976C31.632 78.304 31.136 77.8 30.512 77.464C29.904 77.112 29.248 76.936 28.544 76.936C27.856 76.936 27.2 77.112 26.576 77.464C25.968 77.816 25.472 78.328 25.088 79C24.72 79.672 24.536 80.464 24.536 81.376C24.536 82.288 24.72 83.088 25.088 83.776C25.472 84.448 25.968 84.96 26.576 85.312C27.2 85.664 27.856 85.84 28.544 85.84C29.248 85.84 29.904 85.664 30.512 85.312C31.136 84.944 31.632 84.416 32 83.728C32.384 83.04 32.576 82.24 32.576 81.328ZM40.8016 76.696C41.2016 76.024 41.7296 75.504 42.3856 75.136C43.0576 74.752 43.8496 74.56 44.7616 74.56V77.392H44.0656C42.9936 77.392 42.1776 77.664 41.6176 78.208C41.0736 78.752 40.8016 79.696 40.8016 81.04V88H38.0656V74.776H40.8016V76.696ZM53.0126 88.216C51.7646 88.216 50.6366 87.936 49.6286 87.376C48.6206 86.8 47.8286 86 47.2526 84.976C46.6766 83.936 46.3886 82.736 46.3886 81.376C46.3886 80.032 46.6846 78.84 47.2766 77.8C47.8686 76.76 48.6766 75.96 49.7006 75.4C50.7246 74.84 51.8686 74.56 53.1326 74.56C54.3966 74.56 55.5406 74.84 56.5646 75.4C57.5886 75.96 58.3966 76.76 58.9886 77.8C59.5806 78.84 59.8766 80.032 59.8766 81.376C59.8766 82.72 59.5726 83.912 58.9646 84.952C58.3566 85.992 57.5246 86.8 56.4686 87.376C55.4286 87.936 54.2766 88.216 53.0126 88.216ZM53.0126 85.84C53.7166 85.84 54.3726 85.672 54.9806 85.336C55.6046 85 56.1086 84.496 56.4926 83.824C56.8766 83.152 57.0686 82.336 57.0686 81.376C57.0686 80.416 56.8846 79.608 56.5166 78.952C56.1486 78.28 55.6606 77.776 55.0526 77.44C54.4446 77.104 53.7886 76.936 53.0846 76.936C52.3806 76.936 51.7246 77.104 51.1166 77.44C50.5246 77.776 50.0526 78.28 49.7006 78.952C49.3486 79.608 49.1726 80.416 49.1726 81.376C49.1726 82.8 49.5326 83.904 50.2526 84.688C50.9886 85.456 51.9086 85.84 53.0126 85.84ZM67.3813 88.216C66.3413 88.216 65.4053 88.032 64.5733 87.664C63.7573 87.28 63.1093 86.768 62.6293 86.128C62.1493 85.472 61.8933 84.744 61.8613 83.944H64.6933C64.7413 84.504 65.0053 84.976 65.4853 85.36C65.9813 85.728 66.5973 85.912 67.3333 85.912C68.1013 85.912 68.6933 85.768 69.1093 85.48C69.5413 85.176 69.7573 84.792 69.7573 84.328C69.7573 83.832 69.5173 83.464 69.0373 83.224C68.5733 82.984 67.8293 82.72 66.8053 82.432C65.8133 82.16 65.0053 81.896 64.3813 81.64C63.7573 81.384 63.2133 80.992 62.7493 80.464C62.3013 79.936 62.0773 79.24 62.0773 78.376C62.0773 77.672 62.2853 77.032 62.7013 76.456C63.1173 75.864 63.7093 75.4 64.4773 75.064C65.2613 74.728 66.1573 74.56 67.1653 74.56C68.6693 74.56 69.8773 74.944 70.7893 75.712C71.7173 76.464 72.2133 77.496 72.2773 78.808H69.5413C69.4933 78.216 69.2533 77.744 68.8213 77.392C68.3893 77.04 67.8053 76.864 67.0693 76.864C66.3493 76.864 65.7973 77 65.4133 77.272C65.0293 77.544 64.8373 77.904 64.8373 78.352C64.8373 78.704 64.9653 79 65.2213 79.24C65.4773 79.48 65.7893 79.672 66.1573 79.816C66.5253 79.944 67.0693 80.112 67.7893 80.32C68.7493 80.576 69.5333 80.84 70.1413 81.112C70.7653 81.368 71.3013 81.752 71.7493 82.264C72.1973 82.776 72.4293 83.456 72.4453 84.304C72.4453 85.056 72.2373 85.728 71.8213 86.32C71.4053 86.912 70.8133 87.376 70.0453 87.712C69.2933 88.048 68.4053 88.216 67.3813 88.216Z" fill="#EFEEEC"/>
<rect x="133" y="100" width="99" height="52" rx="26" fill="#0C090A"/>
<path d="M153.888 127.376C153.888 126.016 154.16 124.824 154.704 123.8C155.264 122.76 156.032 121.96 157.008 121.4C157.984 120.84 159.104 120.56 160.368 120.56C161.968 120.56 163.288 120.944 164.328 121.712C165.384 122.464 166.096 123.544 166.464 124.952H163.512C163.272 124.296 162.888 123.784 162.36 123.416C161.832 123.048 161.168 122.864 160.368 122.864C159.248 122.864 158.352 123.264 157.68 124.064C157.024 124.848 156.696 125.952 156.696 127.376C156.696 128.8 157.024 129.912 157.68 130.712C158.352 131.512 159.248 131.912 160.368 131.912C161.952 131.912 163 131.216 163.512 129.824H166.464C166.08 131.168 165.36 132.24 164.304 133.04C163.248 133.824 161.936 134.216 160.368 134.216C159.104 134.216 157.984 133.936 157.008 133.376C156.032 132.8 155.264 132 154.704 130.976C154.16 129.936 153.888 128.736 153.888 127.376ZM174.927 134.216C173.679 134.216 172.551 133.936 171.543 133.376C170.535 132.8 169.743 132 169.167 130.976C168.591 129.936 168.303 128.736 168.303 127.376C168.303 126.032 168.599 124.84 169.191 123.8C169.783 122.76 170.591 121.96 171.615 121.4C172.639 120.84 173.783 120.56 175.047 120.56C176.311 120.56 177.455 120.84 178.479 121.4C179.503 121.96 180.311 122.76 180.903 123.8C181.495 124.84 181.791 126.032 181.791 127.376C181.791 128.72 181.487 129.912 180.879 130.952C180.271 131.992 179.439 132.8 178.383 133.376C177.343 133.936 176.191 134.216 174.927 134.216ZM174.927 131.84C175.631 131.84 176.287 131.672 176.895 131.336C177.519 131 178.023 130.496 178.407 129.824C178.791 129.152 178.983 128.336 178.983 127.376C178.983 126.416 178.799 125.608 178.431 124.952C178.063 124.28 177.575 123.776 176.967 123.44C176.359 123.104 175.703 122.936 174.999 122.936C174.295 122.936 173.639 123.104 173.031 123.44C172.439 123.776 171.967 124.28 171.615 124.952C171.263 125.608 171.087 126.416 171.087 127.376C171.087 128.8 171.447 129.904 172.167 130.688C172.903 131.456 173.823 131.84 174.927 131.84ZM191.167 120.56C192.207 120.56 193.135 120.776 193.951 121.208C194.783 121.64 195.431 122.28 195.895 123.128C196.359 123.976 196.591 125 196.591 126.2V134H193.879V126.608C193.879 125.424 193.583 124.52 192.991 123.896C192.399 123.256 191.591 122.936 190.567 122.936C189.543 122.936 188.727 123.256 188.119 123.896C187.527 124.52 187.231 125.424 187.231 126.608V134H184.495V120.776H187.231V122.288C187.679 121.744 188.247 121.32 188.935 121.016C189.639 120.712 190.383 120.56 191.167 120.56ZM204.881 134.216C203.841 134.216 202.905 134.032 202.073 133.664C201.257 133.28 200.609 132.768 200.129 132.128C199.649 131.472 199.393 130.744 199.361 129.944H202.193C202.241 130.504 202.505 130.976 202.985 131.36C203.481 131.728 204.097 131.912 204.833 131.912C205.601 131.912 206.193 131.768 206.609 131.48C207.041 131.176 207.257 130.792 207.257 130.328C207.257 129.832 207.017 129.464 206.537 129.224C206.073 128.984 205.329 128.72 204.305 128.432C203.313 128.16 202.505 127.896 201.881 127.64C201.257 127.384 200.713 126.992 200.249 126.464C199.801 125.936 199.577 125.24 199.577 124.376C199.577 123.672 199.785 123.032 200.201 122.456C200.617 121.864 201.209 121.4 201.977 121.064C202.761 120.728 203.657 120.56 204.665 120.56C206.169 120.56 207.377 120.944 208.289 121.712C209.217 122.464 209.713 123.496 209.777 124.808H207.041C206.993 124.216 206.753 123.744 206.321 123.392C205.889 123.04 205.305 122.864 204.569 122.864C203.849 122.864 203.297 123 202.913 123.272C202.529 123.544 202.337 123.904 202.337 124.352C202.337 124.704 202.465 125 202.721 125.24C202.977 125.48 203.289 125.672 203.657 125.816C204.025 125.944 204.569 126.112 205.289 126.32C206.249 126.576 207.033 126.84 207.641 127.112C208.265 127.368 208.801 127.752 209.249 128.264C209.697 128.776 209.929 129.456 209.945 130.304C209.945 131.056 209.737 131.728 209.321 132.32C208.905 132.912 208.313 133.376 207.545 133.712C206.793 134.048 205.905 134.216 204.881 134.216Z" fill="#EFEEEC"/>
<path d="M120.25 2.85175H111.75V12.75H101.833V21.25H111.75V31.1482H120.25V21.25H130.167V12.75H120.25V2.85175Z" fill="#0C090A"/>
<path d="M205.375 37.6131H191.625V53.625H175.583V67.375H191.625V83.3868H205.375V67.375H221.417V53.625H205.375V37.6131Z" fill="#0C090A"/>
<rect x="47" y="152" width="27" height="8" fill="#0C090A"/>
<rect x="275" y="90" width="20" height="5" fill="#0C090A"/>
</svg>
