<?xml version="1.0" encoding="utf-8"?>
<!-- Generator: Adobe Illustrator 25.0.0, SVG Export Plug-In . SVG Version: 6.00 Build 0)  -->
<svg version="1.1" id="Layer_1" xmlns="http://www.w3.org/2000/svg" xmlns:xlink="http://www.w3.org/1999/xlink" x="0px" y="0px"
	 viewBox="0 0 295 160" style="enable-background:new 0 0 295 160;" xml:space="preserve">
<style type="text/css">
	.st0{fill:#0C090A;}
	.st1{fill:#EFEEEC;}
</style>
<path class="st0" d="M64.8,88.5h-1.6c-20.3,0-36.7-16.4-36.7-36.7l0,0c0-20.3,16.4-36.7,36.7-36.7h1.6c20.3,0,36.7,16.4,36.7,36.7
	l0,0C101.5,72.1,85,88.5,64.8,88.5z"/>
<path class="st1" d="M55.7,57l8.2-8.2l8.2,8.2l2.7-2.7L64,43.3L53,54.3L55.7,57z"/>
<path class="st0" d="M241.9,96.6h-1.6c-14.7,0-26.6-11.9-26.6-26.6l0,0c0-14.7,11.9-26.6,26.6-26.6h1.6c14.7,0,26.6,11.9,26.6,26.6
	l0,0C268.6,84.7,256.7,96.6,241.9,96.6z"/>
<path class="st1" d="M236.5,72.9l4.6-4.6l4.6,4.6l1.5-1.5l-6.1-6.1l-6.1,6.1L236.5,72.9z"/>
<path class="st0" d="M150.1,30.4V15.2l-3.5,0.5v-5.1l9.5-1.4v21.1H150.1z M159.1,30.4V9.6h5.9l5.2,10.6l5.1-10.6h5.9v20.8h-6.1V20
	l-3.3,6.8h-3.3l-3.4-6.8v10.4H159.1z M187.7,27.4v-3.9h-4.2v-4.6h4.2V15h4.7v3.9h4.2v4.6h-4.2v3.9H187.7z"/>
<path class="st0" d="M154,102.3L154,102.3c13.4,0,24.2,10.8,24.2,24.2l0,0c0,13.4-10.8,24.2-24.2,24.2l0,0
	c-13.4,0-24.2-10.8-24.2-24.2l0,0C129.7,113.1,140.6,102.3,154,102.3z"/>
<path class="st1" d="M159.7,122.8l-5.8,5.8l-5.8-5.8l-1.9,1.9l7.7,7.7l7.7-7.7L159.7,122.8z"/>
</svg>
