<?xml version="1.0" encoding="utf-8"?>
<!-- Generator: Adobe Illustrator 25.0.0, SVG Export Plug-In . SVG Version: 6.00 Build 0)  -->
<svg version="1.1" id="Layer_1" xmlns="http://www.w3.org/2000/svg" xmlns:xlink="http://www.w3.org/1999/xlink" x="0px" y="0px"
	 viewBox="0 0 295 160" style="enable-background:new 0 0 295 160;" xml:space="preserve">
<style type="text/css">
	.st0{fill:#EFEEEC;}
	.st1{fill:#0C090A;}
</style>
<path class="st0" d="M62.2,88.8h-1.7c-20.9,0-37.9-17-37.9-37.9l0,0C22.6,30,39.6,13,60.5,13h1.7C83.1,13,100,30,100,50.9l0,0
	C100,71.8,83.1,88.8,62.2,88.8z"/>
<path class="st1" d="M52.8,56.3l8.5-8.5l8.5,8.5l2.8-2.8L61.3,42.2L50,53.5L52.8,56.3z"/>
<path class="st0" d="M244.9,97.1h-1.7c-15.2,0-27.5-12.3-27.5-27.5l0,0c0-15.2,12.3-27.5,27.5-27.5h1.7c15.2,0,27.5,12.3,27.5,27.5
	l0,0C272.4,84.8,260.1,97.1,244.9,97.1z"/>
<path class="st1" d="M239.3,72.7l4.8-4.8l4.8,4.8l1.6-1.6l-6.3-6.3l-6.3,6.3L239.3,72.7z"/>
<path class="st0" d="M150.2,28.9V13.2l-3.6,0.5V8.5l9.8-1.4v21.8H150.2z M159.5,28.9V7.4h6.1l5.3,10.9l5.3-10.9h6.1v21.4H176V18.1
	l-3.4,7.1h-3.4l-3.5-7.1v10.7H159.5z M189,25.8v-4h-4.3V17h4.3v-4h4.8v4h4.3v4.8h-4.3v4H189z"/>
<path class="st0" d="M154.2,103L154.2,103c13.8,0,25,11.2,25,25l0,0c0,13.8-11.2,25-25,25l0,0c-13.8,0-25-11.2-25-25l0,0
	C129.2,114.1,140.4,103,154.2,103z"/>
<path class="st1" d="M160.1,124.2l-6,6l-6-6l-2,2l7.9,7.9l7.9-7.9L160.1,124.2z"/>
</svg>
