<svg width="300" height="197" viewBox="0 0 300 197" fill="none" xmlns="http://www.w3.org/2000/svg">
<rect x="93" y="120" width="93" height="91" rx="45.5" transform="rotate(-180 93 120)" fill="#0C090A"/>
<path d="M36.3042 80.9293L46.5001 70.7334L56.6959 80.9293L60.0542 77.571L46.5001 64.0169L32.9459 77.571L36.3042 80.9293Z" fill="#EFEEEC"/>
<rect x="300" y="130" width="68" height="66" rx="33" transform="rotate(-180 300 130)" fill="#0C090A"/>
<path d="M260.276 100.609L266 94.8853L271.724 100.609L273.609 98.724L266 91.1146L258.391 98.724L260.276 100.609Z" fill="#EFEEEC"/>
<path d="M153.28 48V29.2L149 29.84V23.56L160.8 21.84V48H153.28ZM164.409 48V22.24H171.729L178.129 35.32L184.489 22.24H191.769V48H184.249V35.12L180.129 43.6H176.089L171.929 35.12V48H164.409ZM199.786 44.32V39.52H194.586V33.76H199.786V28.92H205.586V33.76H210.786V39.52H205.586V44.32H199.786Z" fill="#0C090A"/>
<rect x="128" y="137" width="60" height="60" rx="30" fill="#0C090A"/>
<path d="M165.155 162.488L158 169.643L150.845 162.488L148.488 164.845L158 174.357L167.512 164.845L165.155 162.488Z" fill="#EFEEEC"/>
</svg>
